<svg width="24" height="24" viewBox="0 0 24 24" fill="none" xmlns="http://www.w3.org/2000/svg">
<g clip-path="url(#clip0_187_15)">
<path d="M12 1.3335C9.89038 1.3335 7.82809 1.95909 6.07396 3.13115C4.31984 4.30322 2.95267 5.96913 2.14533 7.91821C1.338 9.86728 1.12676 12.012 1.53834 14.0811C1.94991 16.1503 2.96581 18.0509 4.45757 19.5426C5.94933 21.0344 7.84995 22.0503 9.91908 22.4619C11.9882 22.8734 14.1329 22.6622 16.082 21.8549C18.0311 21.0475 19.697 19.6804 20.8691 17.9262C22.0411 16.1721 22.6667 14.1098 22.6667 12.0002C22.6667 9.17119 21.5429 6.45808 19.5425 4.45769C17.5421 2.4573 14.829 1.3335 12 1.3335ZM12 21.3335C10.1541 21.3335 8.34958 20.7861 6.81472 19.7605C5.27986 18.735 4.08359 17.2773 3.37717 15.5719C2.67075 13.8664 2.48592 11.9898 2.84605 10.1793C3.20618 8.36883 4.09509 6.70579 5.40038 5.4005C6.70567 4.09521 8.36871 3.2063 10.1792 2.84617C11.9897 2.48604 13.8663 2.67087 15.5718 3.37729C17.2772 4.08371 18.7349 5.27998 19.7604 6.81484C20.786 8.3497 21.3334 10.1542 21.3334 12.0002C21.3334 14.4755 20.35 16.8495 18.5997 18.5998C16.8494 20.3502 14.4754 21.3335 12 21.3335Z" fill="#606060"/>
<path d="M18.1 10H5.89998C5.57288 10 5.25917 10.1299 5.02788 10.3612C4.79658 10.5925 4.66664 10.9062 4.66664 11.2333V12.76C4.66577 12.9225 4.69702 13.0836 4.75861 13.234C4.82019 13.3844 4.9109 13.5212 5.02551 13.6364C5.14013 13.7516 5.27639 13.8431 5.42646 13.9055C5.57653 13.9679 5.73745 14 5.89998 14H18.1C18.2619 14 18.4223 13.9681 18.572 13.9061C18.7216 13.8441 18.8575 13.7533 18.9721 13.6388C19.0866 13.5242 19.1774 13.3883 19.2394 13.2386C19.3014 13.089 19.3333 12.9286 19.3333 12.7667V11.2333C19.3333 11.0714 19.3014 10.911 19.2394 10.7614C19.1774 10.6117 19.0866 10.4758 18.9721 10.3612C18.8575 10.2467 18.7216 10.1559 18.572 10.0939C18.4223 10.0319 18.2619 10 18.1 10ZM18.2666 12.7667C18.2666 12.8109 18.2491 12.8533 18.2178 12.8845C18.1866 12.9158 18.1442 12.9333 18.1 12.9333H5.89998C5.85577 12.9333 5.81338 12.9158 5.78213 12.8845C5.75087 12.8533 5.73331 12.8109 5.73331 12.7667V11.2333C5.73331 11.1891 5.75087 11.1467 5.78213 11.1155C5.81338 11.0842 5.85577 11.0667 5.89998 11.0667H18.1C18.1442 11.0667 18.1866 11.0842 18.2178 11.1155C18.2491 11.1467 18.2666 11.1891 18.2666 11.2333V12.7667Z" fill="#606060"/>
</g>
<defs>
<clipPath id="clip0_187_15">
<rect width="24" height="24" fill="white"/>
</clipPath>
</defs>
</svg>
