<svg width="24" height="24" viewBox="0 0 24 24" fill="none" xmlns="http://www.w3.org/2000/svg">
<path d="M22.5 13.5V17.625C22.5 18.75 21.825 19.725 20.775 20.25L19.5 20.85L18.225 20.25C17.175 19.8 16.5 18.75 16.5 17.625V13.5H22.5ZM24 12H15V17.625C15 19.275 15.975 20.85 17.55 21.6L19.5 22.5L21.45 21.6C23.025 20.85 24 19.35 24 17.625V12Z" fill="#606060"/>
<path d="M12 18.75H5.625C2.55 18.75 0 16.2 0 13.125C0 10.35 2.025 8.1 4.65 7.575C5.325 4.05 8.4 1.5 12 1.5C16.125 1.5 19.5 4.875 19.5 9H18C18 5.7 15.3 3 12 3C8.925 3 6.375 5.325 6 8.325V9H5.325C3.15 9.15 1.5 10.95 1.5 13.125C1.5 15.375 3.375 17.25 5.625 17.25H12V18.75Z" fill="#606060"/>
</svg>
