<svg width="24" height="24" viewBox="0 0 24 24" fill="none" xmlns="http://www.w3.org/2000/svg">
<path d="M11.5 18.5H12.5V15.5H15.5V14.5H12.5V11.5H11.5V14.5H8.5V15.5H11.5V18.5ZM6.615 21C6.171 21 5.791 20.8417 5.475 20.525C5.15833 20.209 5 19.829 5 19.385V10.615C5 10.171 5.15833 9.791 5.475 9.475C5.791 9.15833 6.171 9 6.615 9H8V7C8 5.886 8.388 4.94067 9.164 4.164C9.94 3.38733 10.8853 2.99933 12 3C13.114 3 14.0593 3.388 14.836 4.164C15.6127 4.94 16.0007 5.88533 16 7V9H17.385C17.829 9 18.209 9.15833 18.525 9.475C18.8417 9.791 19 10.171 19 10.615V19.385C19 19.829 18.8417 20.209 18.525 20.525C18.209 20.8417 17.829 21 17.385 21H6.615ZM6.615 20H17.385C17.5643 20 17.7117 19.9423 17.827 19.827C17.9423 19.7117 18 19.5643 18 19.385V10.615C18 10.4357 17.9423 10.2883 17.827 10.173C17.7117 10.0577 17.5643 10 17.385 10H6.615C6.43567 10 6.28833 10.0577 6.173 10.173C6.05767 10.2883 6 10.4357 6 10.615V19.385C6 19.5643 6.05767 19.7117 6.173 19.827C6.28833 19.9423 6.43567 20 6.615 20ZM9 9H15V7C15 6.16667 14.7083 5.45833 14.125 4.875C13.5417 4.29167 12.8333 4 12 4C11.1667 4 10.4583 4.29167 9.875 4.875C9.29167 5.45833 9 6.16667 9 7V9Z" fill="#606060"/>
</svg>
