<svg data-name="Layer 1" xmlns="http://www.w3.org/2000/svg" xmlns:xlink="http://www.w3.org/1999/xlink" viewBox="0 0 374.24 306.74"><defs><linearGradient id="a" x1="119.32" y1="148.05" x2="122.41" y2="-55.23" gradientTransform="matrix(1 0 0 -1 0 352)" gradientUnits="userSpaceOnUse"><stop offset=".01"/><stop offset=".08" stop-opacity=".69"/><stop offset=".21" stop-opacity=".32"/><stop offset="1" stop-opacity="0"/></linearGradient><linearGradient id="d" x1="-737.38" y1="90.09" x2="-734.81" y2="88.16" gradientTransform="rotate(180 -252.805 176)" xlink:href="#a"/><linearGradient id="e" x1="-982.47" y1="326.9" x2="-328.94" y2="-161.88" gradientTransform="rotate(180 -252.805 176)" xlink:href="#a"/><linearGradient id="f" x1="-762.66" y1="184.94" x2="-694.83" y2="-30.49" gradientTransform="rotate(180 -252.805 176)" xlink:href="#a"/><linearGradient id="g" x1="-724.19" y1="225.84" x2="-765.66" y2="-54.52" gradientTransform="rotate(180 -266.045 167.505)" xlink:href="#a"/><linearGradient id="h" x1="-765.32" y1="186.64" x2="-797.28" y2="-29.39" gradientTransform="rotate(180 -266.045 167.505)" xlink:href="#a"/><linearGradient id="i" x1="-787.53" y1="122.49" x2="-804.53" y2="78.76" gradientTransform="rotate(180 -252.805 176)" xlink:href="#a"/><linearGradient id="j" x1="-712.32" y1="295.39" x2="-639.47" y2="-340.86" gradientTransform="rotate(180 -252.805 176)" xlink:href="#a"/><linearGradient id="k" x1="224.71" y1="268.52" x2="107.66" y2="67.13" xlink:href="#a"/><linearGradient id="l" x1="189.86" y1="254.1" x2="226.57" y2="134.07" gradientTransform="matrix(1 0 0 -1 -26.48 335.01)" xlink:href="#a"/><linearGradient id="c" x1="202.6" y1="221.13" x2="367.36" y2="55.32" gradientTransform="matrix(1 0 0 -1 0 352)" gradientUnits="userSpaceOnUse"><stop offset="0" stop-color="#fff" stop-opacity="0"/><stop offset=".54" stop-color="#fff"/></linearGradient><linearGradient id="b" x1="224.95" y1="119.19" x2="220.16" y2="216.78" gradientTransform="matrix(1 0 0 -1 0 352)" gradientUnits="userSpaceOnUse"><stop offset=".01"/><stop offset=".13" stop-opacity=".69"/><stop offset=".25" stop-opacity=".32"/><stop offset="1" stop-opacity="0"/></linearGradient><linearGradient id="m" x1="291.73" y1="112.6" x2="275.79" y2="151.72" xlink:href="#b"/><linearGradient id="n" x1="98.76" y1="129.88" x2="120.94" y2="129.88" xlink:href="#a"/><linearGradient id="o" x1="89.54" y1="129.68" x2="97.96" y2="129.68" xlink:href="#a"/><linearGradient id="p" x1="86.84" y1="188.87" x2="108.8" y2="127.49" xlink:href="#a"/><linearGradient id="q" x1="148.71" y1="96.14" x2="163.73" y2="162.02" xlink:href="#c"/><linearGradient id="r" x1="146.63" y1="96.61" x2="161.65" y2="162.49" xlink:href="#c"/><linearGradient id="s" x1="150.08" y1="95.82" x2="165.09" y2="161.71" xlink:href="#c"/><linearGradient id="t" x1="147.9" y1="96.32" x2="162.92" y2="162.2" xlink:href="#c"/><linearGradient id="u" x1="147.45" y1="96.42" x2="162.46" y2="162.31" xlink:href="#c"/><linearGradient id="v" x1="136.58" y1="98.9" x2="151.6" y2="164.78" xlink:href="#c"/><linearGradient id="w" x1="137.12" y1="98.77" x2="152.13" y2="164.66" xlink:href="#c"/><linearGradient id="x" x1="112.46" y1="104.4" x2="127.47" y2="170.28" xlink:href="#c"/><linearGradient id="y" x1="113.57" y1="104.15" x2="128.59" y2="170.03" xlink:href="#c"/><linearGradient id="z" x1="122.23" y1="102.17" x2="137.25" y2="168.05" xlink:href="#c"/><linearGradient id="A" x1="104.71" y1="106.16" x2="119.73" y2="172.05" xlink:href="#c"/><linearGradient id="B" x1="118.28" y1="103.07" x2="133.3" y2="168.96" xlink:href="#c"/><linearGradient id="C" x1="116.2" y1="103.54" x2="131.22" y2="169.43" xlink:href="#c"/><linearGradient id="D" x1="119.66" y1="102.76" x2="134.67" y2="168.64" xlink:href="#c"/><linearGradient id="E" x1="117.46" y1="103.25" x2="132.48" y2="169.14" xlink:href="#c"/><linearGradient id="F" x1="135.33" y1="99.18" x2="150.34" y2="165.07" xlink:href="#c"/><linearGradient id="G" x1="133.22" y1="99.66" x2="148.23" y2="165.55" xlink:href="#c"/><linearGradient id="H" x1="136.68" y1="98.88" x2="151.7" y2="164.76" xlink:href="#c"/><linearGradient id="I" x1="134" y1="99.49" x2="149.02" y2="165.37" xlink:href="#c"/></defs><path d="M170.52.32a218.94 218.94 0 00-104.33 33c-14.67 9.3-28.56 20.62-37.67 35.43s-12.88 33.57-7 49.91c3.51 9.71 10.11 17.95 14.82 27.13s7.42 20.48 2.73 29.67c-5.38 10.64-18.36 14.55-27.55 22.21-14.59 12.14-12.93 23.1-8 38.94 4.27 13.84 11.13 25.82 22.26 35.28 21.74 18.48 51.84 24.19 79.17 28.73 39.6 6.58 80.2 8.3 120.06 3 19.51-2.58 37.72-8 56.63-12.77 18.48-4.63 37.1-10.41 52.86-21.45a93.21 93.21 0 0028.4-120.88c-15.76-29-45.66-47.7-63.83-75.21-10.68-16.16-17.11-35.07-29.55-49.88-11.43-13.42-41.59-18.7-57.94-21.24A188.43 188.43 0 00186.82.06c-5.43-.12-10.87-.05-16.3.26z" fill="#4fc3f7" opacity=".18" style="isolation:isolate"/><path d="M88.8 243.69c3.58 2.58 7.17 5.16 10.94 7.45 6.83 4.15 14.19 7.34 21.52 10.51 2.14.92 4.29 1.85 6.44 2.74a11.82 11.82 0 004.4 1.16c3.35 0 6-2.62 9-4.2 2.61-1.39 5.57-2 8.21-3.3 1-.48 2-1.28 1.91-2.35s-1-1.58-1.87-2c-7.61-4-15.9-6.65-24.13-9.22a10.52 10.52 0 00-4.11-.72c-2.63.24-4.68 2.33-7.17 3.21a13.33 13.33 0 01-5.14.52c-6.88-.37-13.17-3.73-20-3.8z" transform="translate(-26.48 -16.99)" fill="url(#a)"/><path d="M231.08 262.5l-.57.08c-.42.33.75.42.57-.08z" transform="translate(-26.48 -16.99)" fill="url(#d)"/><path d="M103.86 196.1c4.27 1.71 8.76 3.37 11.53 5.33L181 247.5a157.54 157.54 0 0015.68 10c4.42 2.39 6.94 7 12.3 8.16a21.31 21.31 0 008-.14 74.82 74.82 0 0012.68-3.22c.51-.17 1.22-.28 1.45.21 38.21-5.22 74.75-19.09 112.63-26.31a2.08 2.08 0 00.39-4 51.36 51.36 0 00-9.78-2.4c-6-1.12-12.07-2.21-18.13-3.2a307.38 307.38 0 00-36.93-4.1c-20.56-.83-41.3 1.33-61.63-1.86-19.32-3-37.54-10.75-55.52-18.46-4.33-1.86-8.75-3.79-12.15-7-2.66-2.55-4.8-5.94-8.2-7.62s-7.78-1.44-11.6-1.26a172.4 172.4 0 00-22.4 3c-1.4 2.2-2.7 4.49-3.93 6.8z" transform="translate(-26.48 -16.99)" fill="url(#e)"/><path d="M315.52 206.27l-85.82-37.33a10.27 10.27 0 00-6-1l-106.18 9.07c-2 .29-1.67 9 0 10.42l62.69 53.36a15.75 15.75 0 0014 3.52l120.57-29.3c1.53-.42 2.19-8 .74-8.74z" fill="#4fc3f7"/><path d="M342 223.26l-85.82-37.33a10.27 10.27 0 00-6-1L144 194c-2 .29-1.67 9 0 10.42l62.69 53.36a15.75 15.75 0 0014 3.52L341.26 232c1.53-.42 2.19-8 .74-8.74z" transform="translate(-26.48 -16.99)" fill="url(#f)"/><path d="M117.52 181.19l62.68 53.36a15.71 15.71 0 0014 3.51l120.52-29.29a2 2 0 001.06-2.62 2 2 0 00-.76-.9l-33.05-18.65-8.67-4.87-26.39-14.89a10.27 10.27 0 00-6-1l-122.3 10.65c-2.04.29-2.71 3.3-1.09 4.7z" fill="#4fc3f7"/><path fill="url(#g)" d="M240.96 168.79l-111.84 16.55 34.43 27.94 114.77-23.22-37.36-21.27z"/><path fill="url(#h)" d="M252.66 197l-46.09 9.31 23.83 19.44L278.32 215l-25.66-18z"/><path d="M302.18 235.36a7.43 7.43 0 01-4.75 3.89c-3.38.81-23.12 5.86-23.12 5.86s-3.21.39-5-1.76z" transform="translate(-26.48 -16.99)" fill="url(#i)"/><path d="M244.46 165.84l-126.21 18a3.67 3.67 0 01-4.1-2.91l-18-90.92a7 7 0 015.44-8.27 6.21 6.21 0 01.85-.12l124.64-11a7 7 0 017.62 6.25z" fill="#4fc3f7"/><path d="M270.94 182.83l-125.88 17.91a4 4 0 01-4.5-3.19L122.62 107a7 7 0 015.44-8.27 6.21 6.21 0 01.85-.12l124.65-11a7 7 0 017.62 6.25z" transform="translate(-26.48 -16.99)" fill="url(#j)"/><path fill="#fff" d="M120.52 178.57L102.6 86.83l127.44-8.86 10.11 86.85-119.63 13.75z"/><path d="M298.33 141.9a33.44 33.44 0 11-66.88 0 21.57 21.57 0 01.1-2.55 33.44 33.44 0 0166.78 2.55z" fill="#4fc3f7"/><path d="M250.83 157.09c-1.1 4.83.25 10-.74 14.8a33.59 33.59 0 01-16.64-18.56 20.4 20.4 0 01.13-5 13.34 13.34 0 00.05-5.34 12.25 12.25 0 00-2.08-3.65 33.38 33.38 0 0114-24.7 1.94 1.94 0 010 .68l-1.43 6.37a19.38 19.38 0 010 5.69 6.58 6.58 0 01-3.1 4.57 13.68 13.68 0 00-1.8.89 5.77 5.77 0 00-1.36 1.63 13.42 13.42 0 00-2 4.26 4.77 4.77 0 001.06 4.41l9.32-1.81c1-.19 2.16-.32 2.83.42s.3 2.27.48 3.45c.22 1.51 1.56 2.59 2.18 4 1.03 2.47-.28 5.25-.9 7.89zM298.33 141.9a33.37 33.37 0 01-12.74 26.27 4.27 4.27 0 01-1.16-1.16 3.41 3.41 0 01.92-4.73c-.56.29-2.77-.43-3.43-.54l-3.44-.53c-1.65-.25-4.53-.15-5.49-1.81a3.86 3.86 0 00-.39-.65 2.06 2.06 0 00-.71-.49c-1-.51-2.25-1.08-2.5-2.21-.17-.82.24-1.76-.18-2.5-.14-.22-.34-.4-.47-.63a2.14 2.14 0 01.23-2.1c1.45-2.54 4.46-3.76 7.34-4.25s5.86-.41 8.67-1.23a37.56 37.56 0 015.29-1.62c1-.14 2.26-.24 2.63-1.19.21-.53 0-1.16.22-1.7.08-.23.23-.44.32-.67a1.38 1.38 0 00-.89-1.73 1.22 1.22 0 00-.26-.06c.23-.63.42-1.43-.07-1.88a1.33 1.33 0 00-1.22-.19c-1.2.31-2.07 1.32-3.08 2-3.34 2.37-7.91 1.53-10.7-1.26a3 3 0 01-.93-1.51 2.43 2.43 0 011.42-2.4 7 7 0 012.89-.57l-1.1-7.25c-5.56 1.49-7.82-3.8-8.61-8.2s2.33-6 6.36-6.27a33.46 33.46 0 0121.08 31.06z" fill="#020202" opacity=".14" style="isolation:isolate"/><path d="M164.69 161.42c1 9 1.06 18.11 2.67 27 .37 2 1 4.28 2.78 5.29a7.16 7.16 0 004.52.4 93.67 93.67 0 0027.43-8.18A181 181 0 00191 151.17c-1.27-2.9-2.66-5.84-4.92-8.06-3.43-3.36-8.18-4.42-12.74-5.32-2.37-.47-4.78-.79-7.13-1.39-1.45-.37-5.57-2.79-6.77-2.56-4 .75 0 7.07 1 9.52a66 66 0 014.25 18.06z" transform="translate(-26.48 -16.99)" fill="url(#k)"/><path fill="#4fc3f7" d="M222.05 114.03l-95.31 9.03-2.43-11.14 95.32-9.04 2.42 11.15z"/><path fill="url(#l)" d="M222.05 114.03l-95.31 9.03-2.43-11.14 95.32-9.04 2.42 11.15z"/><path d="M211.77 107.5c7.36-.79 14.49 3.9 18.43 10.16s5 9.29 5.5 16.67c.16 2.4.36 5.06 2.13 6.69 2.95 2.71 7.56.6 11.42-.46 9.15-2.52 19.78 2.84 23.2 11.7 3.34 8.65-1.44 21.49 6.16 26.81 6.77 4.72 25-6.67 30.71-16.92 0 0 1.66 22.51-16.11 33.76-26.37 16.7-75.8 23.19-81 22.63-8.65-.95-18.09-3.95-22.23-11.6s-1.46-17.27-1.46-26.1c0-5.08-2.29-11.44-7.37-11.55-3.8-.09-6.55 3.53-8.32 6.89s-3.62 7.23-7.23 8.43c-3.22 1.07-6.88-.52-9.09-3.09s-3.22-6-3.9-9.29c-2.35-11.54-1.28-23.53-3.17-35.16-.72-4.42-2-8.95-5-12.26s-10.05-8.21-15.43-8z" fill="#4fc3f7"/><path d="M238.25 124.49c7.36-.79 14.49 3.9 18.43 10.16s5 9.29 5.5 16.67c.16 2.4.36 5.06 2.13 6.69 2.95 2.71 7.56.6 11.42-.46 9.15-2.52 19.78 2.84 23.2 11.7 2.78 7.2 1.12 15.28 3.81 22.49 1.56 4.2 4.07 4.7 8.44 4.39a24.31 24.31 0 0011.82-4.42c5.23-3.61 9.25-8.68 13.19-13.67-.93 6.15-.77 12.54-2.86 18.39-3.45 9.68-12.4 16.24-21.33 21.33A164 164 0 01263.21 236c-8 1.62-16.38.37-24.48-.51-8.65-1-18.09-4-22.23-11.6s-1.45-17.27-1.42-26.1c0-5.08-2.29-11.44-7.37-11.55-3.8-.09-6.55 3.53-8.32 6.89s-3.62 7.23-7.23 8.43c-3.22 1.07-6.88-.52-9.09-3.09s-3.22-6-3.9-9.29c-2.35-11.54-1.28-23.53-3.17-35.16-.72-4.42-2-9-5-12.26s-10.05-8.21-15.43-8z" transform="translate(-26.48 -16.99)" fill="url(#c)"/><path d="M269.32 159.24l-62.15 23.5s-3.43.83-7.78 10.43-19.86 13-20.65-17.64-2.41-28.7-6.3-35.06l89.56 8.86s-.59 12.16 7.32 9.91z" transform="translate(-26.48 -16.99)" fill="url(#b)"/><path d="M134.37 118.07c2.8 3.21 4.28 7.34 5.4 11.45 3.47 12.6 4.22 25.81 3.94 38.89-.1 4.65-.31 9.4 1 13.85a20.94 20.94 0 0013.68 13.81c3.75 1.16 7.88 1.27 11.25 3.28 6.67 4 7.51 13.37 12.56 19.28 6.79 7.94 20.37 8.69 25 18" fill="none"/><path fill="none" stroke="#473f47" stroke-linecap="round" stroke-linejoin="round" stroke-width="2" d="M165.55 121.84l46.96-5.01M170.92 136.88l46.96-5.01M173.18 146.91l46.97-5.01M205.77 125.67l9.12-.97M187.52 127.62l12.36-1.32M167.92 129.71l11.04-1.18M208.46 166.91l45.98-17.07M212.19 181.86l45.98-17.07M213.4 192.16l45.99-17.07M247.05 161.08l8.92-3.31M229.18 167.71l12.1-4.49M209.99 174.84l10.81-4.02"/><path d="M331.48 184.83s-43 38.38-72 34.29c0 0-23.83 26.91-33.17 11.16s6.69-25.89 6.69-25.89l69.69-12.65s4.62 15.55 28.79-6.91z" transform="translate(-26.48 -16.99)" opacity=".45" fill="url(#m)" style="isolation:isolate"/><path d="M93.95 231.36c.09 1.16 1.74 1.18 3.61 1s1.37.26 4 .29 3.53-.83 3.66-1.2-1.15-.61-2.5-.94l-.52-.13c-1.52-.39-2.53-1.53-3.83-2.52s-2.82-4.36-2.82-4.36l-3.59-.16s1.51 3.06 2.08 4.38a4.47 4.47 0 010 2.46 4.67 4.67 0 00-.09 1.18z" fill="#ffb27d"/><path d="M97.52 232.32c1.87-.22 1.37.26 4 .29s3.53-.83 3.66-1.2-1.15-.61-2.5-.94a7.41 7.41 0 01-3.85.69c-1.76-.18-3.55-.91-4.76-1a4.56 4.56 0 00-.13 1.22c.1 1.14 1.75 1.16 3.58.94z" fill="#473f47"/><path d="M70.1 230.18l.39.2a27.41 27.41 0 005 1.66 4.21 4.21 0 001.73.13 2.49 2.49 0 001-.44c.14-.11.28-.28.2-.43a.33.33 0 00-.12-.14c-.76-.61-1.71-.8-2.51-1.35s-1.44-1.18-2.18-1.74c-1.24-.95 0-6.54 0-6.54l-3.93-.38s.18 4.71.18 6.84c0 .64-.54 1.5 0 2a.88.88 0 00.24.19z" fill="#ffb27d"/><path d="M72.85 232.52a17.09 17.09 0 002.2.82 7.26 7.26 0 002.26.4 3.33 3.33 0 002.15-.71.69.69 0 00.3-.49.82.82 0 00-.19-.47 4.14 4.14 0 00-1.39-1.24c-.29-.14-.46 0-.74.15a5.76 5.76 0 01-1 .3 7.33 7.33 0 01-6.6-1.94s-.07-.09-.12-.1-.2.1-.22.22a1.38 1.38 0 00.2 1.1 2.47 2.47 0 00.69.64 14.56 14.56 0 002.46 1.32z" fill="#473f47"/><path d="M80.84 135.01a10.61 10.61 0 00.1-1.87 4 4 0 00-.48-1.85c-.21-.38-.79-.73-.94-1.08a8.64 8.64 0 00-5.55-4.48 9.81 9.81 0 00-5.16.69 3.26 3.26 0 00-1.18.58 2.94 2.94 0 00-.67 1.06 21.83 21.83 0 00-1 2.58 7.67 7.67 0 00-3-2.63 4.37 4.37 0 00-4.21.82 5.64 5.64 0 00-1.9 3.92 12 12 0 01-.22 2.87 3.16 3.16 0 01-2.54 2.1 5.12 5.12 0 005.18 2.19 20.09 20.09 0 01-1.2 2.3 5.67 5.67 0 003.85-.26 5.76 5.76 0 001.82-2.16l-.83 1.81c1.44-1.36 1.08-4 2.58-5.27.43.21.59.74.89 1.11s1 .5 1.16 0a6.76 6.76 0 001.12 3.19 4.36 4.36 0 003.76 1.7c.27 0 .61-.2.52-.44.65-.14 1-.84 1.58-1.19.75-.47 1.72-.24 2.6-.39a3.93 3.93 0 002.53-1.86 8.44 8.44 0 001.19-3.44z" fill="#fc682d"/><path d="M78.16 145.56a5.9 5.9 0 01-3.66.66 4.74 4.74 0 01-2.44-2.33c.63-.13.81-1 .8-4.71l.28.06 4.79.94s-.11 1.51-.11 2.93c-.01 1.19.07 2.32.34 2.45z" fill="#ffb27d"/><path d="M77.93 140.18s-.11 1.51-.11 2.93c-2.68-.08-4.1-2.52-4.68-3.87z" fill="#ed975d"/><path d="M97.4 225.36a1.19 1.19 0 01-.78 1.48.93.93 0 01-.29 0l-1.87.09-2 .06a1.55 1.55 0 01-1.28-.59 55.29 55.29 0 01-9.39-17.77c-.08-.26-.17-.53-.26-.8-2-5.67-6-12.8-8.11-19.25-.34-1-.64-2-.92-2.9-.08-.3-.17-.59-.25-.87a68.51 68.51 0 01-2.41-12.8l15.36.12a337.26 337.26 0 0012.2 53.23z" fill="#473f47"/><path d="M83.05 163.32c0 7.31 1.07 10.44 1.07 10.44a20.63 20.63 0 01-14.39.88l-6.47-1.48c.13-.3 1.29-5.22 1.42-5.49 1.65-3.55 2.9-5.1 3.1-6.19a23.23 23.23 0 00.19-6.12 49.1 49.1 0 00-1.9-9.61 50.4 50.4 0 006.34-2.17 5 5 0 003.42 1.27c1.56 0 2.06-.7 2-1.43 1.66.92 3 1.79 3 1.79 1.41 2.45 4.27 4.83 4.47 8.59.02.92-2.25 9.32-2.25 9.52z" fill="#fff"/><path d="M69.84 164.13c-.67.95-2 6.73-5.16 7.46 1.65-4.12 2.9-5.93 3.1-7.19a31.32 31.32 0 00.19-7.11c1.07-1.88 1.87-3.17 1.87-3.17.09-.3 1.7-5.31 2.22-.83a20.66 20.66 0 01-2.22 10.84z" fill="#4fc3f7"/><path d="M78.82 141.53s-6.33.1-6.34-3.84-.82-6.59 3.22-6.83 4.84 1.27 5.16 2.59-.34 7.95-2.04 8.08z" fill="#ffb27d"/><path d="M78.59 130.77s-1.74 4.63-4.4 5.31-3.81 0-3.81 0a7.54 7.54 0 002.46-4.45s4.44-3.07 5.75-.86z" fill="#fc682d"/><path d="M78.16 131.14a5.79 5.79 0 011.61 2c.32 1 .46 3.07 1.06 3 0 0 1.31-3.14-.16-4.92s-2.51-.08-2.51-.08z" fill="#fc682d"/><path fill="#ffb27d" d="M91.32 166.15l4.75 8.35-1.54 1-6.45-6.91 3.24-2.44z"/><path d="M78.7 144.52s3.73.67 5.17 2.6 5.86 16 6.76 17.33 1.59 2.43 1.59 2.43a7.37 7.37 0 01-3.17 2.28c-1.73.47-10.35-24.64-10.35-24.64z" fill="#4fc3f7"/><path d="M77.81 143.42s3.67 9.05 3.78 10.89.43 30 .43 30-.22 1.29 2.26.75a8.32 8.32 0 003.13-1.07s-2.37-17.36-1.73-23.39-5-15.88-5-15.88z" fill="#4fc3f7"/><path d="M120.94 244l-2.14.06a1.2 1.2 0 01-1-.45 55.45 55.45 0 01-9.5-17.91c-.08-.26-.17-.53-.26-.8-2-5.67-6-12.8-8.11-19.25-.34-1-.64-2-.92-2.9-.08-.3-.17-.59-.25-.87l2.26-1.71s6.79 11 8.89 21.34c1.83 8.95 9.14 19.77 11.03 22.49z" transform="translate(-26.48 -16.99)" fill="url(#n)"/><path d="M74.78 205.45c0 4.76-.19 15.37-.77 20.55a.93.93 0 01-.93.84h-3.12a.63.63 0 01-.6-.5c-1.59-8.11-2.73-14.84-3.56-20.66-.7-4.88-1.32-9-1.8-12.65s-.82-6.65-.94-9.21v-2.29l13.27-1.29c-.21 8.77-1.57 22.29-1.55 25.21z" fill="#473f47"/><path d="M98 243.83h-1.45a.76.76 0 01-.73-.6c-1.58-8.07-2.71-14.77-3.54-20.56-.7-4.88-1.32-9-1.8-12.65s-.82-6.65-.94-9.21l4.87 2.87s-3.1 1.09-1.92 9.39 3.81 29.58 5.51 30.76z" transform="translate(-26.48 -16.99)" fill="url(#o)"/><path d="M72.1 183.73s-.93 3.38-4.17 2.95a38.86 38.86 0 01-7.83-2.37s1.38-4.37 3.1-10.11c2.08-6.94 4.66-15.89 5.87-21.54a36 36 0 00.66-3.85l2.68-5.21s4 9 4.22 11.24-4.53 28.89-4.53 28.89z" fill="#4fc3f7"/><path d="M98.44 176.58c-.15 3.66-1 10.78-8.7 14.58h-.06c2.08-6.94 4.66-15.89 5.87-21.54 1.45 2.14 2.97 4.94 2.89 6.96z" transform="translate(-26.48 -16.99)" fill="url(#p)"/><path d="M72.41 143.6s-6.56.47-8.14 4-1.51 8.17-1.36 11.93c.09 2.28.15 4.65 1.22 6.72a30.19 30.19 0 005.25 6.5 2.73 2.73 0 001.15.83 2.39 2.39 0 001.49-.19 8.26 8.26 0 002.86-1.91c-.33-.29-.46-1-.71-1.43a17.06 17.06 0 01-1-1.89 42.18 42.18 0 00-2-3.83 23.17 23.17 0 01-2-3.17 4.24 4.24 0 01.07-3.6 32.92 32.92 0 001-4.26c.72-3.23 1.44-6.47 2.17-9.7z" fill="#4fc3f7"/><path d="M108.1 219.55c-1.38-.62-2.5.17-2.5 1.77a4.77 4.77 0 002.5 4c1.38.62 2.49-.17 2.49-1.77a4.76 4.76 0 00-2.49-4z" fill="#4fc3f7" fill-rule="evenodd"/><path d="M107.3 219.33a3.85 3.85 0 00-1.54.23c-.31.14 1.76 1.32 1.54-.23zM108.08 225.66a3.79 3.79 0 001.53-.22c.31-.14-1.78-1.32-1.53.22z" fill="#4fc3f7" fill-rule="evenodd"/><path d="M107.19 219.66c-1.38-.62-2.49.17-2.49 1.77a4.74 4.74 0 002.49 4c1.38.63 2.5-.16 2.5-1.76a4.79 4.79 0 00-2.5-4.01z" fill="#4fc3f7" fill-rule="evenodd"/><path d="M107.19 221.71c-.4-.19-.73.05-.73.52a1.39 1.39 0 00.73 1.18c.41.18.74-.05.74-.52a1.39 1.39 0 00-.74-1.18zM91.46 213.13l25.6 17.87-.33.69-25.6-17.88.33-.68z" fill="#4fc3f7" fill-rule="evenodd"/><path fill="#4fc3f7" fill-rule="evenodd" d="M94.7 212.16l25.6 17.87-.32.69-25.61-17.88.33-.68zM98.24 209.78l25.6 17.87-.33.67-25.6-17.86.33-.68zM101.89 208.88l25.6 17.87-.33.69-25.6-17.88.33-.68zM123.52 230.32c-1.38-.62-2.49.17-2.49 1.77a4.76 4.76 0 002.49 4c1.38.62 2.5-.17 2.5-1.77a4.77 4.77 0 00-2.5-4z"/><path d="M122.75 230.1a3.85 3.85 0 00-1.54.23c-.31.14 1.78 1.32 1.54-.23zM123.52 236.43a3.84 3.84 0 001.54-.22c.32-.14-1.77-1.32-1.54.22z" fill="#4fc3f7" fill-rule="evenodd"/><path d="M122.64 230.43c-1.37-.62-2.49.17-2.49 1.77a4.74 4.74 0 002.49 4c1.38.63 2.5-.16 2.5-1.76a4.79 4.79 0 00-2.5-4.01z" fill="#4fc3f7" fill-rule="evenodd"/><path d="M122.64 232.48c-.4-.19-.73.05-.73.52a1.39 1.39 0 00.73 1.18c.41.18.74 0 .74-.52a1.39 1.39 0 00-.74-1.18z" fill="#4fc3f7" fill-rule="evenodd"/><path d="M123.23 229.22a.73.73 0 00-.59-.69.48.48 0 00-.57.37.49.49 0 000 .12v4.2a.73.73 0 00.58.69.46.46 0 00.57-.33.39.39 0 000-.15zM107.78 218.46a.75.75 0 00-.59-.7.49.49 0 00-.58.38.41.41 0 000 .11v4.2a.73.73 0 00.59.69.46.46 0 00.57-.33.39.39 0 000-.15zM108.58 187.72l.82 23.71a.4.4 0 00.33.39.28.28 0 00.3-.26v-.05l-.81-23.71a.42.42 0 00-.33-.39.28.28 0 00-.31.25v.06zm20.52 14.5l-4 20.3a.41.41 0 00.25.45.26.26 0 00.35-.15.14.14 0 000-.06l4-20.29a.4.4 0 00-.2-.46.28.28 0 00-.36.13.19.19 0 000 .07zm-14.89-10.53l-1.48 22.15a.41.41 0 00.3.42.28.28 0 00.33-.21l1.48-22.16a.41.41 0 00-.3-.42.28.28 0 00-.33.21.13.13 0 000 .01zm9.54 6.74l-3.63 20.58a.42.42 0 00.26.44.27.27 0 00.35-.12.29.29 0 000-.09l3.62-20.56a.42.42 0 00-.25-.45.26.26 0 00-.35.15.19.19 0 000 .07zm-7.32 18a.41.41 0 00.28.43.26.26 0 00.33-.15.29.29 0 000-.09l2.68-21.23a.41.41 0 00-.2-.38.26.26 0 00-.34.16.24.24 0 000 .08z" fill="#4fc3f7" fill-rule="evenodd"/><path d="M103.99 185.01l31.79 22.62-6 17.31-24.26-17.21zm.69 23.62l25.16 17.91a.55.55 0 00.78-.06l.07-.11 6.48-18.63a.82.82 0 00-.31-.9l-33.34-23.66a.55.55 0 00-.78.06l-.07.11a.84.84 0 00-.07.35l1.71 24.31a.8.8 0 00.37.65z" fill="#4fc3f7" fill-rule="evenodd"/><path fill="#4fc3f7" fill-rule="evenodd" d="M110.19 211.9l-18.48 6.69-.33-.8 18.49-6.69.32.8zM113.53 214.38l-18.49 6.68-.32-.78 18.49-6.69.32.79zM117.02 216.69l-18.48 6.69-.33-.79 18.49-6.68.32.78zM121.33 219.75l-18.49 6.68-.32-.8 18.49-6.67.32.79zM125.77 223.1l-18.49 6.69-.32-.79 18.49-6.69.32.79zM87.67 214.01l-6.05-21.07 21.09-8.19 1.56 22.8zm17.9-5.89l-1.67-24.32a.8.8 0 00-.68-.75.58.58 0 00-.26.05l-22.4 8.7a.63.63 0 00-.32.78l6.45 22.43a.74.74 0 00.8.58h.11l17.63-6.85a.58.58 0 00.34-.62z"/><path d="M98.96 185.29l2.36 24.05a.4.4 0 00.35.37.28.28 0 00.28-.3l-2.35-24.05a.41.41 0 00-.35-.37.29.29 0 00-.29.29zm-4.55 1.78l3.5 23.62a.39.39 0 00.37.34.29.29 0 00.27-.31v-.05l-3.5-23.61a.39.39 0 00-.36-.34.3.3 0 00-.28.3v.05zm-8 3.13l4.27 23.31a.38.38 0 00.37.34.3.3 0 00.26-.34l-4.27-23.31a.39.39 0 00-.38-.33.28.28 0 00-.25.31.11.11 0 000 .02zm4.24-1.92a.39.39 0 01.37.34l3.9 23.46a.28.28 0 01-.21.35.39.39 0 01-.37-.34l-3.9-23.45a.29.29 0 01.2-.36zM104.97 217.12a.73.73 0 00.62.65.47.47 0 00.55-.38.66.66 0 000-.14l-2.89-42a.73.73 0 00-.63-.66.47.47 0 00-.54.39.33.33 0 000 .14z" fill="#4fc3f7" fill-rule="evenodd"/><path d="M103.18 176.16a.92.92 0 00.45-1.23.67.67 0 00-.06-.12 1.18 1.18 0 00-1.42-.64l-24.13 9.37a.93.93 0 00-.47 1.21.54.54 0 00.07.13 1.21 1.21 0 001.42.65z" fill="#4fc3f7" fill-rule="evenodd"/><path d="M95.6 174.34s3 .93 3.56 2 .82 3.46.39 3.52-1.58-2.33-2-2.43-1-.53-.91-.15.58 1 .42 1.17-.94-.84-1.37-1-.94-1.84-1.42-2.24 1.33-.87 1.33-.87zM74.88 170.82l4.75 8.34-1.53 1.03-6.46-6.93 3.24-2.44z" fill="#4fc3f7"/><path d="M79.17 179.01a3.88 3.88 0 01.72.26 5.07 5.07 0 011.42.65 6.86 6.86 0 011.77 2.36 1.7 1.7 0 01.13 1.46 1.92 1.92 0 01-.87.67.75.75 0 01-.3.09.79.79 0 01-.43-.21l-2.21-1.85a3.12 3.12 0 01-.82-.88c-.19-.34-.25-.74-.42-1.09s-.51-.55-.26-.89.9-.46 1.27-.57z" fill="#4fc3f7"/><path d="M88.86 222.81a.69.69 0 00.73.52.48.48 0 00.42-.53v-.12l-10.89-38.22a.71.71 0 00-.73-.52.5.5 0 00-.42.55v.11zM92.52 225.9c-1.38-.63-2.49.16-2.49 1.76a4.76 4.76 0 002.49 4c1.38.62 2.5-.17 2.5-1.77a4.74 4.74 0 00-2.5-3.99z" fill="#4fc3f7" fill-rule="evenodd"/><path d="M91.75 225.67a3.85 3.85 0 00-1.54.23c-.31.11 1.78 1.32 1.54-.23zM92.52 232.01a3.67 3.67 0 001.54-.22c.32-.15-1.77-1.33-1.54.22z" fill="#4fc3f7" fill-rule="evenodd"/><path d="M91.64 226.01c-1.37-.62-2.49.17-2.49 1.77a4.74 4.74 0 002.49 4c1.38.63 2.5-.16 2.5-1.76a4.79 4.79 0 00-2.5-4.01z" fill="#4fc3f7" fill-rule="evenodd"/><path d="M91.64 228.01c-.4-.19-.73.05-.73.52a1.39 1.39 0 00.73 1.18c.41.19.74 0 .74-.52a1.39 1.39 0 00-.74-1.18zM108 236.66c-1.37-.62-2.49.17-2.49 1.77a4.76 4.76 0 002.49 4c1.38.62 2.5-.17 2.5-1.77a4.77 4.77 0 00-2.5-4z" fill="#4fc3f7" fill-rule="evenodd"/><path d="M107.2 236.44a3.85 3.85 0 00-1.54.23c-.3.14 1.78 1.34 1.54-.23zM107.98 242.77a3.84 3.84 0 001.54-.22c.31-.14-1.78-1.32-1.54.22z" fill="#4fc3f7" fill-rule="evenodd"/><path d="M107.1 236.77c-1.38-.62-2.5.17-2.5 1.77a4.74 4.74 0 002.5 4c1.38.63 2.49-.16 2.49-1.76a4.76 4.76 0 00-2.49-4.01z" fill="#4fc3f7" fill-rule="evenodd"/><path d="M107.69 235.57a.75.75 0 00-.59-.7.48.48 0 00-.58.36.57.57 0 000 .13v4.2a.75.75 0 00.59.7.49.49 0 00.58-.38.41.41 0 000-.11z" fill="#4fc3f7" fill-rule="evenodd"/><path d="M126.57 232.83l-21.3-15.18-14.35 5.47 21.24 15.33 14.41-5.62zm-14.71 6.73l-22.43-16.18a.65.65 0 01-.23-.84.45.45 0 01.22-.19l15.56-5.93a.63.63 0 01.58.11l22.5 16a.65.65 0 01.23.84.43.43 0 01-.24.2l-15.6 6.08a.63.63 0 01-.59-.09z" fill="#4fc3f7" fill-rule="evenodd"/><path d="M92.23 224.8a.72.72 0 00-.59-.69.47.47 0 00-.57.35.57.57 0 000 .13v4.2a.74.74 0 00.58.7.48.48 0 00.58-.36.57.57 0 000-.13zM109.68 220.01l-.32-.79-16.23 5.87.32.79zm3.34 2.49l-16.23 5.87-.32-.79 16.23-5.87.32.79zm3.5 2.31l-16.23 5.87-.32-.79 16.22-5.88.32.79zm4.31 3l-16.23 5.87-.32-.79 16.24-5.81.32.79zm-11.79 9.23l-.32-.79 16.23-5.87.32.79z" fill="#4fc3f7" fill-rule="evenodd"/><path d="M150 247.31c-1.38-.62-2.49.17-2.49 1.77a4.76 4.76 0 002.49 4c1.38.62 2.5-.17 2.5-1.77a4.77 4.77 0 00-2.5-4z" transform="translate(-26.48 -16.99)" fill-rule="evenodd" fill="url(#q)"/><path d="M149.23 247.09a3.85 3.85 0 00-1.54.23c-.31.14 1.78 1.32 1.54-.23z" transform="translate(-26.48 -16.99)" fill-rule="evenodd" fill="url(#r)"/><path d="M150 253.42a3.84 3.84 0 001.54-.22c.32-.14-1.77-1.32-1.54.22z" transform="translate(-26.48 -16.99)" fill-rule="evenodd" fill="url(#s)"/><path d="M122.64 230.43c-1.37-.62-2.49.17-2.49 1.77a4.74 4.74 0 002.49 4c1.38.63 2.5-.16 2.5-1.76a4.79 4.79 0 00-2.5-4.01z" fill="#473f47" fill-rule="evenodd"/><path d="M149.12 249.47c-.4-.19-.73.05-.73.52a1.39 1.39 0 00.73 1.18c.41.18.74 0 .74-.52a1.39 1.39 0 00-.74-1.18z" transform="translate(-26.48 -16.99)" fill-rule="evenodd" fill="url(#t)"/><path d="M149.71 246.21a.73.73 0 00-.59-.69.48.48 0 00-.57.37.49.49 0 000 .12v4.2a.73.73 0 00.58.69.46.46 0 00.57-.33.39.39 0 000-.15z" transform="translate(-26.48 -16.99)" fill-rule="evenodd" fill="url(#u)"/><path d="M135.06 204.71l.82 23.71a.4.4 0 00.33.39.28.28 0 00.3-.26v-.05l-.81-23.71a.42.42 0 00-.33-.39.28.28 0 00-.31.25v.06zm20.52 14.5l-4 20.3a.41.41 0 00.25.45.26.26 0 00.35-.15.14.14 0 000-.06l4-20.29a.4.4 0 00-.2-.46.28.28 0 00-.36.13.19.19 0 000 .07zm-14.89-10.53l-1.48 22.15a.41.41 0 00.3.42.28.28 0 00.33-.21l1.48-22.16a.41.41 0 00-.3-.42.28.28 0 00-.33.21.13.13 0 000 .01zm9.54 6.74L146.6 236a.42.42 0 00.26.44.27.27 0 00.35-.12.29.29 0 000-.09l3.62-20.56a.42.42 0 00-.25-.45.26.26 0 00-.35.15.19.19 0 000 .07zm-7.32 18a.41.41 0 00.28.43.26.26 0 00.33-.15.29.29 0 000-.09l2.68-21.23a.41.41 0 00-.2-.38.26.26 0 00-.34.16.24.24 0 000 .08z" transform="translate(-26.48 -16.99)" fill-rule="evenodd" fill="url(#v)"/><path d="M130.47 202l31.79 22.62-6 17.31L132 224.72zm.69 23.62l25.16 17.91a.55.55 0 00.78-.06l.07-.11 6.48-18.63a.82.82 0 00-.31-.9L130 200.17a.55.55 0 00-.78.06l-.07.11a.84.84 0 00-.07.35l1.71 24.31a.8.8 0 00.37.65z" transform="translate(-26.48 -16.99)" fill-rule="evenodd" fill="url(#w)"/><path d="M114.15 231l-6.05-21.07 21.09-8.19 1.56 22.8zm17.9-5.89l-1.67-24.32a.8.8 0 00-.68-.75.58.58 0 00-.26.05l-22.4 8.7a.63.63 0 00-.32.78l6.45 22.43a.74.74 0 00.8.58h.11l17.63-6.85a.58.58 0 00.34-.62z" transform="translate(-26.48 -16.99)" fill-rule="evenodd" fill="url(#x)"/><path d="M125.44 202.28l2.36 24.05a.4.4 0 00.35.37.28.28 0 00.28-.3l-2.35-24.05a.41.41 0 00-.35-.37.29.29 0 00-.29.29zm-4.55 1.78l3.5 23.62a.39.39 0 00.37.34.29.29 0 00.27-.31v-.05l-3.5-23.61a.39.39 0 00-.36-.34.3.3 0 00-.28.3v.05zm-8 3.13l4.27 23.31a.38.38 0 00.37.34.3.3 0 00.26-.34l-4.27-23.31a.39.39 0 00-.38-.33.28.28 0 00-.25.31.11.11 0 000 .02zm4.24-1.92a.39.39 0 01.37.34l3.9 23.46a.28.28 0 01-.21.35.39.39 0 01-.37-.34l-3.9-23.45a.29.29 0 01.2-.36z" transform="translate(-26.48 -16.99)" fill-rule="evenodd" fill="url(#y)"/><path d="M131.45 234.11a.73.73 0 00.62.65.47.47 0 00.55-.38.66.66 0 000-.14l-2.89-42a.73.73 0 00-.63-.66.47.47 0 00-.54.39.33.33 0 000 .14z" transform="translate(-26.48 -16.99)" fill-rule="evenodd" fill="url(#z)"/><path d="M103.18 176.16a.92.92 0 00.45-1.23.67.67 0 00-.06-.12 1.18 1.18 0 00-1.42-.64l-24.13 9.37a.93.93 0 00-.47 1.21.54.54 0 00.07.13 1.21 1.21 0 001.42.65z" fill="#4fc3f7" fill-rule="evenodd"/><path d="M95.6 174.34s3 .93 3.56 2 .82 3.46.39 3.52-1.58-2.33-2-2.43-1-.53-.91-.15.58 1 .42 1.17-.94-.84-1.37-1-.94-1.84-1.42-2.24 1.33-.87 1.33-.87zM74.88 170.82l4.75 8.34-1.53 1.03-6.46-6.93 3.24-2.44z" fill="#ffb27d"/><path d="M79.17 179.01a3.88 3.88 0 01.72.26 5.07 5.07 0 011.42.65 6.86 6.86 0 011.77 2.36 1.7 1.7 0 01.13 1.46 1.92 1.92 0 01-.87.67.75.75 0 01-.3.09.79.79 0 01-.43-.21l-2.21-1.85a3.12 3.12 0 01-.82-.88c-.19-.34-.25-.74-.42-1.09s-.51-.55-.26-.89.9-.46 1.27-.57z" fill="#ffb27d"/><path d="M115.34 239.8a.69.69 0 00.73.52.48.48 0 00.42-.53v-.12l-10.89-38.22a.71.71 0 00-.73-.52.5.5 0 00-.42.55v.11z" transform="translate(-26.48 -16.99)" fill-rule="evenodd" fill="url(#A)"/><path d="M119 242.89c-1.38-.63-2.49.16-2.49 1.76a4.76 4.76 0 002.49 4c1.38.62 2.5-.17 2.5-1.77a4.74 4.74 0 00-2.5-3.99z" transform="translate(-26.48 -16.99)" fill-rule="evenodd" fill="url(#B)"/><path d="M118.23 242.66a3.85 3.85 0 00-1.54.23c-.31.11 1.78 1.32 1.54-.23z" transform="translate(-26.48 -16.99)" fill-rule="evenodd" fill="url(#C)"/><path d="M119 249a3.67 3.67 0 001.54-.22c.32-.15-1.77-1.33-1.54.22z" transform="translate(-26.48 -16.99)" fill-rule="evenodd" fill="url(#D)"/><path d="M91.64 226.01c-1.37-.62-2.49.17-2.49 1.77a4.74 4.74 0 002.49 4c1.38.63 2.5-.16 2.5-1.76a4.79 4.79 0 00-2.5-4.01z" fill="#473f47" fill-rule="evenodd"/><path d="M118.12 245c-.4-.19-.73.05-.73.52a1.39 1.39 0 00.73 1.18c.41.19.74 0 .74-.52a1.39 1.39 0 00-.74-1.18z" transform="translate(-26.48 -16.99)" fill-rule="evenodd" fill="url(#E)"/><path d="M134.48 253.65c-1.37-.62-2.49.17-2.49 1.77a4.76 4.76 0 002.49 4c1.38.62 2.5-.17 2.5-1.77a4.77 4.77 0 00-2.5-4z" transform="translate(-26.48 -16.99)" fill-rule="evenodd" fill="url(#F)"/><path d="M133.68 253.43a3.85 3.85 0 00-1.54.23c-.3.14 1.78 1.34 1.54-.23z" transform="translate(-26.48 -16.99)" fill-rule="evenodd" fill="url(#G)"/><path d="M134.46 259.76a3.84 3.84 0 001.54-.22c.31-.14-1.78-1.32-1.54.22z" transform="translate(-26.48 -16.99)" fill-rule="evenodd" fill="url(#H)"/><path d="M107.1 236.77c-1.38-.62-2.5.17-2.5 1.77a4.74 4.74 0 002.5 4c1.38.63 2.49-.16 2.49-1.76a4.76 4.76 0 00-2.49-4.01z" fill="#473f47" fill-rule="evenodd"/><path d="M107.69 235.57a.75.75 0 00-.59-.7.48.48 0 00-.58.36.57.57 0 000 .13v4.2a.75.75 0 00.59.7.49.49 0 00.58-.38.41.41 0 000-.11zM92.23 224.8a.72.72 0 00-.59-.69.47.47 0 00-.57.35.57.57 0 000 .13v4.2a.74.74 0 00.58.7.48.48 0 00.58-.36.57.57 0 000-.13z" fill="#fff" fill-rule="evenodd"/><path d="M136.16 237l-.32-.79-16.23 5.87.32.79zm3.34 2.49l-16.23 5.87-.32-.79 16.23-5.87.32.79zm3.5 2.31l-16.23 5.87-.32-.79 16.22-5.88.32.79zm4.31 3l-16.23 5.87-.32-.79 16.24-5.81.32.79zm-11.79 9.23l-.32-.79 16.23-5.87.32.79z" transform="translate(-26.48 -16.99)" fill-rule="evenodd" fill="url(#I)"/><path d="M113.23 231.78l1.51-15.08 20.7-8-5.83 16.76-16.38 6.36zm17.5-5.49l6.44-18.52a.83.83 0 00-.39-.95.67.67 0 00-.5-.05l-22.42 8.71a.59.59 0 00-.35.49l-1.67 16.71a.83.83 0 00.57.85.53.53 0 00.35 0l17.65-6.86a.56.56 0 00.32-.38z" fill="#fff" fill-rule="evenodd"/><path d="M130.87 209.41l-3.95 17.6a.41.41 0 00.24.46.28.28 0 00.36-.13.19.19 0 000-.07l4-17.61a.42.42 0 00-.24-.45.28.28 0 00-.36.13.19.19 0 000 .07zm-4.56 1.78a.28.28 0 01.3-.24h.07a.42.42 0 01.26.44l-2.8 17.14a.27.27 0 01-.29.25h-.08a.42.42 0 01-.26-.45zm-8 3.14l-2 16.84a.41.41 0 00.28.43.28.28 0 00.34-.18.17.17 0 000-.07l2-16.84a.41.41 0 00-.28-.43.28.28 0 00-.34.18.17.17 0 000 .07zm1.59 15.42a.42.42 0 00.27.44.26.26 0 00.35-.18l2.4-17a.41.41 0 00-.27-.44.29.29 0 00-.35.19.43.43 0 000 .05z" fill="#fff" fill-rule="evenodd"/><path d="M64.52 130.93a3.44 3.44 0 00-.38.93 4.42 4.42 0 000 3.46 4.74 4.74 0 00.69 1.22 2.07 2.07 0 001.18.73.38.38 0 00.15 0 .22.22 0 00.1-.09 1.3 1.3 0 000-.95 7.93 7.93 0 01.26-3.59 4.58 4.58 0 00.23-1.32 1.06 1.06 0 00-.79-1.09 1.41 1.41 0 00-1.44.7z" fill="#4fc3f7"/><path fill="#fff" fill-rule="evenodd" d="M80.56 191.79l33.96 23.87-.53 1.68-33.12-23.77-.31-1.78z"/><path fill="#fff" fill-rule="evenodd" d="M88.61 198.88l3.16 19.08.66.2-2.59-18.56-1.23-.72zM94.76 203.18l1.72 18.35.66.22-1.15-17.84-1.23-.73zM100.79 207.19l.2 17.47.66.22.37-16.94-1.23-.75zM105.29 211.01l.84 17.77.66.22-.27-17.25-1.23-.74z"/><path fill="#fff" fill-rule="evenodd" d="M112.26 231.78L87.66 214l-.17 1.62 24.92 17.91-.15-1.75z"/><path d="M45.13 88.95v16.93a5.9 5.9 0 005.8 6h13l5.85 8.47v-8.47h11a5.9 5.9 0 005.82-6v-17a5.92 5.92 0 00-5.82-6H50.94a5.91 5.91 0 00-5.81 6.07z" fill="#fff"/><path d="M63.52 109.7l.11-2.88a7.62 7.62 0 01-4.11-1.44l.72-1.86a7.16 7.16 0 003.88 1.38c2 .07 3.31-1 3.37-2.64s-1-2.56-3-3.5c-2.75-1.24-4.43-2.62-4.33-5.07a4.56 4.56 0 014.36-4.38l.1-2.88 1.7.07-.1 2.74a7.26 7.26 0 013.52 1.14L69 92.25a6.47 6.47 0 00-3.48-1.11c-2.11-.09-3 1.18-3 2.31-.06 1.47.93 2.24 3.25 3.36 2.79 1.3 4.15 2.83 4 5.34a4.85 4.85 0 01-4.51 4.63l-.11 2.94z" fill="#4fc3f7"/></svg>