<svg width="340" height="119" viewBox="0 0 340 119" fill="none" xmlns="http://www.w3.org/2000/svg">
<path d="M37.375 81.7917C37.375 84.0156 37.7344 85.6406 38.4583 86.6667C39.1771 87.6823 40.5677 88.1875 42.625 88.1875H45.3125C46.9375 88.1875 48.1094 88.5521 48.8333 89.2708C49.5521 89.9948 49.9167 91.1667 49.9167 92.7917V108.021C49.9167 109.646 49.5521 110.818 48.8333 111.542C48.1094 112.276 46.9375 112.646 45.3125 112.646H39.6875C27.6458 112.646 19.3802 110.208 14.8958 105.333C10.4219 100.474 8.1875 94.2031 8.1875 86.5208V69.875C5.44792 69.0313 3.40104 67.7292 2.04167 65.9792C0.677084 64.2292 0 61.8229 0 58.75V54.2708C0 51.2031 0.677084 48.8125 2.04167 47.1042C3.40104 45.3958 5.44792 44.1146 8.1875 43.25V26.2292C8.1875 18.4688 10.4219 12.1562 14.8958 7.29167C19.3802 2.43229 27.6458 0 39.6875 0H45.3125C46.9375 0 48.1094 0.364583 48.8333 1.08333C49.5521 1.80729 49.9167 2.97917 49.9167 4.60417V20.0833C49.9167 21.7083 49.5521 22.8906 48.8333 23.625C48.1094 24.349 46.9375 24.7083 45.3125 24.7083H42.625C40.5677 24.7083 39.1771 25.224 38.4583 26.25C37.7344 27.2656 37.375 28.8854 37.375 31.1042V46.0833C37.375 48.6406 36.9635 50.5156 36.1458 51.7083C35.3385 52.9063 33.8229 53.6771 31.6042 54.0208L27.3958 54.7708C26.7969 54.8698 26.3646 55.0417 26.1042 55.2917C25.8542 55.5417 25.7292 55.9688 25.7292 56.5625C25.7292 57.1615 25.8542 57.5938 26.1042 57.8542C26.3646 58.1042 26.7969 58.2708 27.3958 58.3542L31.6042 59.125C33.8229 59.474 35.3385 60.2448 36.1458 61.4375C36.9635 62.6354 37.375 64.5104 37.375 67.0625V81.7917Z" fill="white"/>
<path d="M140.019 102.396H119.29C117.665 102.396 116.488 102.036 115.769 101.312C115.045 100.594 114.686 99.4167 114.686 97.7917V81.3958L95.1025 55.1667C93.1441 52.5156 91.8369 50.2083 91.1858 48.25C90.5452 46.2917 90.2275 43.3489 90.2275 39.4167V14.8542C90.2275 13.2292 90.5869 12.0573 91.3108 11.3333C92.0452 10.5989 93.2275 10.2292 94.8525 10.2292H114.561C116.186 10.2292 117.358 10.5989 118.082 11.3333C118.8 12.0573 119.165 13.2292 119.165 14.8542V35.8333C119.165 36.6979 119.207 37.5989 119.29 38.5417C119.373 39.4739 119.712 40.3646 120.311 41.2083L126.207 50.4375C126.634 51.2031 127.082 51.7604 127.54 52.1042C128.009 52.4375 128.587 52.6042 129.269 52.6042H130.561C131.238 52.6042 131.816 52.4375 132.29 52.1042C132.759 51.7604 133.207 51.2031 133.623 50.4375L139.519 41.2083C140.113 40.3646 140.457 39.4739 140.54 38.5417C140.623 37.5989 140.665 36.6979 140.665 35.8333V14.8542C140.665 13.2292 141.024 12.0573 141.748 11.3333C142.483 10.5989 143.655 10.2292 145.269 10.2292H164.352C165.977 10.2292 167.149 10.5989 167.873 11.3333C168.592 12.0573 168.957 13.2292 168.957 14.8542V39.4167C168.957 43.3489 168.613 46.2917 167.936 48.25C167.254 50.2083 165.977 52.5156 164.102 55.1667L144.644 81.5417V97.7917C144.644 99.4167 144.274 100.594 143.54 101.312C142.816 102.036 141.644 102.396 140.019 102.396Z" fill="white"/>
<path d="M230.405 114.687C229.973 116.047 229.285 117.026 228.343 117.625C227.41 118.219 226.134 118.521 224.509 118.521H208.384C206.244 118.521 204.915 118.047 204.405 117.104C203.905 116.172 203.952 114.937 204.551 113.396L208.634 102.271C199.676 101.677 193.014 99.2448 188.655 94.9792C184.306 90.7031 182.134 84.474 182.134 76.2917V36.4792C182.134 27.6042 184.718 21.0156 189.884 16.7083C195.051 12.3906 202.968 10.2292 213.634 10.2292H244.863C246.488 10.2292 247.66 10.5989 248.384 11.3333C249.103 12.0573 249.468 13.2292 249.468 14.8542V30.3333C249.468 31.9583 249.103 33.1354 248.384 33.8542C247.66 34.5781 246.488 34.9375 244.863 34.9375H219.134C216.494 34.9375 214.53 35.4739 213.238 36.5417C211.957 37.6146 211.322 39.2083 211.322 41.3333V71.8125C211.322 73.9375 211.957 75.4948 213.238 76.4792C214.53 77.4531 216.494 77.9375 219.134 77.9375H244.863C246.488 77.9375 247.66 78.3073 248.384 79.0417C249.103 79.7656 249.468 80.9375 249.468 82.5625V97.7917C249.468 99.4167 249.103 100.594 248.384 101.312C247.66 102.036 246.488 102.396 244.863 102.396H234.759L230.405 114.687Z" fill="white"/>
<path d="M302.214 81.7917V67.0625C302.214 64.5104 302.615 62.6354 303.422 61.4375C304.224 60.2448 305.74 59.474 307.964 59.125L312.193 58.3542C312.787 58.2708 313.214 58.1042 313.464 57.8542C313.724 57.5938 313.86 57.1615 313.86 56.5625C313.86 55.9688 313.724 55.5417 313.464 55.2917C313.214 55.0417 312.787 54.8698 312.193 54.7708L307.964 54.0208C305.74 53.6771 304.224 52.9063 303.422 51.7083C302.615 50.5156 302.214 48.6406 302.214 46.0833V31.1042C302.214 28.8854 301.844 27.2656 301.11 26.25C300.386 25.224 299.006 24.7083 296.964 24.7083H294.277C292.652 24.7083 291.469 24.349 290.735 23.625C290.011 22.8906 289.652 21.7083 289.652 20.0833V4.60417C289.652 2.97917 290.011 1.80729 290.735 1.08333C291.469 0.364583 292.652 0 294.277 0H299.902C311.928 0 320.178 2.43229 324.652 7.29167C329.136 12.1562 331.381 18.4688 331.381 26.2292V43.25C334.115 44.1146 336.162 45.3958 337.527 47.1042C338.902 48.8125 339.589 51.2031 339.589 54.2708V58.75C339.589 61.8229 338.902 64.2292 337.527 65.9792C336.162 67.7292 334.115 69.0313 331.381 69.875V86.5208C331.381 94.2031 329.136 100.474 324.652 105.333C320.178 110.208 311.928 112.646 299.902 112.646H294.277C292.652 112.646 291.469 112.276 290.735 111.542C290.011 110.818 289.652 109.646 289.652 108.021V92.7917C289.652 91.1667 290.011 89.9948 290.735 89.2708C291.469 88.5521 292.652 88.1875 294.277 88.1875H296.964C299.006 88.1875 300.386 87.6823 301.11 86.6667C301.844 85.6406 302.214 84.0156 302.214 81.7917Z" fill="white"/>
</svg>
