<svg viewBox="0 0 166 131" fill="none" xmlns="http://www.w3.org/2000/svg">
<g clip-path="url(#clip0_2_2)">
<path opacity="0.18" d="M24.16 9.04999C16.27 13.51 9.28 19.92 5.29 28.05C1.3 36.18 0.620003 45.22 0.200003 54.14C-0.219997 64.14 -0.169997 74.14 2.28 83.84C4.55 92.77 8.82 101.07 13.61 108.94C17.13 114.72 21.1 120.48 26.78 124.17C30.9458 126.681 35.5508 128.378 40.35 129.17C56.5591 132.307 73.3505 130.008 88.12 122.63C99.12 117.11 108.68 108.88 120.29 104.97C130.48 101.54 141.92 101.53 151.1 95.97C162.54 88.97 167.78 74.03 164.98 60.92C162.18 47.81 152.33 36.92 140.39 30.8C133.62 27.34 126.3 25.34 119.48 22.11C112.66 18.88 106.43 14.46 99.78 10.87C76.02 -1.98001 48.1 -4.49001 24.16 9.04999Z" fill="#175D2D"/>
<path d="M105.62 45.34L106.95 45.9C107.436 46.0325 107.853 46.3431 108.12 46.77C108.259 47.2206 108.234 47.7059 108.05 48.14C107.87 48.73 107.66 49.32 107.43 49.9C107.13 50.67 106.78 51.43 106.55 52.22C106.1 54.2184 106.018 56.2823 106.31 58.31C106.31 58.97 105.47 59.31 104.82 59.4C103.594 59.6578 102.323 59.5923 101.13 59.21C101.02 59.1791 100.917 59.1245 100.83 59.05C100.722 58.911 100.671 58.7353 100.69 58.56C100.62 57.47 100.62 56.34 100.47 55.34C100.41 54.7943 100.3 54.2553 100.14 53.73C100.027 53.2148 99.9399 52.6941 99.88 52.17C99.79 51.75 99.66 51.34 99.59 50.92C99.5036 50.4964 99.5347 50.0572 99.68 49.65C99.86 49.21 100.11 48.8 100.33 48.38C100.565 47.9231 100.772 47.4522 100.95 46.97C101.046 46.6182 101.191 46.2815 101.38 45.97C101.619 45.6861 101.918 45.4584 102.255 45.3028C102.592 45.1473 102.959 45.0678 103.33 45.07C104.104 44.9931 104.885 45.0852 105.62 45.34Z" fill="#FFBBAB"/>
<path d="M97.43 40.17C97.0511 39.6943 96.7444 39.1652 96.52 38.6C96.2684 37.8769 96.1138 37.1237 96.06 36.36C96.0193 36.0856 96.0397 35.8055 96.12 35.54C96.25 35.18 96.57 34.91 96.67 34.54C96.6846 34.5013 96.6846 34.4587 96.67 34.42C96.67 34.42 96.62 34.34 96.54 34.34L96.12 34.23C96.1904 33.8883 96.1335 33.5326 95.96 33.23C95.9092 33.1198 95.8271 33.027 95.724 32.963C95.6209 32.899 95.5013 32.8666 95.38 32.87C95.12 32.87 94.99 33.2 94.77 33.35C94.55 33.5 94.31 33.52 94.12 33.67C93.918 33.8878 93.804 34.1729 93.8 34.47C93.7863 35.1896 93.8945 35.9064 94.12 36.59C94.2637 37.388 94.4574 38.1763 94.7 38.95C95.4692 41.3359 96.6991 43.5477 98.32 45.46C98.94 46.19 101.32 49.07 102.26 48.33C103.59 47.33 102.72 45.68 101.8 44.89C100.156 43.5008 98.6887 41.9157 97.43 40.17Z" fill="#FFBBAB"/>
<path d="M103.02 44.86C102.57 45.55 102.13 46.26 101.72 46.98C101.642 47.0869 101.586 47.2082 101.555 47.3369C101.524 47.4657 101.519 47.5993 101.54 47.73C101.615 47.8998 101.75 48.0354 101.92 48.11C102.269 48.266 102.652 48.3314 103.033 48.2999C103.414 48.2684 103.781 48.1412 104.1 47.93C104.728 47.4878 105.285 46.9515 105.75 46.34C106.001 46.0018 106.313 45.7135 106.67 45.49C106.851 45.3816 107.059 45.3244 107.27 45.3244C107.481 45.3244 107.689 45.3816 107.87 45.49C107.957 45.5456 108.031 45.6191 108.088 45.7056C108.145 45.7921 108.182 45.8896 108.198 45.9917C108.214 46.0938 108.208 46.1981 108.181 46.2978C108.154 46.3975 108.106 46.4903 108.04 46.57C108.04 46.25 107.65 46.05 107.34 46.13C107.039 46.2537 106.789 46.4758 106.63 46.76C106.389 47.1033 106.169 47.4606 105.97 47.83C105.81 48.1006 105.692 48.394 105.62 48.7C105.6 49.0792 105.655 49.4587 105.784 49.816C105.913 50.1732 106.112 50.501 106.37 50.78C106.556 51.0013 106.704 51.2512 106.81 51.52C106.886 51.9515 106.852 52.3954 106.71 52.81C106.345 54.5721 106.254 56.3801 106.44 58.17C106.487 58.3414 106.492 58.5214 106.456 58.6953C106.419 58.8692 106.342 59.0319 106.23 59.17C106.037 59.321 105.795 59.3957 105.55 59.38C104.4 59.38 103.26 59.12 102.1 59.15C101.389 59.2265 100.675 59.2632 99.96 59.26C99.9077 59.2663 99.8547 59.2593 99.8059 59.2394C99.7571 59.2196 99.7142 59.1876 99.6812 59.1466C99.6481 59.1056 99.6261 59.0568 99.6172 59.0049C99.6082 58.953 99.6126 58.8997 99.63 58.85C99.9501 56.8659 100.001 54.8476 99.78 52.85C99.5395 51.944 99.3921 51.0159 99.34 50.08C99.3308 49.8742 99.3684 49.6691 99.45 49.48C99.5423 49.2975 99.6602 49.1292 99.8 48.98C100.551 48.0736 101.091 47.0112 101.38 45.87" fill="white"/>
<path opacity="0.1" d="M105.93 54.11C105.937 54.2769 105.906 54.4432 105.838 54.5959C105.771 54.7486 105.669 54.8835 105.54 54.99C105.457 55.0273 105.377 55.0708 105.3 55.12C105.15 55.26 105.17 55.5 105.14 55.7C105.012 56.0672 104.815 56.4066 104.56 56.7C104.439 56.856 104.374 57.0477 104.374 57.245C104.374 57.4423 104.439 57.634 104.56 57.79C104.74 57.97 105.04 58 105.19 58.21C105.34 58.42 105.19 59.1 105.5 59.31C105.601 59.3528 105.714 59.3582 105.818 59.3252C105.923 59.2922 106.012 59.223 106.07 59.13C106.177 58.9407 106.236 58.7276 106.24 58.51C106.473 56.2633 106.687 54.0067 106.88 51.74C106.907 51.6213 106.903 51.4979 106.87 51.3809C106.837 51.2639 106.775 51.157 106.69 51.07C106.54 50.86 106.34 50.46 106.12 50.35C105.87 50.72 106.06 51.52 106.06 51.95C106.02 52.68 105.99 53.4 105.93 54.11Z" fill="#020202"/>
<path d="M100.45 40.96C100.319 41.129 100.233 41.3286 100.2 41.54C100.225 41.6892 100.279 41.832 100.36 41.96C100.504 42.2752 100.589 42.6142 100.61 42.96C100.601 43.2198 100.667 43.4766 100.8 43.7C100.917 43.8108 101.055 43.8957 101.207 43.9492C101.358 44.0026 101.52 44.0233 101.68 44.01H102.42C102.508 43.9852 102.602 43.9852 102.69 44.01C102.772 44.052 102.838 44.1184 102.88 44.2C103.11 44.7401 103.248 45.3145 103.29 45.9C103.311 45.9993 103.355 46.092 103.42 46.17C103.471 46.2428 103.54 46.3014 103.62 46.34C104.141 46.5451 104.719 46.5451 105.24 46.34C105.374 46.2995 105.49 46.2149 105.57 46.1C105.621 45.9543 105.621 45.7957 105.57 45.65C105.513 45.2474 105.426 44.8496 105.31 44.46C105.101 43.9487 104.993 43.4022 104.99 42.85C104.99 42.36 105.26 41.91 105.34 41.43C105.398 40.9232 105.293 40.411 105.039 39.9683C104.786 39.5257 104.397 39.1759 103.93 38.97C103.533 38.8131 103.105 38.7478 102.679 38.779C102.254 38.8102 101.84 38.937 101.47 39.15C101.2 39.29 100.98 39.36 100.85 39.65C100.72 39.94 100.69 40.55 100.45 40.96Z" fill="#FFBBAB"/>
<path d="M100.52 37.98C100.476 37.7964 100.453 37.6087 100.45 37.42C100.45 36.78 100.82 36.05 101.45 36.03C101.9 36.03 102.3 36.37 102.76 36.37C102.949 36.3444 103.137 36.3043 103.32 36.25C103.8 36.14 104.3 36.14 104.78 36.25C105.818 36.4336 106.744 37.0148 107.36 37.87C107.667 38.3061 107.84 38.8222 107.857 39.3551C107.875 39.888 107.737 40.4144 107.46 40.87C107.13 41.37 106.62 41.73 106.27 42.22C106.102 42.5259 105.919 42.823 105.72 43.11C105.54 43.32 105.12 43.66 104.82 43.51C104.52 43.36 104.5 42.87 104.29 42.66C104.496 42.4974 104.693 42.3238 104.88 42.14C104.971 42.0468 105.034 41.93 105.063 41.8028C105.091 41.6756 105.083 41.543 105.04 41.42C104.92 41.18 104.51 41.13 104.41 41.42C104.441 41.0832 104.394 40.7439 104.273 40.4282C104.151 40.1126 103.959 39.8292 103.71 39.6C103.638 39.5108 103.55 39.4361 103.45 39.38C103.341 39.3599 103.229 39.3599 103.12 39.38H102.2C101.67 39.38 101.41 39.53 101.03 39.08C100.769 38.7626 100.594 38.384 100.52 37.98Z" fill="#FC682D"/>
<path d="M103.52 44.11C103.603 44.1026 103.685 44.1277 103.75 44.18C103.803 44.2485 103.832 44.3332 103.83 44.42C103.87 44.8624 103.87 45.3076 103.83 45.75C103.819 45.8675 103.789 45.9824 103.74 46.09C103.711 46.1423 103.669 46.1863 103.618 46.2178C103.568 46.2493 103.51 46.2673 103.45 46.27C103.32 46.27 103.21 46.16 103.07 46.13C102.997 46.1142 102.921 46.115 102.849 46.1323C102.776 46.1497 102.708 46.183 102.65 46.23C102.537 46.3277 102.436 46.4384 102.35 46.56C102.128 46.8394 101.884 47.1003 101.62 47.34C101.798 46.7326 102.068 46.156 102.42 45.63C102.5 45.4782 102.626 45.3556 102.78 45.28C102.9 45.28 103.05 45.28 103.13 45.15C103.21 45.02 103.13 44.77 103.04 44.6C102.95 44.43 102.72 44.19 102.86 44.07C103 43.95 103.4 44.1 103.52 44.11Z" fill="#E0A194"/>
<path d="M113.16 41.75C113.555 41.3803 113.922 40.9826 114.26 40.56C115.226 39.3535 115.754 37.8554 115.76 36.31C115.725 36.1418 115.725 35.9682 115.76 35.8C115.781 35.7182 115.825 35.6443 115.887 35.5874C115.949 35.5305 116.027 35.4931 116.11 35.48C116.183 35.49 116.257 35.49 116.33 35.48C116.44 35.48 116.49 35.33 116.58 35.25C116.655 35.2029 116.742 35.178 116.83 35.178C116.918 35.178 117.005 35.2029 117.08 35.25C117.233 35.3466 117.366 35.4723 117.47 35.62C117.63 35.84 117.79 36.07 117.93 36.3C118.057 36.4762 118.133 36.6837 118.15 36.9C118.108 37.2488 117.932 37.5678 117.66 37.79C117.35 37.79 117.11 38.62 117.03 38.79C116.87 39.24 116.69 39.69 116.49 40.12C115.298 42.7198 113.534 45.0169 111.33 46.84C110.59 47.45 107.79 49.84 106.95 48.99C105.8 47.77 106.95 46.3 107.95 45.67C109.844 44.5871 111.595 43.2701 113.16 41.75Z" fill="#FFBBAB"/>
<path d="M101.07 42C101.253 41.985 101.437 41.985 101.62 42C101.631 41.9947 101.643 41.9919 101.655 41.9919C101.667 41.9919 101.679 41.9947 101.69 42C101.79 42.2814 101.79 42.5886 101.69 42.87C101.652 42.9781 101.586 43.0745 101.5 43.15C101.453 43.1814 101.397 43.1981 101.34 43.1981C101.283 43.1981 101.227 43.1814 101.18 43.15C101.105 43.0871 101.049 43.0037 101.02 42.91C100.88 42.6282 100.821 42.3132 100.85 42C100.962 41.975 101.078 41.975 101.19 42" fill="white"/>
<path d="M99.89 42.68H99.8C99.8056 42.6736 99.8126 42.6685 99.8203 42.665C99.8281 42.6615 99.8365 42.6597 99.845 42.6597C99.8535 42.6597 99.8619 42.6615 99.8697 42.665C99.8774 42.6685 99.8844 42.6736 99.89 42.68Z" fill="#175D2D"/>
<path d="M116.55 40.23C116.518 40.7706 116.364 41.2971 116.1 41.77C114.502 45.123 111.772 47.804 108.39 49.34C108.196 49.4028 108.021 49.5127 107.88 49.66C107.778 49.8005 107.707 49.9606 107.67 50.13C106.9 53.13 107.07 56.19 106.52 59.19C106.502 59.4583 106.392 59.7123 106.21 59.91C105.946 60.0969 105.619 60.1724 105.3 60.12H104.65C103.106 60.0364 101.567 59.8729 100.04 59.63C99.7715 59.6163 99.5181 59.5021 99.33 59.31C99.2008 59.0715 99.1651 58.7934 99.23 58.53C99.3019 56.47 99.2183 54.4075 98.98 52.36C98.895 51.3618 98.895 50.3582 98.98 49.36C99.1053 48.8611 99.1053 48.3389 98.98 47.84C98.9226 47.6943 98.8415 47.5592 98.74 47.44C98.3032 47.0235 97.8424 46.6328 97.36 46.27C96.6963 45.5163 96.2231 44.6144 95.98 43.64C95.52 42.26 95.04 40.89 94.6 39.51C94.27 38.51 94.79 38.04 95.54 37.66C95.81 37.52 96.11 37.39 96.42 37.25C96.6854 38.3187 97.0677 39.355 97.56 40.34C98.0465 41.3129 98.8314 42.1048 99.8 42.6C99.7841 42.6 99.7688 42.6063 99.7576 42.6176C99.7463 42.6288 99.74 42.6441 99.74 42.66C99.74 42.6974 99.749 42.7343 99.7665 42.7674C99.7839 42.8005 99.8091 42.8289 99.84 42.85C100.51 43.47 101.19 44.08 101.84 44.71C101.965 44.8404 102.119 44.9397 102.29 45C102.49 45 103.18 44.82 103.15 45.19C103.155 45.2097 103.155 45.2303 103.15 45.25C103.15 45.38 103.03 45.48 103.01 45.61C103.006 45.689 103.026 45.7672 103.067 45.8349C103.108 45.9025 103.168 45.9565 103.24 45.99C103.382 46.0612 103.542 46.0891 103.7 46.07C103.875 46.0595 104.047 46.0224 104.21 45.96C104.48 45.85 104.7 45.66 104.96 45.53C105.357 45.3816 105.789 45.3571 106.2 45.46C106.648 45.4937 107.099 45.4668 107.54 45.38C108.816 45.0825 109.996 44.4667 110.97 43.59C112.331 42.2703 113.595 40.8532 114.75 39.35C114.879 39.1769 115.047 39.0365 115.24 38.94C115.403 38.886 115.579 38.88 115.745 38.9225C115.912 38.965 116.063 39.0544 116.18 39.18C116.313 39.3183 116.415 39.4836 116.479 39.6648C116.543 39.8459 116.567 40.0387 116.55 40.23Z" fill="white"/>
<path d="M116.55 40.23C116.518 40.7706 116.364 41.2971 116.1 41.77C114.502 45.123 111.772 47.804 108.39 49.34C108.196 49.4028 108.021 49.5127 107.88 49.66C107.778 49.8005 107.707 49.9606 107.67 50.13C106.9 53.13 107.07 56.19 106.52 59.19C106.502 59.4583 106.392 59.7123 106.21 59.91C105.946 60.0969 105.619 60.1724 105.3 60.12H104.65C103.106 60.0364 101.567 59.8729 100.04 59.63C99.7715 59.6163 99.5181 59.5021 99.33 59.31C99.2008 59.0715 99.1651 58.7934 99.23 58.53C99.3019 56.47 99.2183 54.4075 98.98 52.36C98.895 51.3618 98.895 50.3582 98.98 49.36C99.1053 48.8611 99.1053 48.3389 98.98 47.84C98.9226 47.6943 98.8415 47.5592 98.74 47.44C98.3032 47.0235 97.8424 46.6328 97.36 46.27C96.6963 45.5163 96.2231 44.6144 95.98 43.64C95.52 42.26 95.04 40.89 94.6 39.51C94.27 38.51 94.79 38.04 95.54 37.66C95.81 37.52 96.11 37.39 96.42 37.25C96.6854 38.3187 97.0677 39.355 97.56 40.34C98.0465 41.3129 98.8314 42.1048 99.8 42.6C99.7841 42.6 99.7688 42.6063 99.7576 42.6176C99.7463 42.6288 99.74 42.6441 99.74 42.66C99.74 42.6974 99.749 42.7343 99.7665 42.7674C99.7839 42.8005 99.8091 42.8289 99.84 42.85C100.51 43.47 101.19 44.08 101.84 44.71C101.965 44.8404 102.119 44.9397 102.29 45C102.49 45 103.18 44.82 103.15 45.19C103.155 45.2097 103.155 45.2303 103.15 45.25C103.15 45.38 103.03 45.48 103.01 45.61C103.006 45.689 103.026 45.7672 103.067 45.8349C103.108 45.9025 103.168 45.9565 103.24 45.99C103.382 46.0612 103.542 46.0891 103.7 46.07C103.875 46.0595 104.047 46.0224 104.21 45.96C104.48 45.85 104.7 45.66 104.96 45.53C105.357 45.3816 105.789 45.3571 106.2 45.46C106.648 45.4937 107.099 45.4668 107.54 45.38C108.816 45.0825 109.996 44.4667 110.97 43.59C112.331 42.2703 113.595 40.8532 114.75 39.35C114.879 39.1769 115.047 39.0365 115.24 38.94C115.403 38.886 115.579 38.88 115.745 38.9225C115.912 38.965 116.063 39.0544 116.18 39.18C116.313 39.3183 116.415 39.4836 116.479 39.6648C116.543 39.8459 116.567 40.0387 116.55 40.23Z" fill="url(#paint0_linear_2_2)"/>
<path d="M99 47.8C98.92 47.68 98.85 47.55 98.76 47.44C98.3232 47.0235 97.8624 46.6328 97.38 46.27C96.7163 45.5163 96.2431 44.6144 96 43.64C95.54 42.26 95.06 40.89 94.62 39.51C94.29 38.51 94.81 38.04 95.56 37.66C95.7138 37.8035 95.8363 37.9771 95.92 38.17C96.0756 38.5939 96.1862 39.033 96.25 39.48C96.4966 40.5007 96.9233 41.4692 97.51 42.34C98.1 43.28 98.66 44.24 99.25 45.18C99.2848 45.2325 99.3117 45.2898 99.33 45.35C99.3542 45.4418 99.3542 45.5382 99.33 45.63C99.2117 45.9999 99.1378 46.3826 99.11 46.77C99.06 47.01 99.19 47.67 99 47.8Z" fill="url(#paint1_linear_2_2)"/>
<path d="M116.55 40.23C116.518 40.7707 116.364 41.2971 116.1 41.77C114.502 45.123 111.772 47.804 108.39 49.34C108.196 49.4028 108.021 49.5127 107.88 49.66C107.778 49.8006 107.707 49.9606 107.67 50.13C106.9 53.13 107.07 56.19 106.52 59.19C106.502 59.4583 106.392 59.7123 106.21 59.91C105.946 60.0969 105.619 60.1724 105.3 60.12H104.65C104.462 60.1069 104.282 60.041 104.13 59.93C103.986 59.7921 103.894 59.6083 103.87 59.41C103.735 58.2754 103.684 57.1322 103.72 55.99C103.741 55.4148 103.625 54.8427 103.382 54.3211C103.138 53.7995 102.775 53.3432 102.32 52.99C102.089 52.8796 101.877 52.7346 101.69 52.56C101.602 52.4687 101.553 52.3468 101.553 52.22C101.553 52.0932 101.602 51.9713 101.69 51.88C101.785 51.8169 101.896 51.7823 102.01 51.78C102.661 51.734 103.309 51.6472 103.95 51.52C104.593 51.4011 105.168 51.044 105.56 50.52C105.89 50.02 105.96 49.38 106.32 48.9C106.81 48.4043 107.431 48.0576 108.11 47.9C110.465 46.9806 112.55 45.4808 114.17 43.54C114.89 42.67 115.44 41.1 116.33 40.45C116.392 40.3664 116.466 40.2923 116.55 40.23Z" fill="url(#paint2_linear_2_2)"/>
<path d="M66.07 78.9C61.9393 81.8831 57.556 84.4997 52.97 86.72L52.32 86.8H52.14C51.9645 86.7922 51.7928 86.7463 51.6368 86.6654C51.4808 86.5846 51.3443 86.4707 51.2368 86.3318C51.1292 86.1929 51.0532 86.0322 51.0141 85.8609C50.9749 85.6896 50.9735 85.5119 51.01 85.34C51.0522 84.9766 51.1156 84.616 51.2 84.26C51.78 81.54 52.3633 78.8233 52.95 76.11C52.9831 76.0107 52.9813 75.903 52.9449 75.8048C52.9086 75.7067 52.8398 75.6238 52.75 75.57L42.28 67.44C42.2136 67.375 42.1275 67.3338 42.0352 67.323C41.9429 67.3121 41.8497 67.3322 41.77 67.38C41.15 67.7 40.51 67.99 39.87 68.28C37.62 69.34 35.45 70.34 33.23 71.34C33.0844 71.4136 32.9249 71.4556 32.7619 71.4634C32.5989 71.4711 32.4361 71.4444 32.2842 71.3849C32.1322 71.3255 31.9945 71.2346 31.8801 71.1183C31.7656 71.002 31.677 70.8629 31.62 70.71L31.49 70.41V70.25C31.5894 69.4467 31.7296 68.649 31.91 67.86C33.0282 63.7095 34.4008 59.6318 36.02 55.65C36.7772 53.5072 38.2593 51.6962 40.21 50.53C41.69 49.6933 43.3217 49.1596 45.01 48.96C46.3158 48.7719 47.6313 48.6584 48.95 48.62H50.2C50.2869 48.6081 50.3706 48.579 50.4462 48.5343C50.5217 48.4897 50.5876 48.4304 50.64 48.36C51.64 46.9 52.58 45.36 53.64 43.96C55.1168 41.8529 56.7058 39.8266 58.4 37.89C60.1662 36.0911 62.0219 34.3823 63.96 32.77C65.9198 31.0355 68.0278 29.4762 70.26 28.11C73.6117 26.1839 77.2026 24.7078 80.94 23.72C81.66 23.5 82.39 23.31 83.12 23.11L84.62 22.95H84.89C85.2401 22.9915 85.571 23.1321 85.8438 23.3553C86.1166 23.5786 86.32 23.8751 86.43 24.21C86.4348 24.2532 86.4348 24.2968 86.43 24.34C86.4979 24.67 86.5446 25.004 86.57 25.34C86.7168 27.0955 86.6833 28.8614 86.47 30.61C86.2517 33.7696 85.63 36.8883 84.62 39.89C83.6076 42.6825 82.4048 45.4022 81.02 48.03C79.9276 50.2746 78.6357 52.4166 77.16 54.43C74.8066 57.5126 72.2896 60.4668 69.62 63.28C69.5369 63.355 69.4782 63.4533 69.4514 63.562C69.4247 63.6707 69.4312 63.785 69.47 63.89C69.65 64.67 69.82 65.45 69.96 66.23C70.3178 67.8474 70.4524 69.5061 70.36 71.16C70.3005 72.6959 69.8814 74.1963 69.1363 75.5406C68.3912 76.885 67.3409 78.0356 66.07 78.9Z" fill="white"/>
<path d="M48.62 71.6L42.32 66.69C42.32 66.69 45.03 58.34 48.95 48.62H50.2C50.2869 48.6081 50.3706 48.579 50.4462 48.5343C50.5217 48.4897 50.5876 48.4304 50.64 48.36C51.64 46.9 52.58 45.36 53.64 43.96C55.1168 41.8529 56.7058 39.8266 58.4 37.89C60.1662 36.0911 62.0219 34.3823 63.96 32.77C65.9198 31.0355 68.0278 29.4762 70.26 28.11C73.6117 26.1839 77.2026 24.7078 80.94 23.72C81.66 23.5 82.39 23.31 83.12 23.11L84.62 22.95H84.89C85.2401 22.9915 85.571 23.1321 85.8438 23.3553C86.1167 23.5786 86.32 23.8751 86.43 24.21C86.4348 24.2532 86.4348 24.2968 86.43 24.34C82.86 27.24 57.07 48.55 48.62 71.6Z" fill="url(#paint3_linear_2_2)"/>
<path d="M55.85 52.99C56.6464 52.5707 57.3611 52.0118 57.96 51.34C59.19 52.97 59.62 55.05 60.45 56.91C60.6058 57.3677 60.9081 57.7613 61.31 58.03C61.67 58.1807 62.0611 58.2424 62.45 58.21H64.76C65.5808 58.2137 66.3927 58.0397 67.14 57.7C67.55 57.5 67.95 57.1 67.83 56.7C67.71 56.3 67.13 56.12 66.66 56.12C66.0686 56.1577 65.4749 56.1037 64.9 55.96C64.1755 55.6463 63.5992 55.0664 63.29 54.34C62.9696 53.664 62.7086 52.9613 62.51 52.24C62.0989 51.0148 61.5906 49.8243 60.99 48.68C60.6498 47.9674 60.186 47.3207 59.62 46.77C59.3371 46.4972 59.0011 46.2855 58.633 46.1479C58.2649 46.0103 57.8725 45.9497 57.48 45.97C56.06 46.12 55.14 47.56 53.82 48.1C53.191 48.2545 52.5782 48.4688 51.99 48.74C51.6172 49.012 51.2984 49.3511 51.05 49.74C50.2757 50.8266 49.7095 52.0472 49.38 53.34C51.5125 53.9725 53.7981 53.8489 55.85 52.99Z" fill="url(#paint4_linear_2_2)"/>
<path d="M57.98 45.13C57.98 45.13 59.98 44.95 60.72 45.68C61.8726 47.015 62.6735 48.6169 63.05 50.34C63.23 51 63.45 51.64 63.6 52.34C63.6943 52.9592 63.8761 53.5619 64.14 54.13C64.3024 54.4474 64.5768 54.6932 64.91 54.82C65.1721 54.88 65.4418 54.9002 65.71 54.88C66.0447 54.8768 66.379 54.9003 66.71 54.95C66.774 54.9549 66.8359 54.9755 66.89 55.01C66.9277 55.0596 66.9518 55.1182 66.96 55.18C66.9796 55.3525 66.9539 55.5271 66.8855 55.6866C66.8171 55.8462 66.7084 55.9852 66.57 56.09C65.7238 56.4957 64.7658 56.6049 63.85 56.4C62.75 56.03 62.4 53.99 62 53.04C61.4208 51.6552 60.8006 50.2879 60.14 48.94C60.0702 48.7611 59.9608 48.6005 59.82 48.47C59.6541 48.361 59.4664 48.2893 59.27 48.26L56.86 47.74C57.09 46.87 57.73 45.99 57.98 45.13Z" fill="#FFBBAB"/>
<path d="M68.74 51.72C72.004 51.72 74.65 49.074 74.65 45.81C74.65 42.546 72.004 39.9 68.74 39.9C65.476 39.9 62.83 42.546 62.83 45.81C62.83 49.074 65.476 51.72 68.74 51.72Z" fill="#175D2D"/>
<path d="M68.74 49.74C70.9105 49.74 72.67 47.9805 72.67 45.81C72.67 43.6395 70.9105 41.88 68.74 41.88C66.5695 41.88 64.81 43.6395 64.81 45.81C64.81 47.9805 66.5695 49.74 68.74 49.74Z" fill="#473F47"/>
<path d="M51.31 48.97L41.94 67.53L33.05 71.53C33.05 71.53 31.32 72.68 31.49 70.32C31.66 67.96 36.25 54.7 37.62 52.86C38.99 51.02 43.16 47.66 51.31 48.97ZM69.39 63.49L52.95 76.11L50.55 87.25C50.9095 87.726 51.4234 88.0622 52.0036 88.2009C52.5837 88.3395 53.1941 88.2721 53.73 88.01C55.98 87.26 67.61 79.51 69.06 77.76C70.51 76.01 72.69 71.05 69.39 63.49ZM78.52 24.5L86.44 30.62C86.44 30.62 86.85 24.28 86.44 22.95C86.03 21.62 78.52 24.5 78.52 24.5Z" fill="#175D2D"/>
<path d="M42.33 66.7L40.76 69.49L51.31 77.59L53.74 75.51L42.33 66.7Z" fill="#175D2D"/>
<path opacity="0.36" d="M40.76 69.48C40.76 69.48 10.3 101.92 30.28 116.82C50.26 131.72 73.35 121.9 73.35 121.9C73.35 121.9 40.35 129.19 35.54 110.68C32.73 99.85 51.31 77.59 51.31 77.59L40.76 69.48Z" fill="url(#paint5_linear_2_2)"/>
<path d="M105.36 98.34L112.78 102.85H93.94L101.36 98.05V94.14L100.12 92.67V88.01C87.98 83.81 88.27 57.77 88.27 57.77H118.45V58.08C118.63 60.94 119.64 82.86 108.27 87.64C107.822 87.8327 107.361 87.9932 106.89 88.12V92.12L105.89 93.41L105.36 94.08V98.34Z" fill="#175D2D"/>
<path d="M89.55 80.34C89.1837 80.3525 88.8186 80.2927 88.4754 80.164C88.1322 80.0353 87.8178 79.8403 87.55 79.59C87.2271 79.2372 87.0099 78.8007 86.9233 78.3303C86.8366 77.86 86.884 77.3747 87.06 76.93L88.44 77.33C88.352 77.5347 88.3222 77.7598 88.354 77.9804C88.3857 78.2009 88.4778 78.4084 88.62 78.58C88.8323 78.7454 89.0826 78.8549 89.3482 78.8986C89.6137 78.9423 89.8859 78.9187 90.14 78.83C90.3262 78.794 90.5008 78.7133 90.6489 78.5949C90.797 78.4764 90.914 78.3238 90.99 78.15C90.87 77.73 88.99 76.15 87.53 74.82C83.53 71.32 78.53 66.97 80.16 63.47C80.385 62.9195 80.7384 62.4308 81.1907 62.0446C81.643 61.6584 82.181 61.386 82.76 61.25C85.96 60.51 90.2 63.95 90.38 64.1L89.47 65.21C88.4 64.33 85.16 62.21 83.08 62.65C82.7146 62.7398 82.3763 62.9168 82.0942 63.1659C81.8121 63.4149 81.5945 63.7286 81.46 64.08C80.28 66.6 85.21 70.89 88.46 73.73C91.36 76.26 92.63 77.42 92.38 78.49C92.2509 78.9173 92.0107 79.3026 91.6839 79.6065C91.3571 79.9105 90.9555 80.1222 90.52 80.22C90.2028 80.2995 89.877 80.3398 89.55 80.34ZM118.11 80.34C117.789 80.3411 117.469 80.2974 117.16 80.21C116.723 80.1138 116.319 79.9028 115.99 79.5987C115.662 79.2947 115.42 78.9085 115.29 78.48C115.04 77.41 116.29 76.25 119.21 73.72C122.47 70.88 127.4 66.59 126.21 64.07C126.081 63.7445 125.875 63.4547 125.611 63.225C125.346 62.9953 125.03 62.8324 124.69 62.75C122.42 62.25 118.69 64.75 117.48 65.75L116.62 64.63C116.83 64.47 121.62 60.63 125.06 61.36C125.617 61.4856 126.135 61.7427 126.572 62.1098C127.008 62.4769 127.351 62.9433 127.57 63.47C129.21 66.97 124.21 71.32 120.2 74.82C118.71 76.12 116.86 77.73 116.74 78.25C116.82 78.5 117.23 78.73 117.59 78.83C117.842 78.9216 118.113 78.9467 118.378 78.9029C118.642 78.8591 118.891 78.7479 119.1 78.58C119.232 78.4046 119.314 78.1965 119.337 77.978C119.36 77.7596 119.323 77.539 119.23 77.34L120.62 76.94C120.796 77.3854 120.842 77.8715 120.754 78.3422C120.665 78.8128 120.446 79.2489 120.12 79.6C119.851 79.8501 119.534 80.0443 119.189 80.1714C118.844 80.2984 118.477 80.3557 118.11 80.34Z" fill="#175D2D"/>
<path opacity="0.28" d="M108.29 87.65C107.842 87.8427 107.381 88.0031 106.91 88.13V88.23H100.12V88.01C87.98 83.81 88.27 57.77 88.27 57.77H95.67C95.67 57.77 92.39 75.02 103.42 85.47C105.77 87.71 106.62 87.15 108.29 87.65Z" fill="white"/>
<path d="M112.33 88.22C111.872 88.287 111.408 88.287 110.95 88.22H112.33Z" fill="#175D2D"/>
<path opacity="0.28" d="M102.34 88.23V92.58L103.42 94.03V98.06L100.5 102.87H94.88L102.16 98.33V94.12L100.72 92.36V87.98L102.34 88.23Z" fill="white"/>
<path d="M100.12 88.24V88.02C87.98 83.82 88.27 57.78 88.27 57.78H90.42C90.42 57.78 89.1 80.71 100.72 87.98L101.12 88.24H100.12Z" fill="url(#paint6_linear_2_2)"/>
<path d="M106.91 88.13V92.13L105.91 93.42C103.79 92.69 103.46 91.13 106.91 88.13Z" fill="#175D2D"/>
<path d="M108.29 87.65C107.842 87.8427 107.381 88.0032 106.91 88.13C118.15 78.38 112.33 57.78 112.33 57.78L118.47 58.09C118.62 60.95 119.62 82.87 108.29 87.65Z" fill="url(#paint7_linear_2_2)"/>
<path d="M52.38 31.4L53.08 29.97C53.7308 28.5562 54.4967 27.1983 55.37 25.91C57.18 23.42 58.12 20.41 59.68 17.75C59.7823 17.6055 59.8444 17.4364 59.86 17.26C59.86 16.87 59.4 16.65 59.01 16.55C58.4978 16.3794 57.9508 16.3416 57.42 16.44C57.1555 16.4929 56.9119 16.6211 56.7186 16.8092C56.5252 16.9972 56.3903 17.2371 56.33 17.5C56.3234 17.8049 56.3469 18.1097 56.4 18.41C56.369 19.2612 56.0756 20.082 55.56 20.76L51.62 27.14C51.0773 27.8547 50.7324 28.6997 50.62 29.59C50.6429 30.0542 50.8343 30.4941 51.1583 30.8273C51.4823 31.1604 51.9166 31.3641 52.38 31.4Z" fill="#FFBBAB"/>
<path d="M52.38 31.4C52.6993 30.9134 52.8175 30.322 52.71 29.75C52.5951 28.9977 52.5951 28.2323 52.71 27.48C52.948 26.7572 52.9894 25.9841 52.83 25.24C52.83 25.24 52.83 25.17 52.77 25.15C52.7461 25.1349 52.7183 25.1269 52.69 25.1269C52.6617 25.1269 52.634 25.1349 52.61 25.15C52.366 25.2967 52.1845 25.5281 52.1 25.8C51.68 26.8 50.4 28.49 50.58 29.58C50.6015 30.0524 50.7975 30.5 51.13 30.8362C51.4625 31.1724 51.9079 31.3733 52.38 31.4Z" fill="url(#paint8_linear_2_2)"/>
<path d="M49.11 32.05L51.17 29.44L53.62 31.68L51.31 33.76L49.11 32.05Z" fill="#175D2D"/>
<path d="M49.11 32.05L51.17 29.44L53.62 31.68L51.31 33.76L49.11 32.05Z" fill="url(#paint9_linear_2_2)"/>
<path d="M54.38 35.27L55.33 35.6C55.66 35.71 56.33 36.15 56.64 35.85C56.95 35.55 56.64 34.64 56.64 34.31C56.4823 33.1261 56.1973 31.9627 55.79 30.84C55.6386 30.5717 55.5453 30.2747 55.516 29.9681C55.4867 29.6614 55.5221 29.3521 55.62 29.06C55.706 28.907 55.8307 28.7793 55.9817 28.6898C56.1326 28.6003 56.3045 28.5521 56.48 28.55C56.6532 28.5528 56.8231 28.5981 56.9747 28.6817C57.1264 28.7654 57.2552 28.885 57.35 29.03C57.4856 29.3508 57.5829 29.6864 57.64 30.03C57.7464 30.2541 57.7879 30.5035 57.76 30.75C57.7048 30.8597 57.658 30.9733 57.62 31.09C57.6131 31.2204 57.6371 31.3506 57.69 31.47L58.94 34.76C59.2863 35.4631 59.4185 36.2524 59.32 37.03C59.1464 37.5413 58.8048 37.9788 58.3509 38.2711C57.8969 38.5635 57.3573 38.6935 56.82 38.64C55.6277 38.5217 54.4801 38.1243 53.47 37.48C53.36 37.42 53.23 37.31 53.27 37.19C53.3003 37.1378 53.3456 37.096 53.4 37.07C53.7234 36.8832 53.995 36.6185 54.19 36.3C54.2988 36.1545 54.3726 35.9859 54.4055 35.8072C54.4385 35.6286 54.4298 35.4447 54.38 35.27ZM51.56 29.92C51.5362 30.057 51.4697 30.183 51.37 30.28C51.216 30.3765 51.0411 30.4348 50.86 30.45C50.6737 30.4708 50.497 30.5436 50.35 30.66C50.3272 30.7014 50.3153 30.7478 50.3153 30.795C50.3153 30.8422 50.3272 30.8886 50.35 30.93L50.62 32.08C50.6497 32.1641 50.6497 32.2559 50.62 32.34C50.5667 32.4395 50.4772 32.5147 50.37 32.55C49.97 32.74 49.46 32.91 49.11 32.64C48.9338 32.4813 48.8114 32.2715 48.76 32.04C48.2451 30.7633 47.9346 29.4134 47.84 28.04C47.8024 27.6264 47.8544 27.2095 47.9924 26.8178C48.1305 26.426 48.3514 26.0687 48.64 25.77C49.2019 25.3141 49.9194 25.0953 50.64 25.16C50.8014 25.1679 50.9585 25.2147 51.0978 25.2966C51.2371 25.3785 51.3545 25.4929 51.44 25.63C51.55 25.83 51.44 26.04 51.51 26.26C51.5415 26.5807 51.5983 26.8983 51.68 27.21C51.721 27.3596 51.7711 27.5065 51.83 27.65C51.8972 27.7681 51.9445 27.8965 51.97 28.03C51.9709 28.2757 51.9162 28.5184 51.81 28.74C51.7098 29.0116 51.6394 29.2932 51.6 29.58C51.62 29.72 51.62 29.82 51.56 29.92Z" fill="#FFBBAB"/>
<path d="M51.87 25.03C51.8299 25.2846 51.7278 25.5255 51.5725 25.7313C51.4173 25.9371 51.2138 26.1015 50.98 26.21C49.9 26.72 48.36 26.65 48.77 28.21C49.006 28.819 49.0981 29.4743 49.0391 30.1248C48.9801 30.7753 48.7717 31.4033 48.43 31.96C48.18 32.33 47.87 32.65 47.65 33.04C47.29 33.64 47.18 34.37 46.79 34.95C46.01 36.1 44.43 36.34 43.05 36.34C42.5221 36.3286 41.9976 36.4274 41.51 36.63C40.38 37.19 39.87 38.85 38.62 38.91C37.37 38.97 36.94 37.34 36.24 36.54C35.7618 36.0585 35.4401 35.4439 35.317 34.7766C35.1939 34.1093 35.2751 33.4204 35.55 32.8C36.84 30.16 41.05 30.32 42.64 27.8C43.62 26.34 43.62 24.34 45.32 23.4C46.2543 22.9651 47.2801 22.7634 48.3095 22.8122C49.3389 22.861 50.341 23.1587 51.23 23.68C51.4646 23.8097 51.6526 24.0097 51.7674 24.2519C51.8822 24.4941 51.9181 24.7663 51.87 25.03Z" fill="#473F47"/>
<path d="M53.72 43.79C53.8414 43.8888 53.9806 43.9634 54.13 44.01C54.6535 44.1385 55.1973 44.1623 55.73 44.08C56.4995 44.04 57.2705 44.04 58.04 44.08C58.2269 44.0704 58.4122 44.1194 58.57 44.22C58.83 44.44 58.75 44.85 58.64 45.17C58.1607 46.6257 57.6032 48.0544 56.97 49.45C56.7513 50.06 56.3711 50.5991 55.87 51.01C55.4742 51.2556 55.0314 51.4157 54.57 51.48C53.6427 51.6701 52.7041 51.8004 51.76 51.87C50.8408 52.0041 49.9024 51.8794 49.05 51.51C48.1396 50.9611 47.4686 50.0903 47.17 49.07C46.7871 48.0869 46.6934 47.0147 46.9 45.98C47.15 44.88 47.65 44.56 47.34 43.38C46.9296 41.9165 46.6419 40.4213 46.48 38.91C46.35 37.5382 46.4789 36.1542 46.86 34.83C47.0114 34.2168 47.2686 33.6348 47.62 33.11C47.9789 32.5947 48.5055 32.22 49.11 32.05C49.4097 31.9729 49.7244 31.9757 50.0227 32.0582C50.321 32.1406 50.5925 32.2999 50.81 32.52C51.98 33.79 53.58 33.86 54.91 34.95C54.9878 34.9999 55.0474 35.0736 55.08 35.16C55.1147 35.2501 55.1147 35.3499 55.08 35.44L54.21 37.53C54.1242 37.755 54.0135 37.9696 53.88 38.17C53.76 38.34 53.61 38.48 53.5 38.65C53.198 39.161 53.0455 39.7466 53.06 40.34C53.05 41.34 52.81 43.08 53.72 43.79Z" fill="#175D2D"/>
<path d="M52.45 45.13C52.2919 45.2074 52.1162 45.2416 51.9406 45.2293C51.765 45.217 51.5958 45.1586 51.45 45.06C50.75 44.54 51.29 44.18 51.45 43.64C51.6642 42.8932 51.7221 42.1102 51.62 41.34C51.51 39.85 51.39 38.34 51.28 36.86C51.34 37.23 53.1 37.75 53.79 38.22C53.67 38.39 53.52 38.53 53.41 38.7C52.63 39.84 53.04 42.12 53.06 43.41C53.11 44.03 53.03 44.81 52.45 45.13Z" fill="url(#paint10_linear_2_2)"/>
<path d="M60.56 25.89C60.8578 27.0309 60.8578 28.2291 60.56 29.37C60.5066 29.4239 60.4416 29.4649 60.37 29.49C60.3149 29.509 60.2551 29.509 60.2 29.49C59.75 29.4 57.2 27.73 54.2 28.78C54.0482 28.8368 53.8857 28.8593 53.7241 28.846C53.5625 28.8326 53.4059 28.7837 53.2655 28.7028C53.125 28.6219 53.0042 28.5109 52.9116 28.3778C52.8191 28.2448 52.757 28.0929 52.73 27.933C52.703 27.7732 52.7117 27.6093 52.7553 27.4532C52.799 27.2971 52.8767 27.1526 52.9828 27.03C53.0888 26.9074 53.2207 26.8098 53.3689 26.7441C53.5171 26.6784 53.6779 26.6463 53.84 26.65C53.84 26.65 57.77 25.34 58.62 23.01C58.73 22.66 58.95 22.53 59.2 22.57C59.3573 22.6012 59.5048 22.6698 59.63 22.77C60.1314 23.7431 60.4468 24.8012 60.56 25.89Z" fill="#175D2D"/>
<path d="M60.56 25.89C60.8578 27.0309 60.8578 28.2291 60.56 29.37C60.5457 29.4 60.5248 29.4265 60.4988 29.4472C60.4728 29.468 60.4425 29.4827 60.41 29.49C60.01 29.49 59.41 27.99 59.13 26.14C58.85 24.29 58.87 22.84 59.2 22.57H59.28C59.39 22.57 59.5 22.64 59.63 22.81C60.1266 23.7708 60.4419 24.8149 60.56 25.89Z" fill="url(#paint11_linear_2_2)"/>
<path d="M66.39 54.72C66.2541 54.7597 66.1374 54.8476 66.0619 54.9674C65.9864 55.0871 65.9573 55.2303 65.98 55.37C65.98 55.53 66.17 55.69 66.1 55.84C66.0758 55.881 66.0424 55.9159 66.0025 55.9419C65.9626 55.9679 65.9173 55.9844 65.87 55.99C64.9321 56.277 63.9213 56.2094 63.03 55.8C63.0081 55.8789 63.0077 55.9622 63.0288 56.0413C63.0499 56.1204 63.0918 56.1925 63.15 56.25C63.2869 56.5036 63.4911 56.7147 63.74 56.86C63.906 56.9239 64.0821 56.9578 64.26 56.96C65.6557 56.9416 67.0101 56.4832 68.13 55.65C68.2367 55.583 68.3314 55.4985 68.41 55.4C68.4437 55.346 68.4616 55.2837 68.4616 55.22C68.4616 55.1564 68.4437 55.094 68.41 55.04C68.35 54.89 68.17 54.84 68.01 54.81C67.7316 54.7686 67.4512 54.7419 67.17 54.73C66.9134 54.6739 66.648 54.6705 66.39 54.72Z" fill="#175D2D"/>
</g>
<defs>
<linearGradient id="paint0_linear_2_2" x1="103.01" y1="69.93" x2="105.99" y2="34.17" gradientUnits="userSpaceOnUse">
<stop offset="0.01"/>
<stop offset="0.08" stop-opacity="0.69"/>
<stop offset="0.21" stop-opacity="0.32"/>
<stop offset="1" stop-opacity="0"/>
</linearGradient>
<linearGradient id="paint1_linear_2_2" x1="92.73" y1="56.05" x2="103.34" y2="22.56" gradientUnits="userSpaceOnUse">
<stop offset="0.01"/>
<stop offset="0.08" stop-opacity="0.69"/>
<stop offset="0.21" stop-opacity="0.32"/>
<stop offset="1" stop-opacity="0"/>
</linearGradient>
<linearGradient id="paint2_linear_2_2" x1="119.168" y1="58.9273" x2="94.2092" y2="34.0283" gradientUnits="userSpaceOnUse">
<stop offset="0.01"/>
<stop offset="0.08" stop-opacity="0.69"/>
<stop offset="0.21" stop-opacity="0.32"/>
<stop offset="1" stop-opacity="0"/>
</linearGradient>
<linearGradient id="paint3_linear_2_2" x1="20.81" y1="38.16" x2="114.69" y2="56.83" gradientUnits="userSpaceOnUse">
<stop offset="0.01"/>
<stop offset="0.13" stop-opacity="0.69"/>
<stop offset="0.25" stop-opacity="0.32"/>
<stop offset="1" stop-opacity="0"/>
</linearGradient>
<linearGradient id="paint4_linear_2_2" x1="61.1" y1="34.81" x2="55.4" y2="81.18" gradientUnits="userSpaceOnUse">
<stop offset="0.01"/>
<stop offset="0.13" stop-opacity="0.69"/>
<stop offset="0.25" stop-opacity="0.32"/>
<stop offset="1" stop-opacity="0"/>
</linearGradient>
<linearGradient id="paint5_linear_2_2" x1="16.06" y1="49.86" x2="99.68" y2="217.11" gradientUnits="userSpaceOnUse">
<stop offset="0.01"/>
<stop offset="0.08" stop-opacity="0.69"/>
<stop offset="0.21" stop-opacity="0.32"/>
<stop offset="1" stop-opacity="0"/>
</linearGradient>
<linearGradient id="paint6_linear_2_2" x1="61.34" y1="79.04" x2="126.82" y2="67.2" gradientUnits="userSpaceOnUse">
<stop offset="0.01"/>
<stop offset="0.13" stop-opacity="0.69"/>
<stop offset="0.25" stop-opacity="0.32"/>
<stop offset="1" stop-opacity="0"/>
</linearGradient>
<linearGradient id="paint7_linear_2_2" x1="143.59" y1="77.43" x2="64.7" y2="66.39" gradientUnits="userSpaceOnUse">
<stop offset="0.01"/>
<stop offset="0.13" stop-opacity="0.69"/>
<stop offset="0.25" stop-opacity="0.32"/>
<stop offset="1" stop-opacity="0"/>
</linearGradient>
<linearGradient id="paint8_linear_2_2" x1="49.2138" y1="30.0184" x2="55.9277" y2="26.5198" gradientUnits="userSpaceOnUse">
<stop offset="0.01"/>
<stop offset="0.13" stop-opacity="0.69"/>
<stop offset="0.25" stop-opacity="0.32"/>
<stop offset="1" stop-opacity="0"/>
</linearGradient>
<linearGradient id="paint9_linear_2_2" x1="46.889" y1="32.9634" x2="60.5742" y2="28.7114" gradientUnits="userSpaceOnUse">
<stop offset="0.01"/>
<stop offset="0.13" stop-opacity="0.69"/>
<stop offset="0.25" stop-opacity="0.32"/>
<stop offset="1" stop-opacity="0"/>
</linearGradient>
<linearGradient id="paint10_linear_2_2" x1="44.5721" y1="40.6728" x2="63.6368" y2="41.6532" gradientUnits="userSpaceOnUse">
<stop offset="0.01"/>
<stop offset="0.13" stop-opacity="0.69"/>
<stop offset="0.25" stop-opacity="0.32"/>
<stop offset="1" stop-opacity="0"/>
</linearGradient>
<linearGradient id="paint11_linear_2_2" x1="55.2657" y1="25.4141" x2="67.2142" y2="27.0099" gradientUnits="userSpaceOnUse">
<stop offset="0.01"/>
<stop offset="0.13" stop-opacity="0.69"/>
<stop offset="0.25" stop-opacity="0.32"/>
<stop offset="1" stop-opacity="0"/>
</linearGradient>
<clipPath id="clip0_2_2">
<rect width="165.72" height="130.57" fill="white"/>
</clipPath>
</defs>
</svg>
