<svg xmlns="http://www.w3.org/2000/svg" xmlns:xlink="http://www.w3.org/1999/xlink" viewBox="0 0 500 500"><defs><clipPath id="freepik--clip-path--inject-341"><path d="M431.13,258.13a27.31,27.31,0,0,0,7.33-1l-1.53-8.93-12.88.76-.5,8.1A27.49,27.49,0,0,0,431.13,258.13Z" style="fill:#fff;stroke:#263238;stroke-linecap:round;stroke-linejoin:round"></path></clipPath><clipPath id="freepik--clip-path-2--inject-341"><path d="M175,116a30.35,30.35,0,0,0,8.14-1.11L181.4,105l-14.32.85-.55,9A30.43,30.43,0,0,0,175,116Z" style="fill:#fff;stroke:#263238;stroke-linecap:round;stroke-linejoin:round"></path></clipPath><clipPath id="freepik--clip-path-3--inject-341"><path d="M176.61,408.21a30.35,30.35,0,0,0,8.14-1.11l-1.69-9.93-14.32.85-.55,9A30.37,30.37,0,0,0,176.61,408.21Z" style="fill:#fff;stroke:#263238;stroke-linecap:round;stroke-linejoin:round"></path></clipPath><clipPath id="freepik--clip-path-4--inject-341"><path d="M406.18,179.15a.86.86,0,0,1,.7-.44,8,8,0,0,0,6.17-3.57.86.86,0,0,1,1.12-.26,10.81,10.81,0,0,1,3.73,3.66,2.43,2.43,0,0,1-.67,3.29l-12.76,8.58a4.1,4.1,0,0,1-2.3.7H399a1.11,1.11,0,0,1-1.05-1.48,2.42,2.42,0,0,1,1.7-1.59C401.75,187.53,405.76,180,406.18,179.15Z" style="fill:#263238;stroke:#263238;stroke-linecap:round;stroke-linejoin:round"></path></clipPath><clipPath id="freepik--clip-path-5--inject-341"><path d="M401,181.66a.83.83,0,0,0-.81-.16c-1.73.59-8.1,2.64-11.78,2.47-2.68-.13-3.52,1.39-3.77,2.55a1.2,1.2,0,0,0,1,1.43l20.69,3.13a2.42,2.42,0,0,0,2.75-1.91,10.8,10.8,0,0,0-.16-5.24.85.85,0,0,0-1-.57A8,8,0,0,1,401,181.66Z" style="fill:#263238;stroke:#263238;stroke-linecap:round;stroke-linejoin:round"></path></clipPath><clipPath id="freepik--clip-path-6--inject-341"><path d="M409.52,94.52s-3.42,2.07-2.43,2.55c1.66.81,5.27-1.74,5.27-1.74s3.93-.26,1.93-1.16l-2-.9Z" style="fill:#fff;stroke:#263238;stroke-linecap:round;stroke-linejoin:round"></path></clipPath><clipPath id="freepik--clip-path-7--inject-341"><path d="M414,63.52s2,9.1,4.5,9.1,7.71-13.69,7.71-13.69l-3.46-2.37Z" style="fill:#fff;stroke:#263238;stroke-linecap:round;stroke-linejoin:round"></path></clipPath><clipPath id="freepik--clip-path-8--inject-341"><path d="M393.65,73.59h-4l5.51,25.94h4a1.68,1.68,0,0,0,1.68-2.14l-4.61-21.67A2.78,2.78,0,0,0,393.65,73.59Z" style="fill:#263238;stroke:#263238;stroke-linecap:round;stroke-linejoin:round"></path></clipPath><clipPath id="freepik--clip-path-9--inject-341"><path d="M400.85,97.39h21a0,0,0,0,1,0,0v1a1.18,1.18,0,0,1-1.18,1.18H402a1.18,1.18,0,0,1-1.18-1.18v-1A0,0,0,0,1,400.85,97.39Z" style="fill:#263238;stroke:#263238;stroke-linecap:round;stroke-linejoin:round"></path></clipPath><clipPath id="freepik--clip-path-10--inject-341"><path d="M397.62,99.53H365.1a2.79,2.79,0,0,1-2.59-2.14l-4.6-21.67a1.67,1.67,0,0,1,1.68-2.13h32.52a2.77,2.77,0,0,1,2.58,2.13l4.61,21.67A1.68,1.68,0,0,1,397.62,99.53Z" style="fill:#263238;stroke:#263238;stroke-linecap:round;stroke-linejoin:round"></path></clipPath><clipPath id="freepik--clip-path-11--inject-341"><path d="M368.47,272.41s-9.25,5.08-16-1.43c0,0,1.7-3.2,2.29-11.15l9.81-1.75a28.83,28.83,0,0,0,.3,8.11C365.52,269.22,367.29,272,368.47,272.41Z" style="fill:#fff;stroke:#263238;stroke-linecap:round;stroke-linejoin:round"></path></clipPath><clipPath id="freepik--clip-path-12--inject-341"><polyline points="83.35 300.18 83.35 284.56 75.51 284.56 75.51 301.17" style="fill:none;stroke:#263238;stroke-linecap:round;stroke-linejoin:round"></polyline></clipPath><clipPath id="freepik--clip-path-13--inject-341"><path d="M79.45,189s-2.18,3-2.07,5.56L67.12,191s4.29-6.23,5.31-12.33S79.45,189,79.45,189Z" style="fill:#fff;stroke:#263238;stroke-linecap:round;stroke-linejoin:round"></path></clipPath></defs><g id="freepik--background-simple--inject-341"><path d="M473.38,201.16C484.21,315,446.81,349.3,334.88,394.34S143.35,504,68.05,364.28C13.78,263.57,81.46,135.61,193.39,90.56S459.59,56.06,473.38,201.16Z" style="fill:#92E3A9"></path><path d="M473.38,201.16C484.21,315,446.81,349.3,334.88,394.34S143.35,504,68.05,364.28C13.78,263.57,81.46,135.61,193.39,90.56S459.59,56.06,473.38,201.16Z" style="fill:#fff;opacity:0.7000000000000001"></path></g><g id="freepik--Dots--inject-341"><path d="M266,394.63a6.89,6.89,0,1,1-6.88-6.89A6.89,6.89,0,0,1,266,394.63Z" style="fill:#fff"></path><path d="M397.17,270.64a6.89,6.89,0,1,1-6.88-6.88A6.88,6.88,0,0,1,397.17,270.64Z" style="fill:#fff"></path><path d="M461.7,193a6.89,6.89,0,1,1-6.89-6.89A6.88,6.88,0,0,1,461.7,193Z" style="fill:#fff"></path><path d="M386.85,200.14a6.89,6.89,0,1,1-6.89-6.89A6.89,6.89,0,0,1,386.85,200.14Z" style="fill:#fff"></path><path d="M328.71,106.77a6.89,6.89,0,1,1-6.89-6.88A6.88,6.88,0,0,1,328.71,106.77Z" style="fill:#fff"></path><path d="M282.23,70.29a6.89,6.89,0,1,1-6.89-6.88A6.88,6.88,0,0,1,282.23,70.29Z" style="fill:#fff"></path><path d="M153.76,160.78a6.89,6.89,0,1,1-6.88-6.89A6.88,6.88,0,0,1,153.76,160.78Z" style="fill:#fff"></path><path d="M142.1,250.61a6.89,6.89,0,1,1-6.88-6.88A6.89,6.89,0,0,1,142.1,250.61Z" style="fill:#fff"></path><path d="M156.07,304.37a6.89,6.89,0,1,1-6.88-6.89A6.88,6.88,0,0,1,156.07,304.37Z" style="fill:#fff"></path><circle cx="106.6" cy="370.15" r="6.89" style="fill:#fff"></circle><polygon points="149.19 304.37 106.6 370.15 259.11 394.63 390.29 270.64 379.96 200.14 454.81 192.98 321.82 106.78 146.88 160.78 135.22 250.61 149.19 304.37" style="fill:none;stroke:#fff;stroke-linecap:round;stroke-linejoin:round"></polygon><line x1="275.34" y1="70.29" x2="321.82" y2="106.77" style="fill:none;stroke:#fff;stroke-linecap:round;stroke-linejoin:round"></line><line x1="259.11" y1="394.63" x2="247.3" y2="322.07" style="fill:none;stroke:#fff;stroke-linecap:round;stroke-linejoin:round"></line><line x1="146.88" y1="160.78" x2="187.03" y2="197.1" style="fill:none;stroke:#fff;stroke-linecap:round;stroke-linejoin:round"></line></g><g id="freepik--Shadow--inject-341"><ellipse cx="364.28" cy="460.95" rx="51.79" ry="8.38" style="fill:#92E3A9"></ellipse></g><g id="freepik--Globe--inject-341"><circle cx="262.07" cy="231.71" r="108.2" transform="translate(-87.08 253.18) rotate(-45)" style="fill:#515b60"></circle><circle cx="262.07" cy="231.71" r="108.2" transform="translate(-87.08 253.18) rotate(-45)" style="fill:none;stroke:#263238;stroke-linecap:round;stroke-linejoin:round"></circle><path d="M207,167.93c-1.25-.94-7.24,1.1-7.26-.68,0-1.18,4-4.5,4.79-6,1.12-2.19.54-5.24,1.58-7.3a18.64,18.64,0,0,1,3.39-4.82c6.08-5.14,15.36-10.71,23.1-11.1,2.78-.14,6.59,4.64,7.22,8.37.37,2.21,0,8.78-2,11.08-2.94,3.47-9.4,3.51-12.83,6.21-4,3.14-5.94,10.55-10.54,13-1.28.68-3.71-.66-4.54-1.36C208.37,174.06,208.39,169,207,167.93Z" style="fill:#92E3A9;stroke:#263238;stroke-linecap:round;stroke-linejoin:round"></path><path d="M332.4,279.29a3.74,3.74,0,0,0-2.16.13c-1.79,1-4.4,4.93-5.32,6.85-1.06,2.19-2.33,6.94-2.23,9,.06,1.15.72,3.43,1.67,3.55.72.09,2.62-1.33,3.29-2.13,3.46-4.14,7.6-10.58,7.29-15.71C334.9,280.2,333.18,279.48,332.4,279.29Z" style="fill:#92E3A9;stroke:#263238;stroke-linecap:round;stroke-linejoin:round"></path><path d="M266.8,180.28c1.3-.13,4.17-.83,5-2,1.28-1.89,1.77-7.58.44-9.19-.57-.67-2.67-.53-3.39.06-.93.77-.68,4-1.61,4.86s-3.56-.34-4.36.57-1,3.9-.41,4.82S265.66,180.39,266.8,180.28Z" style="fill:#92E3A9;stroke:#263238;stroke-linecap:round;stroke-linejoin:round"></path><path d="M331.34,148.6a5.19,5.19,0,0,0-1.95,3.27c-.05.88,1.74,3.42,1.52,4.2-.56,1.91-5,3.26-7.3,2.06-.69-.37-1.29-2.47-1.95-2.93-2.79-1.94-8.1-.63-10.8-.79a21.42,21.42,0,0,1-3.85-.23c-4.57-1.4-9.32-6.13-14-6.32-2.31-.09-7.54,3.23-9.17,5.67a22.15,22.15,0,0,0-3.61,11.62c0,1.72,1.56,5.37,2.92,6.29s5.17,1.11,6.42,0c.87-.75.37-3.92,1.08-4.83s3.6-2.65,4.45-1.86c2.59,2.43,3.21,9.16,1.65,12.1-1.67,3.15-8.62,6.4-12.22,4.72-1.33-.62-.23-5.59-1.36-6.78s-4.53-2-5.63-1c-1.34,1.27.94,6.19-.15,7.74-1.22,1.72-6.05,1.18-7.7,2.48-1.22,1-3.28,3.78-3.43,5.36-.13,1.35,2.83,3.65,2.1,4.8-1,1.66-6.16-1.41-7.43.09-1.69,2-.47,8.48,1.43,10.1,1.42,1.22,6.06,1.13,7.59,0,1.1-.84.43-4.52,1.54-5.33,1.46-1.06,5.32.89,7,.46,1.34-.34,3.36-3.15,4.7-2.91,1.8.32,4.4,3.95,4.74,5.82.26,1.39-2.89,4.36-1.86,5.32,1.27,1.17,5.53-1.3,6.16-2.89.8-2-3.72-6.22-3-8.24a3.27,3.27,0,0,1,2.77-1.43c2.61.62,4.2,8,6.83,8.74,1.86.53,5.1-3.27,7-2.82,2.22.53,5.8,4.58,6.49,6.8.48,1.55-.12,5.26-1.21,6.23-3.74,3.33-10.71,4.11-15.83,3.79-2.44-.16-7.4-2.15-9.19-3.89-1.24-1.21-1.5-5.49-2.89-6.3-3.62-2.1-9.38-1.76-13.36-.45-7,2.32-15.58,9-19.53,15.5-1.42,2.36,0,8.68-1.41,11-.45.73-2.47,1.14-2.86,1.9-1.2,2.31-.88,8.28.41,10.52A24.57,24.57,0,0,0,258.43,256c4.91,1.68,11.67-1,16.87.15,1.65.37,5.2,2.29,6.11,3.88,1.19,2.09-.65,7.58.48,9.69.92,1.74,6,1.68,6.69,3.37,2.56,6.1-3.55,14.31-2.62,20.82.32,2.2,3.72,5.62,4,7.7.59,3.86-1.55,9.09-.05,12.56,1,2.27,6.78,3.18,8.95,2,4.69-2.45,9.84-8.37,12-13.09,2-4.31.29-11,2.47-14.8,1.77-3,7.44-4.49,9.32-7.55,2.8-4.53.64-12.86,3.27-17.59,2.06-3.69,8.05-5.84,10-9.72.78-1.53.39-6.13-.72-7-2.72-2.22-9.13-.67-11.73-3.12-1.14-1.07.53-5.87-.18-7.62s-4.16-3.56-4.74-5.23-.92-6.34.47-7.65c.62-.57,2.69-.39,3.39,0,3.76,2.11,6.92,6.75,8.18,10.92.43,1.42-1.52,4.89-.71,6.16.59.93,3.15,1.54,4.25,1.37,4.82-.75,13.09-4.36,13.87-8.12,1-4.61-11.58-9.83-10.24-15,.42-1.64,6.8-1.58,8.66-.38,1.3.84,1.19,4.49,2.13,5.6,2.56,3,6.56,5.05,10.17,6.92,1.7.87,6.22,1.12,7.17,2.68,1.24,2-2.39,7.41-1.69,9.52a26.64,26.64,0,0,0,4.4,7.69A108.23,108.23,0,0,0,331.34,148.6Z" style="fill:#92E3A9;stroke:#263238;stroke-linecap:round;stroke-linejoin:round"></path><path d="M205.45,301.65c-4-3.84-8.73-9.92-9.17-14.76-.51-5.6,10.42-8.14,11-14.4.21-2.26-5.23-8.18-4.79-10.55s6.5-4.77,6.23-7.33c-.54-5.23-6.09-11.12-10.45-13.93-2.35-1.52-9.15.37-11.19-1.6-1-.94.59-4-.4-4.87-1.27-1.12-5.18.54-6.77-.1-1.84-.74-3.78-4.68-5.54-5.26-5.95-2-14.64,2.91-20.48.58,0,.76,0,1.52,0,2.28v.53a5.79,5.79,0,0,1,2.45,2.3,5.92,5.92,0,0,1-1.28,4.88,1.7,1.7,0,0,1-.88.26c.22,3.09.58,6.14,1.06,9.15,3,1.89,6.9,3.15,8.85,5.75,1.19,1.59-1.35,5.25,0,6.8,2.69,3.05,8.75,3.31,11.73,6,7,6.31,8.11,19.07,15.95,26.28,1.37,1.26,4.65,2.47,6,3.77,1.89,1.84,2.67,5.27,4.7,7,3.48,3,9.37,8,12.6,7.72.58-.05-1.64-5-3.5-7C210.18,303.73,206.92,303,205.45,301.65Z" style="fill:#92E3A9;stroke:#263238;stroke-linecap:round;stroke-linejoin:round"></path><path d="M157.89,212.26a4,4,0,0,0,2.88-.12c1.37-1.07.16-4.6,1.3-5.82,4.83-5.18,14.56-4.82,19.09-10.41,1.27-1.57-.67-5.63,1-6.82,5.41-3.73,14,4.08,18.74.65,2.8-2,5.29-9,4-12.15-.24-.59-3.28.82-3.89.38-1.23-.89.82-6.36-.3-6.74-3.23-1.1-8.61,1.75-12,3.6-.93.52-2.57,2.58-3.48,2.87-1.93.61-5.71-.71-4.7-2.1,2.26-3.09,8.11-3.9,11.33-6.38,2.83-2.19,7.82-6.74,7.76-9.07-.09-3.18-13.6.4-17,2.1-2,1-6.3,5.15-8.34,6.14a107.65,107.65,0,0,0-18.16,41C156.66,210.56,157.06,211.91,157.89,212.26Z" style="fill:#92E3A9;stroke:#263238;stroke-linecap:round;stroke-linejoin:round"></path></g><g id="freepik--Lines--inject-341"><line x1="193.95" y1="350.19" x2="207.36" y2="330.31" style="fill:none;stroke:#263238;stroke-linecap:round;stroke-linejoin:round"></line><line x1="129.39" y1="227.07" x2="150.37" y2="227.38" style="fill:none;stroke:#263238;stroke-linecap:round;stroke-linejoin:round"></line><line x1="191.69" y1="113.95" x2="204.63" y2="134.7" style="fill:none;stroke:#263238;stroke-linecap:round;stroke-linejoin:round"></line><line x1="400.6" y1="229.84" x2="374.38" y2="230.16" style="fill:none;stroke:#263238;stroke-linecap:round;stroke-linejoin:round"></line><polyline points="122.94 303.94 144.93 333.93 156.85 350.18" style="fill:none;stroke:#263238;stroke-linecap:round;stroke-linejoin:round"></polyline><line x1="160.71" y1="115.42" x2="109.4" y2="180.51" style="fill:none;stroke:#263238;stroke-linecap:round;stroke-linejoin:round"></line><line x1="334.67" y1="364.17" x2="209.21" y2="369.66" style="fill:none;stroke:#263238;stroke-linecap:round;stroke-linejoin:round"></line><line x1="386.85" y1="336.51" x2="426.78" y2="261.23" style="fill:none;stroke:#263238;stroke-linecap:round;stroke-linejoin:round"></line><line x1="429.89" y1="200.5" x2="428.56" y2="176.1" style="fill:none;stroke:#263238;stroke-linecap:round;stroke-linejoin:round"></line><line x1="341.46" y1="151.53" x2="354.14" y2="142.3" style="fill:none;stroke:#263238;stroke-linecap:round;stroke-linejoin:round"></line><line x1="209" y1="87.54" x2="353.62" y2="90.04" style="fill:none;stroke:#263238;stroke-linecap:round;stroke-linejoin:round"></line></g><g id="freepik--face-3--inject-341"><circle cx="431" cy="230.6" r="27.35" transform="translate(39.36 523.09) rotate(-64.9)" style="fill:#92E3A9"></circle><circle cx="431" cy="230.6" r="27.35" transform="translate(39.36 523.09) rotate(-64.9)" style="fill:#fff;opacity:0.2"></circle><path d="M431.13,258.13a27.31,27.31,0,0,0,7.33-1l-1.53-8.93-12.88.76-.5,8.1A27.49,27.49,0,0,0,431.13,258.13Z" style="fill:#fff"></path><g style="clip-path:url(#freepik--clip-path--inject-341)"><path d="M421.52,248.35c2.34,3.91,5.78,6.38,9.63,6.38s7.29-2.47,9.64-6.38Z" style="fill:#263238;stroke:#263238;stroke-linecap:round;stroke-linejoin:round"></path></g><path d="M431.13,258.13a27.31,27.31,0,0,0,7.33-1l-1.53-8.93-12.88.76-.5,8.1A27.49,27.49,0,0,0,431.13,258.13Z" style="fill:none;stroke:#263238;stroke-linecap:round;stroke-linejoin:round"></path><path d="M446.41,233.85a2.42,2.42,0,0,0-1.72-.13c-.35-9.84-6.46-17.68-14-17.68s-13.61,7.84-14,17.68a2.44,2.44,0,0,0-1.73.13c-1.47.72-1.86,2.91-.89,4.88a4,4,0,0,0,3.52,2.49c2,7,7.09,11.94,13.05,11.94s11-5,13.06-11.94a4,4,0,0,0,3.51-2.49C448.28,236.76,447.88,234.57,446.41,233.85Z" style="fill:#fff;stroke:#263238;stroke-linecap:round;stroke-linejoin:round"></path><path d="M428.82,235.81l-.11.53a14,14,0,0,1-1.93,4.7h0l2.8,1.53" style="fill:none;stroke:#263238;stroke-linecap:round;stroke-linejoin:round"></path><path d="M426.41,246.28a9.52,9.52,0,0,0,7.53,0" style="fill:none;stroke:#263238;stroke-linecap:round;stroke-linejoin:round"></path><path d="M423.52,234.41c0,.74-.28,1.34-.63,1.34s-.64-.6-.64-1.34.28-1.34.64-1.34S423.52,233.67,423.52,234.41Z" style="fill:#263238"></path><path d="M434.18,234.41c0,.74-.29,1.34-.64,1.34s-.64-.6-.64-1.34.29-1.34.64-1.34S434.18,233.67,434.18,234.41Z" style="fill:#263238"></path><path d="M421.64,231.81a4.53,4.53,0,0,1,5.23-2.26" style="fill:none;stroke:#263238;stroke-linecap:round;stroke-linejoin:round"></path><path d="M438.16,231.81a4.53,4.53,0,0,0-5.23-2.26" style="fill:none;stroke:#263238;stroke-linecap:round;stroke-linejoin:round"></path><line x1="419.68" y1="232.2" x2="416.85" y2="232.2" style="fill:#fff;stroke:#263238;stroke-linecap:round;stroke-linejoin:round"></line><rect x="420.27" y="232.2" width="7.87" height="5.07" style="fill:none;stroke:#263238;stroke-linecap:round;stroke-linejoin:round"></rect><rect x="431.6" y="232.2" width="7.87" height="5.07" style="fill:none;stroke:#263238;stroke-linecap:round;stroke-linejoin:round"></rect><line x1="428.15" y1="233.69" x2="431.6" y2="233.69" style="fill:none;stroke:#263238;stroke-linecap:round;stroke-linejoin:round"></line><line x1="444.2" y1="232.2" x2="439.47" y2="232.2" style="fill:#fff;stroke:#263238;stroke-linecap:round;stroke-linejoin:round"></line><path d="M417.76,233.69c1,.09,3.93-6.48,2.8-10.85s9.8-1.05,16.62-1.84,2.36,9.65,6.21,12.13,3-15.19-.7-15.72c0,0-2.76-5.25-13.41-4.81s-12.06,7.18-12.06,7.18S412,233.13,417.76,233.69Z" style="fill:#263238;stroke:#263238;stroke-linecap:round;stroke-linejoin:round"></path></g><g id="freepik--face-2--inject-341"><circle cx="175.33" cy="85.39" r="30.39" style="fill:#92E3A9"></circle><circle cx="175.33" cy="85.39" r="30.39" style="fill:#fff;opacity:0.30000000000000004"></circle><path d="M175,116a30.35,30.35,0,0,0,8.14-1.11L181.4,105l-14.32.85-.55,9A30.43,30.43,0,0,0,175,116Z" style="fill:#fff"></path><g style="clip-path:url(#freepik--clip-path-2--inject-341)"><path d="M164.27,106.29c2.61,4.34,6.43,7.09,10.71,7.09s8.1-2.75,10.7-7.09Z" style="fill:#263238;stroke:#263238;stroke-linecap:round;stroke-linejoin:round"></path></g><path d="M175,116a30.35,30.35,0,0,0,8.14-1.11L181.4,105l-14.32.85-.55,9A30.43,30.43,0,0,0,175,116Z" style="fill:none;stroke:#263238;stroke-linecap:round;stroke-linejoin:round"></path><path d="M189.17,72.59s13.81,28.29,5.25,34.12c-9.1,6.2-30.91,6.52-37.81-1s.06-25.08,3-28.77a30.09,30.09,0,0,1,7.53-6.32l9.47-2,9.66,3.5Z" style="fill:#263238;stroke:#263238;stroke-linecap:round;stroke-linejoin:round"></path><path d="M192.45,89a2.75,2.75,0,0,0-1.92-.15c-.38-10.93-7.18-19.65-15.5-19.65s-15.12,8.72-15.51,19.65a2.75,2.75,0,0,0-1.92.15c-1.62.8-2.07,3.23-1,5.42a4.46,4.46,0,0,0,3.91,2.76c2.23,7.76,7.88,13.28,14.51,13.28s12.27-5.52,14.5-13.28a4.46,4.46,0,0,0,3.91-2.76C194.52,92.24,194.08,89.81,192.45,89Z" style="fill:#fff;stroke:#263238;stroke-linecap:round;stroke-linejoin:round"></path><polyline points="172.9 91.19 170.63 97 173.75 98.7" style="fill:none;stroke:#263238;stroke-linecap:round;stroke-linejoin:round"></polyline><path d="M170.63,102.81a10.52,10.52,0,0,0,8.37,0" style="fill:none;stroke:#263238;stroke-linecap:round;stroke-linejoin:round"></path><path d="M164,85.87a5,5,0,0,1,6.29-.78" style="fill:none;stroke:#263238;stroke-linecap:round;stroke-linejoin:round"></path><path d="M182.86,86a5,5,0,0,0-6.26-1" style="fill:none;stroke:#263238;stroke-linecap:round;stroke-linejoin:round"></path><path d="M167.13,92.81h0a4.38,4.38,0,0,1-4.38-4.37V87.17h7.49a1.27,1.27,0,0,1,1.26,1.27h0A4.37,4.37,0,0,1,167.13,92.81Z" style="fill:#263238;stroke:#263238;stroke-linecap:round;stroke-linejoin:round"></path><path d="M179.7,92.81h0a4.37,4.37,0,0,1-4.37-4.37h0a1.27,1.27,0,0,1,1.26-1.27h7.49v1.27A4.38,4.38,0,0,1,179.7,92.81Z" style="fill:#263238;stroke:#263238;stroke-linecap:round;stroke-linejoin:round"></path><line x1="171.5" y1="88.83" x2="175.33" y2="88.83" style="fill:none;stroke:#263238;stroke-linecap:round;stroke-linejoin:round"></line><line x1="162.75" y1="87.17" x2="159.6" y2="87.17" style="fill:#fff;stroke:#263238;stroke-linecap:round;stroke-linejoin:round"></line><line x1="190.42" y1="87.17" x2="184.58" y2="87.17" style="fill:#fff;stroke:#263238;stroke-linecap:round;stroke-linejoin:round"></line><path d="M170.28,74.54s7.15,9.15,13.8,9.77,2.29,14,0,14.39c0,0,6,.22,6.45-9.84,0,0,8.3-13.6-5.76-19.38-10.85-4.46-16.3-.27-16.3-.27s-13.8,3.43-10.21,17.48c0,0,2.43,7.37,5.05,8.25,0,0-3.88-8.35-.09-12.82S170,77.84,170.28,74.54Z" style="fill:#263238;stroke:#263238;stroke-linecap:round;stroke-linejoin:round"></path><path d="M223.82,64.53h5a7.58,7.58,0,0,0,0-15.16l-.42,0a9,9,0,0,0-17.11,0l-.42,0a7.58,7.58,0,1,0,0,15.16h2.08" style="fill:none;stroke:#263238;stroke-linecap:round;stroke-linejoin:round"></path><polygon points="227.68 62.24 218.4 52.96 209.12 62.24 214.66 62.24 214.66 69.75 222.14 69.75 222.14 62.24 227.68 62.24" style="fill:#92E3A9;stroke:#263238;stroke-linecap:round;stroke-linejoin:round"></polygon></g><g id="freepik--face-1--inject-341"><circle cx="176.61" cy="377.82" r="30.39" style="fill:#92E3A9"></circle><circle cx="176.61" cy="377.82" r="30.39" style="fill:#fff;opacity:0.2"></circle><path d="M176.61,408.21a30.35,30.35,0,0,0,8.14-1.11l-1.69-9.93-14.32.85-.55,9A30.37,30.37,0,0,0,176.61,408.21Z" style="fill:#fff"></path><g style="clip-path:url(#freepik--clip-path-3--inject-341)"><path d="M165.93,398.51c2.6,4.34,6.43,7.09,10.7,7.09s8.11-2.75,10.71-7.09Z" style="fill:#263238;stroke:#263238;stroke-linecap:round;stroke-linejoin:round"></path></g><path d="M176.61,408.21a30.35,30.35,0,0,0,8.14-1.11l-1.69-9.93-14.32.85-.55,9A30.37,30.37,0,0,0,176.61,408.21Z" style="fill:none;stroke:#263238;stroke-linecap:round;stroke-linejoin:round"></path><path d="M194,381.81a2.75,2.75,0,0,0-1.92-.15c-.38-10.93-7.18-19.65-15.5-19.65s-15.13,8.72-15.51,19.65a2.75,2.75,0,0,0-1.92.15c-1.62.8-2.07,3.23-1,5.42A4.46,4.46,0,0,0,162.1,390c2.23,7.76,7.88,13.28,14.51,13.28s12.27-5.52,14.5-13.28a4.46,4.46,0,0,0,3.91-2.76C196.1,385,195.66,382.61,194,381.81Z" style="fill:#fff;stroke:#263238;stroke-linecap:round;stroke-linejoin:round"></path><polyline points="176.28 383.99 178.55 389.8 175.43 391.5" style="fill:none;stroke:#263238;stroke-linecap:round;stroke-linejoin:round"></polyline><path d="M172.21,395.61a10.52,10.52,0,0,0,8.37,0" style="fill:none;stroke:#263238;stroke-linecap:round;stroke-linejoin:round"></path><path d="M171.43,382.64c0,.82-.32,1.49-.71,1.49s-.71-.67-.71-1.49.32-1.49.71-1.49S171.43,381.82,171.43,382.64Z" style="fill:#263238"></path><path d="M183.2,382.64c0,.82-.32,1.49-.71,1.49s-.71-.67-.71-1.49.32-1.49.71-1.49S183.2,381.82,183.2,382.64Z" style="fill:#263238"></path><path d="M167,379.54a5,5,0,0,1,5.81-2.51" style="fill:none;stroke:#263238;stroke-linecap:round;stroke-linejoin:round"></path><path d="M185.36,379.54a5,5,0,0,0-5.81-2.51" style="fill:none;stroke:#263238;stroke-linecap:round;stroke-linejoin:round"></path><path d="M159.59,379.54s2.41,4.87,3.69,4.45-.57-9.44,2.55-11.74,13.9.68,18.36-3.15c0,0-.07,5.28,2.91,7.75s1.84,7.42,3.26,7.14,1.84-3.88,2.12-5.4c.86-4.56,2.13-17.43-5.52-17.43,0,0-1.85-2.69-13-2.41s-11.41-2.83-11.41-2.83S154.06,367.72,159.59,379.54Z" style="fill:#263238;stroke:#263238;stroke-linecap:round;stroke-linejoin:round"></path></g><g id="freepik--character-3--inject-341"><path d="M378.35,163.57l54,6.71c12.72,1.58,24.15-7.61,24.91-20l4.61-75.84c.75-12.39-9.46-22.81-22.27-22.72l-59.76.46c-12.3.1-22.16,9.89-22,21.81L359,142.64A21.71,21.71,0,0,0,378.35,163.57Z" style="fill:#92E3A9"></path><path d="M378.35,163.57l54,6.71c12.72,1.58,24.15-7.61,24.91-20l4.61-75.84c.75-12.39-9.46-22.81-22.27-22.72l-59.76.46c-12.3.1-22.16,9.89-22,21.81L359,142.64A21.71,21.71,0,0,0,378.35,163.57Z" style="fill:#fff;opacity:0.30000000000000004"></path><path d="M453.44,135.42v3.89H397.59v-3.89a7.22,7.22,0,0,1,7.21-7.22h41.42A7.22,7.22,0,0,1,453.44,135.42Z" style="fill:none;stroke:#263238;stroke-miterlimit:10"></path><polyline points="454.82 158.83 454.82 139.31 396.19 139.31 396.19 165.79" style="fill:none;stroke:#263238;stroke-miterlimit:10"></polyline><path d="M386.35,93.07s2.3-6.14,8.08-5.16,1.36,5.81-1.42,6.24C393,94.15,392.59,92.46,386.35,93.07Z" style="fill:#fff;stroke:#263238;stroke-linecap:round;stroke-linejoin:round"></path><path d="M382.52,96.55c-.76.76-2.59.82-1.36-.83a8.79,8.79,0,0,1,3.94-2.91c2.74-1.22,3.81-1,6.29-1.52s2.94.47,3.8.94c2.05,1.12,2.54,1.31,3.05,2.44s1.08,2.59-.51,2.59-1.55-2.4-3-2.31-2.11,2.31-3.1,2.31h-.37c-.85,0-.89-.7-.38-1.81s1.08-2.1,1.08-2.1a4.36,4.36,0,0,0-1.9,2c-.68,1.44-.8,2-2,2s-1.16-.92.08-3a4.78,4.78,0,0,0-1.73,1.76c-.6,1.15-.92,1.07-1.72,1.07-1,0-1-1.72.88-2.85C385.57,94.41,385.16,93.91,382.52,96.55Z" style="fill:#fff;stroke:#263238;stroke-linecap:round;stroke-linejoin:round"></path><path d="M389.76,92.43s-.73,0-1.18,1.19" style="fill:#fff;stroke:#263238;stroke-linecap:round;stroke-linejoin:round"></path><polygon points="404.36 172.3 408.36 179.29 411.78 179.29 413.28 177.17 409.58 168.17 404.36 172.3" style="fill:#fff;stroke:#263238;stroke-linecap:round;stroke-linejoin:round"></polygon><path d="M413.84,111.78l-4.13,1.55s-29.42,8.52-30.71,15.74S404.92,174,404.92,174s3.28.48,5.83-3.87c0,0-9.6-28.91-14-34.58,0,0,32.28-5.68,33.83-9.81s-2.75-14.36-2.75-14.36Z" style="fill:#263238;stroke:#263238;stroke-linecap:round;stroke-linejoin:round"></path><path d="M406.18,179.15a.86.86,0,0,1,.7-.44,8,8,0,0,0,6.17-3.57.86.86,0,0,1,1.12-.26,10.81,10.81,0,0,1,3.73,3.66,2.43,2.43,0,0,1-.67,3.29l-12.76,8.58a4.1,4.1,0,0,1-2.3.7H399a1.11,1.11,0,0,1-1.05-1.48,2.42,2.42,0,0,1,1.7-1.59C401.75,187.53,405.76,180,406.18,179.15Z" style="fill:#263238"></path><g style="clip-path:url(#freepik--clip-path-4--inject-341)"><path d="M406.18,179.15a.86.86,0,0,1,.7-.44,8,8,0,0,0,6.17-3.57.86.86,0,0,1,1.12-.26,10.81,10.81,0,0,1,3.73,3.66,2.43,2.43,0,0,1-.67,3.29l-12.76,8.58a4.1,4.1,0,0,1-2.3.7H399a1.11,1.11,0,0,1-1.05-1.48,2.42,2.42,0,0,1,1.7-1.59C401.75,187.53,405.76,180,406.18,179.15Z" style="fill:#bfbfbf;stroke:#263238;stroke-linecap:round;stroke-linejoin:round"></path></g><path d="M406.18,179.15a.86.86,0,0,1,.7-.44,8,8,0,0,0,6.17-3.57.86.86,0,0,1,1.12-.26,10.81,10.81,0,0,1,3.73,3.66,2.43,2.43,0,0,1-.67,3.29l-12.76,8.58a4.1,4.1,0,0,1-2.3.7H399a1.11,1.11,0,0,1-1.05-1.48,2.42,2.42,0,0,1,1.7-1.59C401.75,187.53,405.76,180,406.18,179.15Z" style="fill:none;stroke:#263238;stroke-linecap:round;stroke-linejoin:round"></path><path d="M390.49,132s1.83.13,4.91,2.45" style="fill:none;stroke:#7f7f7f;stroke-linecap:round;stroke-linejoin:round"></path><polygon points="402.62 174 401.26 184.17 407.31 185.21 410.42 175.21 402.62 174" style="fill:#fff;stroke:#263238;stroke-linecap:round;stroke-linejoin:round"></polygon><path d="M423.52,114.5c.37,1.4-.27,6-1.56,6.65-5,2.65-13.26,9.69-15.09,17.22-2.32,9.54-4.9,38.71-4.9,38.71s2.07,3.35,7.49,1.8c0,0,10.06-24.26,10.83-36.13A94.84,94.84,0,0,1,436.82,134c4.88-1.84,7.54-4.9,8.51-7.52,2.58-7-2.58-18.32-2.58-18.32L423.65,112Z" style="fill:#263238;stroke:#263238;stroke-linecap:round;stroke-linejoin:round"></path><path d="M415.6,139.66a6,6,0,0,1,3.53,1.67" style="fill:none;stroke:#7f7f7f;stroke-linecap:round;stroke-linejoin:round"></path><path d="M401,181.66a.83.83,0,0,0-.81-.16c-1.73.59-8.1,2.64-11.78,2.47-2.68-.13-3.52,1.39-3.77,2.55a1.2,1.2,0,0,0,1,1.43l20.69,3.13a2.42,2.42,0,0,0,2.75-1.91,10.8,10.8,0,0,0-.16-5.24.85.85,0,0,0-1-.57A8,8,0,0,1,401,181.66Z" style="fill:#263238"></path><g style="clip-path:url(#freepik--clip-path-5--inject-341)"><path d="M401,181.66a.83.83,0,0,0-.81-.16c-1.73.59-8.1,2.64-11.78,2.47-2.68-.13-3.52,1.39-3.77,2.55a1.2,1.2,0,0,0,1,1.43l20.69,3.13a2.42,2.42,0,0,0,2.75-1.91,10.8,10.8,0,0,0-.16-5.24.85.85,0,0,0-1-.57A8,8,0,0,1,401,181.66Z" style="fill:#bfbfbf;stroke:#263238;stroke-linecap:round;stroke-linejoin:round"></path></g><path d="M401,181.66a.83.83,0,0,0-.81-.16c-1.73.59-8.1,2.64-11.78,2.47-2.68-.13-3.52,1.39-3.77,2.55a1.2,1.2,0,0,0,1,1.43l20.69,3.13a2.42,2.42,0,0,0,2.75-1.91,10.8,10.8,0,0,0-.16-5.24.85.85,0,0,0-1-.57A8,8,0,0,1,401,181.66Z" style="fill:none;stroke:#263238;stroke-linecap:round;stroke-linejoin:round"></path><path d="M410.76,131.22a24.91,24.91,0,0,1,14.89-10.17" style="fill:none;stroke:#7f7f7f;stroke-linecap:round;stroke-linejoin:round"></path><path d="M445.59,112.3c-15.75,4.39-35.88,1-35.88,1a30.84,30.84,0,0,0-.23-8.78H428a5,5,0,0,0,3.56-1.47A5,5,0,0,0,433,99.53H408.55c-.66-3-1.56-6.42-2.71-10.2a58,58,0,0,1-2-10.87l-6.3,11.38s-.8,2.77-4.83,2.85-3.57-1.38-.08-12.75A53.72,53.72,0,0,1,402.78,62a1.35,1.35,0,0,1,.72-.44c0-.09,0-.14,0-.14C429.32,54.75,440.43,63,440.43,63,433.2,84,445.59,112.3,445.59,112.3Z" style="fill:#92E3A9;stroke:#263238;stroke-linecap:round;stroke-linejoin:round"></path><path d="M409.52,94.52s-3.42,2.07-2.43,2.55c1.66.81,5.27-1.74,5.27-1.74s3.93-.26,1.93-1.16l-2-.9Z" style="fill:#fff"></path><g style="clip-path:url(#freepik--clip-path-6--inject-341)"><path d="M409.52,94.52s-3.42,2.07-2.43,2.55c1.66.81,5.27-1.74,5.27-1.74s3.93-.26,1.93-1.16l-2-.9Z" style="opacity:0.2"></path></g><path d="M409.52,94.52s-3.42,2.07-2.43,2.55c1.66.81,5.27-1.74,5.27-1.74s3.93-.26,1.93-1.16l-2-.9Z" style="fill:none;stroke:#263238;stroke-linecap:round;stroke-linejoin:round"></path><path d="M414,63.52s2,9.1,4.5,9.1,7.71-13.69,7.71-13.69l-3.46-2.37Z" style="fill:#fff"></path><g style="clip-path:url(#freepik--clip-path-7--inject-341)"><path d="M408.43,55.75a14.2,14.2,0,0,0,1.1,3.29c1.71,3.26,4.13,8.55,7.34,7.72,2.84-.73,7.05-5,7.51-7.56a31.88,31.88,0,0,0,.46-4.38Z" style="fill:#263238;stroke:#263238;stroke-linecap:round;stroke-linejoin:round"></path></g><path d="M414,63.52s2,9.1,4.5,9.1,7.71-13.69,7.71-13.69l-3.46-2.37Z" style="fill:none;stroke:#263238;stroke-linecap:round;stroke-linejoin:round"></path><path d="M409.26,36.81s-7.16,2-5.89,13.16c1.32,11.64,3,7.12,2.26,9.51s10.58,2.59,10.58,2.59,9.89-1.22,12.89.94,4.74-3,3.58-6.45-5.32-9.89-6.51-15.1C424.46,34,413.71,34.2,409.26,36.81Z" style="fill:#263238;stroke:#263238;stroke-linecap:round;stroke-linejoin:round"></path><path d="M407.09,46.23s0,8.26,1.66,11.62S412.6,66.62,416,66c3-.57,7.75-4.56,8.39-7.11a28.66,28.66,0,0,0,.77-4.63c.37-.16,1.53.73,2.06-2.19.2-1.06,1.21-4.19-1.09-4.65-2.49-.48-2.47,3.1-2.47,3.1L420,41.2l-8.46-1.42-2.83,1.29Z" style="fill:#fff;stroke:#263238;stroke-linecap:round;stroke-linejoin:round"></path><path d="M412.43,54.27a16.39,16.39,0,0,1-.7,3.14.68.68,0,0,0,.45.83l1.73.51" style="fill:none;stroke:#263238;stroke-linecap:round;stroke-linejoin:round"></path><path d="M415.26,60.49s3.2-.09,4.5-1.88" style="fill:none;stroke:#263238;stroke-linecap:round;stroke-linejoin:round"></path><path d="M408.61,51.7a1.36,1.36,0,0,1,1.81-.67" style="fill:none;stroke:#263238;stroke-linecap:round;stroke-linejoin:round"></path><path d="M414.2,50.45s1.59-1.14,3.72.45" style="fill:none;stroke:#263238;stroke-linecap:round;stroke-linejoin:round"></path><path d="M410.35,54.22c.06.44-.06.84-.29.87s-.46-.31-.53-.76.07-.84.29-.87S410.28,53.77,410.35,54.22Z" style="fill:#263238"></path><path d="M416.09,53.88c.07.45-.06.84-.28.87s-.47-.31-.53-.75.06-.85.29-.88S416,53.43,416.09,53.88Z" style="fill:#263238"></path><path d="M406.55,41.2s-2.77,7.29,1.29,7.1,7.51-2.8,11.55-.65-.64-4-.64-4,4.13,4.39,4,7.42,1.48-1.87,1.22-3.48S421,38,421,38l-4.38-1-7.5.77Z" style="fill:#263238;stroke:#263238;stroke-linecap:round;stroke-linejoin:round"></path><path d="M424.7,57.69c-.27,1.17-4.5,5.35-1.7,6.22s8.9,0,9.82-3.11-2-4.75-2-4.75S425.05,56.13,424.7,57.69Z" style="fill:#263238;stroke:#263238;stroke-linecap:round;stroke-linejoin:round"></path><path d="M425.33,91.71l-9.29.46s-7.81-1.91-10.46-1.75a18.36,18.36,0,0,0-5.93,1.75,5.58,5.58,0,0,0-1.87,2.45,4.57,4.57,0,0,0,0,1.45,1,1,0,0,0,.93,1c1.78.13,4.73.29,5.43-.59,0,0-.58.69.47.69s2.48-1.66,2.48-1.66l3.14-.13s1.35,1.68,5.42,1.79a8.77,8.77,0,0,0,1.93-.51l7.55,1,1-1.29V92Z" style="fill:#fff;stroke:#263238;stroke-linecap:round;stroke-linejoin:round"></path><path d="M399.2,96.36s.87-3.12,1.87-3.74a26,26,0,0,1,2.71-1.16" style="fill:none;stroke:#263238;stroke-linecap:round;stroke-linejoin:round"></path><path d="M401.36,96.36a7.24,7.24,0,0,1,.64-2.12,7.76,7.76,0,0,1,3-2.07,11.07,11.07,0,0,1,2.11,0" style="fill:none;stroke:#263238;stroke-linecap:round;stroke-linejoin:round"></path><path d="M404.35,95.78s.28-1.33.63-1.61a6.09,6.09,0,0,1,2.11-.77,11.1,11.1,0,0,1,1.66,0" style="fill:none;stroke:#263238;stroke-linecap:round;stroke-linejoin:round"></path><path d="M423.7,97.78s17.89,2.33,21.76,2.52,2.9-18.78,2.51-26.91-8.33-10.88-8.33-10.88c-5.62,11.68.78,26.95.78,26.95L424.55,91.4S425.76,95.46,423.7,97.78Z" style="fill:#92E3A9;stroke:#263238;stroke-linecap:round;stroke-linejoin:round"></path><path d="M432.86,70.1A18.82,18.82,0,0,0,437.09,81" style="fill:none;stroke:#263238;stroke-linecap:round;stroke-linejoin:round"></path><path d="M405.41,68.18a60.8,60.8,0,0,0-1.21,11.25" style="fill:none;stroke:#263238;stroke-linecap:round;stroke-linejoin:round"></path><path d="M393.65,73.59h-4l5.51,25.94h4a1.68,1.68,0,0,0,1.68-2.14l-4.61-21.67A2.78,2.78,0,0,0,393.65,73.59Z" style="fill:#263238"></path><g style="clip-path:url(#freepik--clip-path-8--inject-341)"><path d="M393.65,73.59h-4l5.51,25.94h4a1.68,1.68,0,0,0,1.68-2.14l-4.61-21.67A2.78,2.78,0,0,0,393.65,73.59Z" style="fill:#fff;opacity:0.2"></path></g><path d="M393.65,73.59h-4l5.51,25.94h4a1.68,1.68,0,0,0,1.68-2.14l-4.61-21.67A2.78,2.78,0,0,0,393.65,73.59Z" style="fill:none;stroke:#263238;stroke-linecap:round;stroke-linejoin:round"></path><path d="M400.85,97.39h21a0,0,0,0,1,0,0v1a1.18,1.18,0,0,1-1.18,1.18H402a1.18,1.18,0,0,1-1.18-1.18v-1A0,0,0,0,1,400.85,97.39Z" style="fill:#263238"></path><g style="clip-path:url(#freepik--clip-path-9--inject-341)"><path d="M400.85,97.39h21a0,0,0,0,1,0,0v1a1.18,1.18,0,0,1-1.18,1.18H402a1.18,1.18,0,0,1-1.18-1.18v-1A0,0,0,0,1,400.85,97.39Z" style="fill:#fff;opacity:0.2"></path></g><path d="M400.85,97.39h21a0,0,0,0,1,0,0v1a1.18,1.18,0,0,1-1.18,1.18H402a1.18,1.18,0,0,1-1.18-1.18v-1A0,0,0,0,1,400.85,97.39Z" style="fill:none;stroke:#263238;stroke-linecap:round;stroke-linejoin:round"></path><path d="M397.62,99.53H365.1a2.79,2.79,0,0,1-2.59-2.14l-4.6-21.67a1.67,1.67,0,0,1,1.68-2.13h32.52a2.77,2.77,0,0,1,2.58,2.13l4.61,21.67A1.68,1.68,0,0,1,397.62,99.53Z" style="fill:#263238"></path><g style="clip-path:url(#freepik--clip-path-10--inject-341)"><path d="M397.62,99.53H365.1a2.79,2.79,0,0,1-2.59-2.14l-4.6-21.67a1.67,1.67,0,0,1,1.68-2.13h32.52a2.77,2.77,0,0,1,2.58,2.13l4.61,21.67A1.68,1.68,0,0,1,397.62,99.53Z" style="fill:#bfbfbf;stroke:#263238;stroke-linecap:round;stroke-linejoin:round"></path></g><path d="M397.62,99.53H365.1a2.79,2.79,0,0,1-2.59-2.14l-4.6-21.67a1.67,1.67,0,0,1,1.68-2.13h32.52a2.77,2.77,0,0,1,2.58,2.13l4.61,21.67A1.68,1.68,0,0,1,397.62,99.53Z" style="fill:none;stroke:#263238;stroke-linecap:round;stroke-linejoin:round"></path><path d="M335.91,65.15a5.92,5.92,0,0,1,0-11.83h44.17a5.92,5.92,0,0,1,0,11.83Z" style="fill:#fff"></path><path d="M335.91,65.15a5.92,5.92,0,0,1,0-11.83h44.17a5.92,5.92,0,0,1,0,11.83Z" style="fill:none;stroke:#263238;stroke-miterlimit:10"></path><path d="M362.33,55.34H335.91a3.9,3.9,0,0,0,0,7.79h24.62Z" style="fill:#92E3A9"></path><path d="M361.61,152.33V99.52H433a5,5,0,0,1-1.48,3.56,5,5,0,0,1-3.56,1.47H369v55.63" style="fill:none;stroke:#263238;stroke-linecap:round;stroke-linejoin:round"></path></g><g id="freepik--character-2--inject-341"><path d="M377.09,335.94H344.61a2.82,2.82,0,0,1-2.81-2.71l-2.23-59.92a2.8,2.8,0,0,1,3-2.9l38,2.68A2.81,2.81,0,0,1,383.2,276l-3.3,57.25A2.82,2.82,0,0,1,377.09,335.94Z" style="fill:#92E3A9;stroke:#263238;stroke-linecap:round;stroke-linejoin:round"></path><path d="M354.05,300.18a14.29,14.29,0,0,0,.48-2.48c0-.54-.3-1.74-.76-2s-2.83.17-2.83.17.56-1.85.18-2.27-1.59-.25-2.06,0c-.77.35-1.7,1.89-2.22,2.56-.63.82-1.73,2.57-2.32,3.41-.28.42-1.16,1.66-1.16,1.66l-7.23,2.58.39,7.32,8.15-4.92s7.31,0,8.85-1.65C354.27,303.7,353.88,301.25,354.05,300.18Z" style="fill:#fff;stroke:#263238;stroke-linecap:round;stroke-linejoin:round"></path><path d="M342.29,285.36c-.41,5.8-1.28,11.89-3.05,15.39h3s-2.72,4.87-1,9.47c0,0-8.26,5.55-10.1,2s.29-17.9,2.18-24.8,2.47-17.5,9.21-17" style="fill:#92E3A9;stroke:#263238;stroke-linecap:round;stroke-linejoin:round"></path><path d="M338,301.23a7.15,7.15,0,0,0-3.36,2.71" style="fill:none;stroke:#263238;stroke-linecap:round;stroke-linejoin:round"></path><path d="M354.13,282.39l1.36-.18a1.7,1.7,0,0,1,1.92,1.46l1.53,11.23a1.71,1.71,0,0,1-1.46,1.93l-1.36.18Z" style="fill:#fff;stroke:#263238;stroke-linecap:round;stroke-linejoin:round"></path><rect x="348.84" y="282.6" width="8.43" height="14.76" rx="1.95" transform="translate(742.04 529.64) rotate(172.24)" style="fill:#bfbfbf"></rect><rect x="348.84" y="282.6" width="8.43" height="14.76" rx="1.95" transform="translate(742.04 529.64) rotate(172.24)" style="fill:none;stroke:#263238;stroke-linecap:round;stroke-linejoin:round"></rect><path d="M349.19,284.82a.62.62,0,1,0,1.23-.17.63.63,0,0,0-.7-.53A.62.62,0,0,0,349.19,284.82Z" style="fill:#fff;stroke:#263238;stroke-linecap:round;stroke-linejoin:round"></path><path d="M350.33,295.89a14.42,14.42,0,0,1-.2-2.52c.1-.54.49-1.7,1-1.94s2.8.49,2.8.49-.36-1.91.07-2.28,1.61-.07,2,.19c.73.43,1.48,2.07,1.92,2.79.53.89,1.43,2.74,1.92,3.65.24.45,1,1.77,1,1.77L367.3,301l-3,5.43L359,302.85s-7.27-.83-8.62-2.63C349.72,299.35,350.38,297,350.33,295.89Z" style="fill:#fff;stroke:#263238;stroke-linecap:round;stroke-linejoin:round"></path><path d="M380,276.17c.16-.72.33-1.43.52-2.13a1,1,0,0,1,1.73-.45l.25.27a11.65,11.65,0,0,1,2.77,5c1.76,6.67,5.57,23.43,2.87,35.73a3,3,0,0,1-3.08,2.34c-4.95-.3-13.61-1.54-23.08-10.92,0,0,2-4.69,4.35-6.3L379.43,305a101.84,101.84,0,0,1-.88-14.14" style="fill:#92E3A9;stroke:#263238;stroke-linecap:round;stroke-linejoin:round"></path><path d="M380.56,305.85a4.63,4.63,0,0,1,2.25,2.79" style="fill:none;stroke:#263238;stroke-linecap:round;stroke-linejoin:round"></path><path d="M362.93,262.81l8.51-13.65s4.41-1.83,2.05-4.18c0,0,3.79-6.56-1.13-6.56,0,0-.63-5.33-5.39-3.18,0,0-4.14-4.92-6.91-1.33,0,0-5.68-2.77-7.14.71,0,0-4.15,0-4,3.08,0,0-2.61,3.48.83,3.89,0,0-.91,2.77,3.16,2.77s9.09,5,9.09,5l1,5.12Z" style="fill:#263238;stroke:#263238;stroke-linecap:round;stroke-linejoin:round"></path><path d="M368.47,272.41s-9.25,5.08-16-1.43c0,0,1.7-3.2,2.29-11.15l9.81-1.75a28.83,28.83,0,0,0,.3,8.11C365.52,269.22,367.29,272,368.47,272.41Z" style="fill:#fff"></path><g style="clip-path:url(#freepik--clip-path-11--inject-341)"><path d="M365.27,258.32l-.28,1a4.82,4.82,0,0,1-.82,1.65c-1.5,2-5.71,7-9.82,6.55-3.81-.38-4.87-6.26-5.15-9.21Z" style="fill:#263238;stroke:#263238;stroke-linecap:round;stroke-linejoin:round"></path></g><path d="M368.47,272.41s-9.25,5.08-16-1.43c0,0,1.7-3.2,2.29-11.15l9.81-1.75a28.83,28.83,0,0,0,.3,8.11C365.52,269.22,367.29,272,368.47,272.41Z" style="fill:none;stroke:#263238;stroke-linecap:round;stroke-linejoin:round"></path><path d="M350.55,242.92,349,247.86a3.55,3.55,0,0,0-.14,1.62l.22,1.46-.81,3.25a4.54,4.54,0,0,0-.09.51c-.17,1.71-.83,10.83,4,12,4.27,1,9.47-3.6,11.35-5.47a5.11,5.11,0,0,0,1.1-1.62l1.08-2.46a3,3,0,0,0,3.1-1.58c1-2,2.3-3.13.37-4.51s-3.15,1.42-3.15,1.42.06-3.52-.4-4.58-2.05-2.29-2.46-3.21a11.82,11.82,0,0,1-.4-2.18s-6.6.18-11.29-1.61Z" style="fill:#fff;stroke:#263238;stroke-linecap:round;stroke-linejoin:round"></path><path d="M350.55,242.92,349,247.86a3.55,3.55,0,0,0-.14,1.62l.22,1.46-.81,3.25a4.54,4.54,0,0,0-.09.51c-.17,1.71-.83,10.83,4,12,4.27,1,9.47-3.6,11.35-5.47a5.11,5.11,0,0,0,1.1-1.62l1.08-2.46a3,3,0,0,0,3.1-1.58c1-2,2.3-3.13.37-4.51s-3.15,1.42-3.15,1.42.06-3.52-.4-4.58-2.05-2.29-2.46-3.21a11.82,11.82,0,0,1-.4-2.18s-6.6.18-11.29-1.61Z" style="fill:#fff;stroke:#263238;stroke-linecap:round;stroke-linejoin:round"></path><path d="M353.62,252.68l-2.42,3.89a1,1,0,0,0,.59,1.42l2.13.5" style="fill:none;stroke:#263238;stroke-linecap:round;stroke-linejoin:round"></path><path d="M357.14,260.72c-1.48,1.18-3.36,1.35-4.27.52" style="fill:none;stroke:#263238;stroke-linecap:round;stroke-linejoin:round"></path><path d="M356.88,254c-.09.58-.39,1-.67,1s-.42-.55-.32-1.12.39-1,.67-1S357,253.45,356.88,254Z" style="fill:#263238"></path><path d="M351.49,253.13c-.1.58-.4,1-.67,1s-.42-.55-.33-1.12.4-1,.67-1S351.58,252.56,351.49,253.13Z" style="fill:#263238"></path><path d="M349.23,249.64a1.71,1.71,0,0,1,2.47-1" style="fill:none;stroke:#263238;stroke-linecap:round;stroke-linejoin:round"></path><path d="M355.72,249a3.09,3.09,0,0,1,2.85,2" style="fill:none;stroke:#263238;stroke-linecap:round;stroke-linejoin:round"></path><path d="M364.74,242.43s-5.41,3.94-6.05,1.09c0,0-4.5,1.08-4.8-.43,0,0-4.5,1.8-5,.4s3.59-5.12,3.59-5.12l9.51,1.21Z" style="fill:#263238;stroke:#263238;stroke-linecap:round;stroke-linejoin:round"></path><path d="M353.69,237.58a15.61,15.61,0,0,1-2.26,3.33" style="fill:none;stroke:#7f7f7f;stroke-linecap:round;stroke-linejoin:round"></path><path d="M356.54,236.29a3.08,3.08,0,0,0-2.24.56" style="fill:none;stroke:#7f7f7f;stroke-linecap:round;stroke-linejoin:round"></path><path d="M367.55,239.6c-2.63-.25-3,2-7.07,1.87-3.84-.16-2.06-3.13-2.67-4.5" style="fill:none;stroke:#7f7f7f;stroke-linecap:round;stroke-linejoin:round"></path><path d="M369.44,248.41s4.53-6.57,0-8.32" style="fill:none;stroke:#7f7f7f;stroke-linecap:round;stroke-linejoin:round"></path><path d="M336.72,455.43a6.73,6.73,0,0,0-4.17,3.87,1,1,0,0,0,1,1.41h14.71a1.17,1.17,0,0,0,1.17-1,10.62,10.62,0,0,0-.72-5.44l.81-9.06h-8.59l-.66,8.67Z" style="fill:#fff;stroke:#263238;stroke-linecap:round;stroke-linejoin:round"></path><path d="M346.09,455.34c1.54,2.15,1.16-1.07,2.58-1.07a10.62,10.62,0,0,1,.72,5.44,1.17,1.17,0,0,1-1.17,1H333.51a1,1,0,0,1-1-1.41,6.73,6.73,0,0,1,4.17-3.87l3.51-1.55S344.56,453.19,346.09,455.34Z" style="fill:#bfbfbf;stroke:#263238;stroke-linecap:round;stroke-linejoin:round"></path><path d="M349.43,459.4c0,.11,0,.22,0,.31a1.17,1.17,0,0,1-1.17,1H333.51a1,1,0,0,1-1-1.29c1,0,1.7,0,1.7,0Z" style="fill:#fff;stroke:#263238;stroke-linecap:round;stroke-linejoin:round"></path><path d="M342.77,334.67l-3,116h10.6s3.28-29,3.66-38.76c.17-4.36,1.06-12,1.36-16.4.53-7.89,1.76-16.68,4.79-32,.49-2.47,3.46-6.74,4.09-9.19,1.23-4.77,1.75-19.68,1.75-19.68Z" style="fill:#263238;stroke:#263238;stroke-linecap:round;stroke-linejoin:round"></path><path d="M350.12,403.5s-2.42,3.2-5.78,2.77" style="fill:none;stroke:#7f7f7f;stroke-linecap:round;stroke-linejoin:round"></path><path d="M341.51,400.45s3.83,2.28,9.53,0" style="fill:none;stroke:#7f7f7f;stroke-linecap:round;stroke-linejoin:round"></path><path d="M388.4,455.43c1.37.6,3.48,1.49,4.28,4.18a.88.88,0,0,1-.85,1.1H377.12a1.43,1.43,0,0,1-1.42-1.26,10.77,10.77,0,0,1,.76-5.18l-.82-9.06h8.6l.65,8.67Z" style="fill:#fff;stroke:#263238;stroke-linecap:round;stroke-linejoin:round"></path><path d="M392.68,459.61a.88.88,0,0,1-.85,1.1H377.12a1.43,1.43,0,0,1-1.42-1.26,10.77,10.77,0,0,1,.76-5.18c1.38-.23.49,2.76,2.76.92s5.67-1.31,5.67-1.31l3.51,1.55C389.77,456,391.88,456.92,392.68,459.61Z" style="fill:#bfbfbf;stroke:#263238;stroke-linecap:round;stroke-linejoin:round"></path><path d="M392.6,459.4c0,.08.06.14.08.21a.88.88,0,0,1-.85,1.1H377.12a1.43,1.43,0,0,1-1.42-1.26v-.05Z" style="fill:#fff;stroke:#263238;stroke-linecap:round;stroke-linejoin:round"></path><path d="M378.88,334.69s1.5,11.53,1.72,15.4c.12,2.29-.08,6.89,0,9.18.28,8.82,1.38,26.45,2.25,35.22.45,4.62,2.16,13.77,2.47,18.4.64,9.43,0,37.82,0,37.82H374.67s-4.32-32-5.44-42.74c-.4-3.81-4.82-41.67-7.83-49.92-.57-1.58-1.87-4.23-2.41-5.82A60,60,0,0,1,356.65,342c-.16-1.82-.27-7.29-.27-7.29Z" style="fill:#263238;stroke:#263238;stroke-linecap:round;stroke-linejoin:round"></path><path d="M380.84,399.16s-2,3.63-9,3.63" style="fill:none;stroke:#7f7f7f;stroke-linecap:round;stroke-linejoin:round"></path><path d="M361.2,358.81c-.57-1.51-1.87-4-2.41-5.55-.83-2.33-2.14-11.29-2.41-18.58" style="fill:none;stroke:#7f7f7f;stroke-linecap:round;stroke-linejoin:round"></path><path d="M370.76,410.68a79.89,79.89,0,0,0,11.65,28.23" style="fill:none;stroke:#7f7f7f;stroke-linecap:round;stroke-linejoin:round"></path><path d="M340.76,409.25a74.77,74.77,0,0,0,7.17,26.95" style="fill:none;stroke:#7f7f7f;stroke-linecap:round;stroke-linejoin:round"></path><path d="M369.42,259.53H396.6c2.13,0,3.86,2.47,3.86,5.52v9.19c0,3-1.73,5.51-3.86,5.51H374.92l-8.75,5.82,3.25-5.82h0c-2.13,0-3.85-2.47-3.85-5.51v-9.19C365.57,262,367.29,259.53,369.42,259.53Z" style="fill:#fff;stroke:#263238;stroke-linecap:round;stroke-linejoin:round"></path><line x1="394.33" y1="265.17" x2="371.34" y2="265.17" style="fill:none;stroke:#263238;stroke-linecap:round;stroke-linejoin:round"></line><line x1="394.33" y1="269.25" x2="373.11" y2="269.25" style="fill:none;stroke:#263238;stroke-linecap:round;stroke-linejoin:round"></line><line x1="394.33" y1="273.34" x2="371.34" y2="273.34" style="fill:none;stroke:#263238;stroke-linecap:round;stroke-linejoin:round"></line></g><g id="freepik--character-1--inject-341"><path d="M105.8,297.29,51.92,304.2a20.3,20.3,0,0,1-22.85-18.95l-5.26-89.16a20.29,20.29,0,0,1,23.1-21.3l62.54,8.82a20.31,20.31,0,0,1,17.45,21l-3.4,73.44A20.3,20.3,0,0,1,105.8,297.29Z" style="fill:#92E3A9"></path><path d="M123.5,278.09a20.3,20.3,0,0,1-17.7,19.2L51.92,304.2a20.3,20.3,0,0,1-22.85-18.95l-5.26-89.16a20.29,20.29,0,0,1,23.1-21.3l62.54,8.82a20.31,20.31,0,0,1,17.45,21Z" style="fill:#fff;opacity:0.30000000000000004"></path><path d="M43.37,207.79H68.44a4.86,4.86,0,0,1,4.45,4.37l5.91,53.29a8.4,8.4,0,0,0,8.36,7.49" style="fill:none;stroke:#263238;stroke-linecap:round;stroke-linejoin:round"></path><path d="M111.5,279.65v4.91H52a8.41,8.41,0,0,1-8.38-7.74l-5.17-63.95a4.72,4.72,0,0,1,4.93-5.08,4.85,4.85,0,0,1,4.44,4.37l5.91,53.29a8.42,8.42,0,0,0,8.38,7.49h42.69A6.71,6.71,0,0,1,111.5,279.65Z" style="fill:none;stroke:#263238;stroke-linecap:round;stroke-linejoin:round"></path><g style="clip-path:url(#freepik--clip-path-12--inject-341)"><path d="M98.55,331.83H83.35v-49H75.51v49H60.31a4.75,4.75,0,0,0-4.75,4.75H103.3A4.74,4.74,0,0,0,98.55,331.83Z" style="fill:none;stroke:#263238;stroke-linecap:round;stroke-linejoin:round"></path></g><polyline points="83.35 300.18 83.35 284.56 75.51 284.56 75.51 301.17" style="fill:none;stroke:#263238;stroke-linecap:round;stroke-linejoin:round"></polyline><polygon points="110.94 318.17 111.7 328.98 119.87 328.74 119.42 317.07 110.94 318.17" style="fill:#fff;stroke:#263238;stroke-linecap:round;stroke-linejoin:round"></polygon><path d="M111.1,333s13.13.53,17.46,0c1.35-.16,4.5-.19,5.27-1.31.38-.54-.3-2.61-.3-2.61L126.68,327l-4.73-2.6a2,2,0,0,0-2.32.27l-.54.49a2,2,0,0,0-.65,1.61V327l-.78-.54a2,2,0,0,0-1.15-.36h-5.65a9.34,9.34,0,0,0-1.34,5.41A1.56,1.56,0,0,0,111.1,333Z" style="fill:#263238;stroke:#263238;stroke-linecap:round;stroke-linejoin:round"></path><polygon points="84.56 305.71 79.14 314.65 85.72 319.49 91.93 310.07 84.56 305.71" style="fill:#fff;stroke:#263238;stroke-linecap:round;stroke-linejoin:round"></polygon><path d="M107.31,266s-8.94,4.16-25.39,42.6a11.82,11.82,0,0,0,8.36,5.54s39.32-48.46,34.3-57c-4.71-8-48.47-5-48.47-5l.57,19.2S103,270,107.31,266Z" style="fill:#92E3A9;stroke:#263238;stroke-linecap:round;stroke-linejoin:round"></path><path d="M87.27,162.51s-7.86-5.91-15.55-.79-12.56,17.22-8.45,22a12.47,12.47,0,0,0,10,4.21s7.79,6,11,5,8.65-9.34,8.89-16.81S95.82,163.14,87.27,162.51Z" style="fill:#263238;stroke:#263238;stroke-linecap:round;stroke-linejoin:round"></path><path d="M79.45,189s-2.18,3-2.07,5.56L67.12,191s4.29-6.23,5.31-12.33S79.45,189,79.45,189Z" style="fill:#fff"></path><g style="clip-path:url(#freepik--clip-path-13--inject-341)"><path d="M72.2,181.44c.16,3.09,1,4.4,3.57,7,3,3,4.93,5.42,9.28,0,2.88-3.6,3.77-5.89,4-7Z" style="fill:#263238;stroke:#263238;stroke-linecap:round;stroke-linejoin:round"></path></g><path d="M79.45,189s-2.18,3-2.07,5.56L67.12,191s4.29-6.23,5.31-12.33S79.45,189,79.45,189Z" style="fill:none;stroke:#263238;stroke-linecap:round;stroke-linejoin:round"></path><path d="M56.92,253.32s-7.6,16.59,5.21,19.35S102,269.41,102,269.41s2.2,21.42,8.44,52.52a29.31,29.31,0,0,0,10.14-.81s-.39-57.9-5.61-65S70.67,249.57,56.92,253.32Z" style="fill:#92E3A9;stroke:#263238;stroke-linecap:round;stroke-linejoin:round"></path><path d="M55,253.34s1.89,2.12,14.43-2.12l15.8-.61s5.9-26.72,4-36.67a143.36,143.36,0,0,0-4.24-17.09,59.12,59.12,0,0,0-26.25-3.59,1.83,1.83,0,0,0-1.64,2C57.88,202.7,60.19,227,55,253.34Z" style="fill:#263238;stroke:#263238;stroke-linecap:round;stroke-linejoin:round"></path><path d="M85.07,196.85s6.56,1.46,6.56,9.28-.76,20.52-.76,20.52l8.48,11.49s-3.63,2-4.18,5.39c0,0-12.68-10.43-13.4-14S85.07,196.85,85.07,196.85Z" style="fill:#263238;stroke:#263238;stroke-linecap:round;stroke-linejoin:round"></path><path d="M86.43,224.66l.63,2.33-1.75-1.66-5.24-8.82a.66.66,0,0,1,.23-.9h0a.66.66,0,0,1,.9.23Z" style="fill:#fff;stroke:#263238;stroke-linecap:round;stroke-linejoin:round"></path><path d="M72.76,226.11a19.62,19.62,0,0,0,4.08-3.79c1.65-2.16,2.2-3.43,3.5-3s6,1.68,5.3,3.18a2.67,2.67,0,0,1-.59,1.77,4.92,4.92,0,0,1-1.4,1.73c-.93.68-1.23.39-1.23.39s-.65.54-1.07.4c0,0-1,1.75-4.35,2.42l-9,3.84-.92-5.78Z" style="fill:#fff;stroke:#263238;stroke-linecap:round;stroke-linejoin:round"></path><path d="M79.1,221.27a9.52,9.52,0,0,0,1.28,1c.61.38,2.75,1.5,2.68,2.21s-1.53,2.09-2,2-2.15-.72-2.11-1.1a3.32,3.32,0,0,0-.32.94,3.34,3.34,0,0,1-1,2.37" style="fill:none;stroke:#263238;stroke-linecap:round;stroke-linejoin:round"></path><path d="M85.05,224.28a1.6,1.6,0,0,0-.69-.92,20,20,0,0,1-3-2.1" style="fill:none;stroke:#263238;stroke-linecap:round;stroke-linejoin:round"></path><path d="M85.64,222.51a3.78,3.78,0,0,0-.79-.6A22.37,22.37,0,0,0,81.39,220" style="fill:none;stroke:#263238;stroke-linecap:round;stroke-linejoin:round"></path><path d="M79.43,224.94s.71-.25,1,0,.25.6.57.94" style="fill:none;stroke:#263238;stroke-linecap:round;stroke-linejoin:round"></path><path d="M80.4,224.92a3.92,3.92,0,0,1-1.1-1.13" style="fill:none;stroke:#263238;stroke-linecap:round;stroke-linejoin:round"></path><path d="M59.63,216.11c-.13,2.5-1.46,12.68-1.46,12.68a72.41,72.41,0,0,1,13.55-3s-.7,2.68,1.35,6.51c0,0-18.86,7.4-22.74,6.61s-3.25-9.16-1.76-27.75,10.25-17.89,10.25-17.89" style="fill:#263238;stroke:#263238;stroke-linecap:round;stroke-linejoin:round"></path><path d="M72.24,232.29s-7.72,3-14.3,5" style="fill:none;stroke:#7f7f7f;stroke-linecap:round;stroke-linejoin:round"></path><path d="M58.8,216.11c-.13,2.5-1.46,12.68-1.46,12.68a72.23,72.23,0,0,1,13.54-3" style="fill:none;stroke:#7f7f7f;stroke-linecap:round;stroke-linejoin:round"></path><path d="M64.79,193S67,191.65,67,189.86s9.87,3.42,12.13,3.12,1,1.65.76,2.2C79.32,197,77.68,199.25,64.79,193Z" style="fill:#263238;stroke:#263238;stroke-linecap:round;stroke-linejoin:round"></path><path d="M79.88,195.18c-.58,1.68-2.08,3.83-13.19-1.24" style="fill:none;stroke:#7f7f7f;stroke-linecap:round;stroke-linejoin:round"></path><path d="M90.52,173.14l-1,6.21s.17,2.48-4.17,7.9-6.3,3-9.28,0-3.62-4.3-3.6-8.59c0,0-1.53-.22-2.47-3s2.49-3.86,3.36-2.09L78.49,171l3.2-3.85,1.83-2.44,3.75,1.4,4,2.4Z" style="fill:#fff;stroke:#263238;stroke-linecap:round;stroke-linejoin:round"></path><path d="M85.93,179.55s-1.6,1.64-.26,3.22c1.81,2.15-2,1.49-2,2.13" style="fill:none;stroke:#263238;stroke-linecap:round;stroke-linejoin:round"></path><path d="M81.66,185.61s-1.23.31-3.36-1.81" style="fill:none;stroke:#263238;stroke-linecap:round;stroke-linejoin:round"></path><path d="M82.36,179.21c-.23.53-.59.89-.8.8s-.19-.6,0-1.13.59-.89.8-.8S82.59,178.67,82.36,179.21Z" style="fill:#263238"></path><path d="M87.05,181.34c-.2.48-.52.8-.71.72s-.18-.54,0-1,.52-.81.71-.72S87.26,180.86,87.05,181.34Z" style="fill:#263238"></path><path d="M84.91,175.23a2.93,2.93,0,0,0-3.46,0" style="fill:none;stroke:#263238;stroke-linecap:round;stroke-linejoin:round"></path><path d="M88.14,177.06a1.53,1.53,0,0,1,1,1.12" style="fill:none;stroke:#263238;stroke-linecap:round;stroke-linejoin:round"></path><path d="M73.61,171s-2.25,5.72.86,8.2c0,0,2.58-7.37,7.92-8.2s7.53-2.49,7.53-2.49-.64,7.28.82,9.07,1.43-8.38,1.43-8.38l-1.43-3.49L83,162.66l-6.63,3.11Z" style="fill:#263238;stroke:#263238;stroke-linecap:round;stroke-linejoin:round"></path><path d="M72.24,179.62s-1.06,6.36,1.37,7-3.48.76-6.54-.65,4.05-7.14,4.05-7.14Z" style="fill:#263238;stroke:#263238;stroke-linecap:round;stroke-linejoin:round"></path><path d="M86.16,224.3h1.15l-3.82,24.14H82.34a1,1,0,0,1-1-1.2l3.44-21.74A1.47,1.47,0,0,1,86.16,224.3Z" style="fill:#fff;stroke:#263238;stroke-linecap:round;stroke-linejoin:round"></path><path d="M83.13,248.44h14a1.45,1.45,0,0,0,1.39-1.2l3.44-21.74a1,1,0,0,0-1-1.2H87a1.46,1.46,0,0,0-1.39,1.2l-3.44,21.74A1,1,0,0,0,83.13,248.44Z" style="fill:#fff;stroke:#263238;stroke-linecap:round;stroke-linejoin:round"></path><path d="M97.85,228.56h1.27a.92.92,0,0,0,.88-.77l.21-1.27a.64.64,0,0,0-.65-.76H98.29a.94.94,0,0,0-.89.76l-.2,1.27A.64.64,0,0,0,97.85,228.56Z" style="fill:none;stroke:#263238;stroke-linecap:round;stroke-linejoin:round"></path><path d="M98.2,227.16a.42.42,0,0,0,.43.5.63.63,0,0,0,.58-.5.43.43,0,0,0-.43-.51A.63.63,0,0,0,98.2,227.16Z" style="fill:none;stroke:#263238;stroke-linecap:round;stroke-linejoin:round"></path><path d="M99.15,240.4s1.33-3.88,2.32-3c.78.71-.55,3-.55,3Z" style="fill:#fff;stroke:#263238;stroke-linecap:round;stroke-linejoin:round"></path><path d="M102.39,241.9c.23-.44,1-1.45.7-1.87-.49-.78-2.78-.59-3.66-.33a3.88,3.88,0,0,0-1.57.71c-.13.18-.31.71-.16.87s1.14-.13,1.52-.14a14,14,0,0,1,2,.31,15.46,15.46,0,0,1-2.28.53c-.8,0-3.73-.49-3,1.21,0,0-1.08.33-.46,1.14s2.72.74,2.72.74a6,6,0,0,1-1.47.22c-.84,0-1.49-.64-1.57-.19-.12.69.51,1.27,1.4,1.6a3.51,3.51,0,0,0,2.76,0C100.81,246.16,101.75,243.17,102.39,241.9Z" style="fill:#fff;stroke:#263238;stroke-linecap:round;stroke-linejoin:round"></path><path d="M96.61,243.45a17.7,17.7,0,0,0,2.35.35,3.83,3.83,0,0,0,1.59-.31" style="fill:none;stroke:#263238;stroke-linecap:round;stroke-linejoin:round"></path><path d="M89.81,222.78a39.14,39.14,0,0,0-.23-8.84c-1.1-5.88-2.38-10.79-3.25-13.81" style="fill:none;stroke:#7f7f7f;stroke-linecap:round;stroke-linejoin:round"></path><path d="M75.42,316.69s8.89,9.63,12.31,12.31c1.07.84,3.31,3,4.63,2.81.65-.11,1.62-2.05,1.62-2.05l-3.35-6.3-1.52-5.16a2,2,0,0,0-1.82-1.44l-.73,0a2,2,0,0,0-1.58.66l-.16.18-.17-.94a2,2,0,0,0-.56-1.06l-4-4a9.23,9.23,0,0,0-4.73,2.85A1.54,1.54,0,0,0,75.42,316.69Z" style="fill:#263238;stroke:#263238;stroke-linecap:round;stroke-linejoin:round"></path><path d="M103.14,267.12s2.82-3.88,4.37-4.65" style="fill:none;stroke:#263238;stroke-linecap:round;stroke-linejoin:round"></path><path d="M97.38,147.12a2,2,0,0,1-1.36-.56,21.12,21.12,0,0,0-29.84,0,1.92,1.92,0,0,1-2.71-2.72,25,25,0,0,1,35.26,0,1.92,1.92,0,0,1-1.35,3.28Z" style="fill:#92E3A9;stroke:#263238;stroke-linecap:round;stroke-linejoin:round"></path><path d="M92.27,152.23a1.92,1.92,0,0,1-1.36-.57,13.88,13.88,0,0,0-19.62,0A1.92,1.92,0,1,1,68.57,149a17.72,17.72,0,0,1,25.06,0,1.93,1.93,0,0,1-1.36,3.28Z" style="fill:#92E3A9;stroke:#263238;stroke-linecap:round;stroke-linejoin:round"></path><path d="M87.8,156.7a1.87,1.87,0,0,1-1.36-.56,7.57,7.57,0,0,0-10.68,0,1.92,1.92,0,0,1-2.71-2.71,11.4,11.4,0,0,1,16.1,0,1.91,1.91,0,0,1,0,2.71A1.87,1.87,0,0,1,87.8,156.7Z" style="fill:#92E3A9;stroke:#263238;stroke-linecap:round;stroke-linejoin:round"></path></g></svg>
