<svg data-name="Layer 1" xmlns="http://www.w3.org/2000/svg" xmlns:xlink="http://www.w3.org/1999/xlink" viewBox="0 0 165.72 130.57"><defs><linearGradient id="a" x1="112.39" y1="84.59" x2="115.37" y2="48.83" gradientUnits="userSpaceOnUse"><stop offset=".01"/><stop offset=".08" stop-opacity=".69"/><stop offset=".21" stop-opacity=".32"/><stop offset="1" stop-opacity="0"/></linearGradient><linearGradient id="c" x1="102.11" y1="70.71" x2="112.72" y2="37.22" xlink:href="#a"/><linearGradient id="d" x1="-58.18" y1="334.05" x2="-85.23" y2="311.44" gradientTransform="rotate(5.04 2994.27 2325.216)" xlink:href="#a"/><linearGradient id="b" x1="30.19" y1="52.82" x2="124.07" y2="71.49" gradientUnits="userSpaceOnUse"><stop offset=".01"/><stop offset=".13" stop-opacity=".69"/><stop offset=".25" stop-opacity=".32"/><stop offset="1" stop-opacity="0"/></linearGradient><linearGradient id="e" x1="70.48" y1="49.47" x2="64.78" y2="95.84" xlink:href="#b"/><linearGradient id="f" x1="25.44" y1="64.52" x2="109.06" y2="231.77" xlink:href="#a"/><linearGradient id="g" x1="70.72" y1="93.7" x2="136.2" y2="81.86" xlink:href="#b"/><linearGradient id="h" x1="152.97" y1="92.09" x2="74.08" y2="81.05" xlink:href="#b"/><linearGradient id="i" x1="362.8" y1="-151.94" x2="370" y2="-154.28" gradientTransform="rotate(-9.52 1391.314 1773.009)" xlink:href="#b"/><linearGradient id="j" x1="360.02" y1="-149.42" x2="374.22" y2="-151.35" gradientTransform="rotate(-9.52 1298.596 1822.002)" xlink:href="#b"/><linearGradient id="k" x1="356.46" y1="-142.2" x2="375.1" y2="-138.08" gradientTransform="rotate(-9.52 1391.314 1773.009)" xlink:href="#b"/><linearGradient id="l" x1="369.53" y1="-155.48" x2="381.05" y2="-151.93" gradientTransform="rotate(-9.52 1391.314 1773.009)" xlink:href="#b"/></defs><path d="M24.16 9.05c-7.89 4.46-14.88 10.87-18.87 19S.62 45.22.2 54.14c-.42 10-.37 20 2.08 29.7 2.27 8.93 6.54 17.23 11.33 25.1 3.52 5.78 7.49 11.54 13.17 15.23a38.4 38.4 0 0013.57 5 75 75 0 0047.77-6.54c11-5.52 20.56-13.75 32.17-17.66 10.19-3.43 21.63-3.44 30.81-9 11.44-7 16.68-21.94 13.88-35.05s-12.65-24-24.59-30.12c-6.77-3.46-14.09-5.46-20.91-8.69s-13.05-7.65-19.7-11.24C76.02-1.98 48.1-4.49 24.16 9.05z" fill="#4fc3f7" opacity=".18" style="isolation:isolate"/><path d="M105.62 45.34l1.33.56a2 2 0 011.17.87 2 2 0 01-.07 1.37c-.18.59-.39 1.18-.62 1.76-.3.77-.65 1.53-.88 2.32a16.81 16.81 0 00-.24 6.09c0 .66-.84 1-1.49 1.09a7.22 7.22 0 01-3.69-.19.79.79 0 01-.3-.16.68.68 0 01-.14-.49c-.07-1.09-.07-2.22-.22-3.22a8.85 8.85 0 00-.33-1.61 15.38 15.38 0 01-.26-1.56c-.09-.42-.22-.83-.29-1.25a2.37 2.37 0 01.09-1.27c.18-.44.43-.85.65-1.27a12.57 12.57 0 00.62-1.41 3.89 3.89 0 01.43-1 2.53 2.53 0 011.95-.9 5.37 5.37 0 012.29.27z" fill="#ffbbab"/><path d="M97.43 40.17a6.18 6.18 0 01-.91-1.57 8.67 8.67 0 01-.46-2.24 1.88 1.88 0 01.06-.82c.13-.36.45-.63.55-1a.17.17 0 000-.12s-.05-.08-.13-.08l-.42-.11a1.43 1.43 0 00-.16-1 .62.62 0 00-.58-.36c-.26 0-.39.33-.61.48s-.46.17-.65.32a1.2 1.2 0 00-.32.8 6.38 6.38 0 00.32 2.12 19.34 19.34 0 00.58 2.36 19.16 19.16 0 003.62 6.51c.62.73 3 3.61 3.94 2.87 1.33-1 .46-2.65-.46-3.44a26.38 26.38 0 01-4.37-4.72z" fill="#ffbbab"/><path d="M103.02 44.86c-.45.69-.89 1.4-1.3 2.12a1 1 0 00-.18.75.74.74 0 00.38.38 2.27 2.27 0 002.18-.18 7.49 7.49 0 001.65-1.59 3.38 3.38 0 01.92-.85 1.17 1.17 0 011.2 0 .73.73 0 01.17 1.08c0-.32-.39-.52-.7-.44a1.44 1.44 0 00-.71.63 10.59 10.59 0 00-.66 1.07 3.11 3.11 0 00-.35.87 2.84 2.84 0 00.75 2.08 2.68 2.68 0 01.44.74 2.59 2.59 0 01-.1 1.29 17.5 17.5 0 00-.27 5.36 1.12 1.12 0 01-.21 1 1 1 0 01-.68.21c-1.15 0-2.29-.26-3.45-.23a19.17 19.17 0 01-2.14.11.31.31 0 01-.33-.41 22.3 22.3 0 00.15-6 13.78 13.78 0 01-.44-2.77 1.36 1.36 0 01.11-.6 2.15 2.15 0 01.35-.5 7.92 7.92 0 001.58-3.11" fill="#fff"/><path d="M105.93 54.11a1.08 1.08 0 01-.39.88 1.83 1.83 0 00-.24.13c-.15.14-.13.38-.16.58a3.06 3.06 0 01-.58 1 .89.89 0 000 1.09c.18.18.48.21.63.42s0 .89.31 1.1a.46.46 0 00.57-.18 1.31 1.31 0 00.17-.62q.35-3.37.64-6.77a.73.73 0 00-.19-.67c-.15-.21-.35-.61-.57-.72-.25.37-.06 1.17-.06 1.6-.04.73-.07 1.45-.13 2.16z" fill="#020202" opacity=".1"/><path d="M100.45 40.96a1.26 1.26 0 00-.25.58 1.14 1.14 0 00.16.42 2.83 2.83 0 01.25 1 1.36 1.36 0 00.19.74 1.14 1.14 0 00.88.31h.74a.5.5 0 01.27 0 .44.44 0 01.19.19 5.3 5.3 0 01.41 1.7.62.62 0 00.13.27.52.52 0 00.2.17 2.21 2.21 0 001.62 0 .62.62 0 00.33-.24.68.68 0 000-.45 8.15 8.15 0 00-.26-1.19 4.32 4.32 0 01-.32-1.61c0-.49.27-.94.35-1.42a2.39 2.39 0 00-1.41-2.46 2.84 2.84 0 00-2.46.18c-.27.14-.49.21-.62.5s-.16.9-.4 1.31z" fill="#ffbbab"/><path d="M100.52 37.98a2.6 2.6 0 01-.07-.56c0-.64.37-1.37 1-1.39.45 0 .85.34 1.31.34a3.73 3.73 0 00.56-.12 3.27 3.27 0 011.46 0 4.05 4.05 0 012.58 1.62 2.74 2.74 0 01.1 3c-.33.5-.84.86-1.19 1.35a10.13 10.13 0 01-.55.89c-.18.21-.6.55-.9.4s-.32-.64-.53-.85a7.31 7.31 0 00.59-.52.7.7 0 00.16-.72c-.12-.24-.53-.29-.63 0a2.2 2.2 0 00-.7-1.82.9.9 0 00-.26-.22.91.91 0 00-.33 0h-.92c-.53 0-.79.15-1.17-.3a2.42 2.42 0 01-.51-1.1z" fill="#fc682d"/><path d="M103.52 44.11a.32.32 0 01.23.07.38.38 0 01.08.24 7.39 7.39 0 010 1.33 1.07 1.07 0 01-.09.34.35.35 0 01-.29.18c-.13 0-.24-.11-.38-.14a.5.5 0 00-.42.1 1.87 1.87 0 00-.3.33 6.56 6.56 0 01-.73.78 6.22 6.22 0 01.8-1.71.81.81 0 01.36-.35c.12 0 .27 0 .35-.13s0-.38-.09-.55-.32-.41-.18-.53.54.03.66.04z" fill="#e0a194"/><path d="M113.16 41.75a11.24 11.24 0 001.1-1.19 6.84 6.84 0 001.5-4.25 1.25 1.25 0 010-.51.43.43 0 01.35-.32.81.81 0 00.22 0c.11 0 .16-.15.25-.23a.47.47 0 01.5 0 1.38 1.38 0 01.39.37c.16.22.32.45.46.68a1.19 1.19 0 01.22.6 1.36 1.36 0 01-.49.89c-.31 0-.55.83-.63 1-.16.45-.34.9-.54 1.33a19 19 0 01-5.16 6.72c-.74.61-3.54 3-4.38 2.15-1.15-1.22 0-2.69 1-3.32a26 26 0 005.21-3.92z" fill="#ffbbab"/><path d="M101.07 42a3.37 3.37 0 01.55 0 .08.08 0 01.07 0 1.3 1.3 0 010 .87.67.67 0 01-.19.28.29.29 0 01-.32 0 .51.51 0 01-.16-.24 1.7 1.7 0 01-.17-.91.78.78 0 01.34 0" fill="#fff"/><path d="M99.89 42.68h-.09a.06.06 0 01.09 0z" fill="#4fc3f7"/><path d="M116.55 40.23a3.6 3.6 0 01-.45 1.54 15.76 15.76 0 01-7.71 7.57 1.23 1.23 0 00-.51.32 1.26 1.26 0 00-.21.47c-.77 3-.6 6.06-1.15 9.06a1.18 1.18 0 01-.31.72 1.23 1.23 0 01-.91.21h-.65a44.76 44.76 0 01-4.61-.49 1.07 1.07 0 01-.71-.32 1.09 1.09 0 01-.1-.78 41 41 0 00-.25-6.17 17.68 17.68 0 010-3 3.12 3.12 0 000-1.52 1.42 1.42 0 00-.24-.4 15.5 15.5 0 00-1.38-1.17 6.28 6.28 0 01-1.38-2.63c-.46-1.38-.94-2.75-1.38-4.13-.33-1 .19-1.47.94-1.85.27-.14.57-.27.88-.41a15 15 0 001.14 3.09 5.1 5.1 0 002.24 2.26.06.06 0 00-.06.06.23.23 0 00.1.19c.67.62 1.35 1.23 2 1.86a1.16 1.16 0 00.45.29c.2 0 .89-.18.86.19a.13.13 0 010 .06c0 .13-.12.23-.14.36a.4.4 0 00.23.38.81.81 0 00.46.08 1.72 1.72 0 00.51-.11c.27-.11.49-.3.75-.43a2.09 2.09 0 011.24-.07 5 5 0 001.34-.08 7.76 7.76 0 003.43-1.79 39.06 39.06 0 003.78-4.24 1.38 1.38 0 01.49-.41.9.9 0 01.94.24 1.34 1.34 0 01.37 1.05z" fill="#fff"/><path d="M125.93 54.89a3.6 3.6 0 01-.45 1.54 15.76 15.76 0 01-7.71 7.57 1.23 1.23 0 00-.51.32 1.26 1.26 0 00-.21.47c-.77 3-.6 6.06-1.15 9.06a1.18 1.18 0 01-.31.72 1.23 1.23 0 01-.91.21h-.65a44.76 44.76 0 01-4.61-.49 1.07 1.07 0 01-.71-.32 1.09 1.09 0 01-.1-.78 41 41 0 00-.25-6.17 17.68 17.68 0 010-3 3.12 3.12 0 000-1.52 1.42 1.42 0 00-.24-.4 15.5 15.5 0 00-1.38-1.17 6.28 6.28 0 01-1.38-2.63c-.46-1.38-.94-2.75-1.38-4.13-.33-1 .19-1.47.94-1.85.27-.14.57-.27.88-.41a15 15 0 001.14 3.09 5.1 5.1 0 002.24 2.26.06.06 0 00-.06.06.23.23 0 00.1.19c.67.62 1.35 1.23 2 1.86a1.16 1.16 0 00.45.29c.2 0 .89-.18.86.19a.13.13 0 010 .06c0 .13-.12.23-.14.36a.4.4 0 00.23.38.81.81 0 00.46.08 1.72 1.72 0 00.51-.11c.27-.11.49-.3.75-.43a2.09 2.09 0 011.24-.07 5 5 0 001.34-.08 7.76 7.76 0 003.43-1.79 39.06 39.06 0 003.78-4.24 1.38 1.38 0 01.49-.41.9.9 0 01.94.24 1.34 1.34 0 01.37 1.05z" transform="translate(-9.38 -14.66)" fill="url(#a)"/><path d="M108.38 62.46c-.08-.12-.15-.25-.24-.36a15.5 15.5 0 00-1.38-1.17 6.28 6.28 0 01-1.38-2.63c-.46-1.38-.94-2.75-1.38-4.13-.33-1 .19-1.47.94-1.85a1.53 1.53 0 01.36.51 6.45 6.45 0 01.33 1.31 8.83 8.83 0 001.26 2.86c.59.94 1.15 1.9 1.74 2.84a.65.65 0 01.08.17.55.55 0 010 .28 4.89 4.89 0 00-.22 1.14c-.05.24.08.9-.11 1.03z" transform="translate(-9.38 -14.66)" fill="url(#c)"/><path d="M125.93 54.89a3.6 3.6 0 01-.45 1.54 15.76 15.76 0 01-7.71 7.57 1.23 1.23 0 00-.51.32 1.26 1.26 0 00-.21.47c-.77 3-.6 6.06-1.15 9.06a1.18 1.18 0 01-.31.72 1.23 1.23 0 01-.91.21h-.65a1 1 0 01-.52-.19.86.86 0 01-.26-.52 22.86 22.86 0 01-.15-3.42 3.63 3.63 0 00-1.4-3 2.51 2.51 0 01-.63-.43.49.49 0 010-.68.6.6 0 01.32-.1 15.6 15.6 0 001.94-.26 2.6 2.6 0 001.61-1c.33-.5.4-1.14.76-1.62a3.69 3.69 0 011.79-1 15 15 0 006.06-4.36c.72-.87 1.27-2.44 2.16-3.09a1.08 1.08 0 01.22-.22z" transform="translate(-9.38 -14.66)" fill="url(#d)"/><path d="M66.07 78.9a87.51 87.51 0 01-13.1 7.82l-.65.08h-.18a1.21 1.21 0 01-1.13-1.46 9.36 9.36 0 01.19-1.08q.87-4.08 1.75-8.15a.46.46 0 00-.2-.54l-10.47-8.13a.42.42 0 00-.51-.06c-.62.32-1.26.61-1.9.9-2.25 1.06-4.42 2.06-6.64 3.06a1.16 1.16 0 01-1.61-.63l-.13-.3v-.16a23.88 23.88 0 01.42-2.39 104.76 104.76 0 014.11-12.21 9.75 9.75 0 014.19-5.12 12.81 12.81 0 014.8-1.57 34.71 34.71 0 013.94-.34h1.25a.66.66 0 00.44-.26c1-1.46 1.94-3 3-4.4a71.83 71.83 0 014.76-6.07 75.09 75.09 0 015.56-5.12 44.77 44.77 0 016.3-4.66 44 44 0 0110.68-4.39c.72-.22 1.45-.41 2.18-.61l1.5-.16h.27a1.85 1.85 0 011.54 1.26.59.59 0 010 .13 7.93 7.93 0 01.14 1 25.78 25.78 0 01-.1 5.27 37.12 37.12 0 01-1.85 9.28 64.93 64.93 0 01-3.6 8.14 41.68 41.68 0 01-3.86 6.4 108.54 108.54 0 01-7.54 8.85.56.56 0 00-.15.61c.18.78.35 1.56.49 2.34a18.14 18.14 0 01.4 4.93 9.82 9.82 0 01-4.29 7.74z" fill="#fff"/><path d="M58 86.26l-6.3-4.91s2.71-8.35 6.63-18.07h1.25a.66.66 0 00.44-.26c1-1.46 1.94-3 3-4.4a71.83 71.83 0 014.76-6.07 75.09 75.09 0 015.56-5.12 44.77 44.77 0 016.3-4.66 44 44 0 0110.68-4.39c.72-.22 1.45-.41 2.18-.61l1.5-.16h.27a1.85 1.85 0 011.54 1.26.59.59 0 010 .13C92.24 41.9 66.45 63.21 58 86.26z" transform="translate(-9.38 -14.66)" fill="url(#b)"/><path d="M65.23 67.65A7.52 7.52 0 0067.34 66c1.23 1.63 1.66 3.71 2.49 5.57a2.2 2.2 0 00.86 1.12 2.43 2.43 0 001.14.18h2.31a5.69 5.69 0 002.38-.51c.41-.2.81-.6.69-1s-.7-.58-1.17-.58a5.75 5.75 0 01-1.76-.16A3.08 3.08 0 0172.67 69a12.9 12.9 0 01-.78-2.1 24.27 24.27 0 00-1.52-3.56A6.68 6.68 0 0069 61.43a2.87 2.87 0 00-2.14-.8c-1.42.15-2.34 1.59-3.66 2.13a10.16 10.16 0 00-1.83.64 3.71 3.71 0 00-.94 1 10.8 10.8 0 00-1.67 3.6 9.65 9.65 0 006.47-.35z" transform="translate(-9.38 -14.66)" fill="url(#e)"/><path d="M57.98 45.13s2-.18 2.74.55a10.59 10.59 0 012.33 4.66c.18.66.4 1.3.55 2a6.61 6.61 0 00.54 1.79 1.44 1.44 0 00.77.69 2.68 2.68 0 00.8.06 6.33 6.33 0 011 .07.39.39 0 01.18.06.36.36 0 01.07.17 1 1 0 01-.39.91 4.18 4.18 0 01-2.72.31c-1.1-.37-1.45-2.41-1.85-3.36a75.61 75.61 0 00-1.86-4.1 1.27 1.27 0 00-.32-.47 1.37 1.37 0 00-.55-.21l-2.41-.52c.23-.87.87-1.75 1.12-2.61z" fill="#ffbbab"/><circle cx="68.74" cy="45.81" r="5.91" fill="#4fc3f7"/><circle cx="68.74" cy="45.81" r="3.93" fill="#473f47"/><path d="M51.31 48.97l-9.37 18.56-8.89 4s-1.73 1.15-1.56-1.21 4.76-15.62 6.13-17.46 5.54-5.2 13.69-3.89zM69.39 63.49L52.95 76.11l-2.4 11.14a2.57 2.57 0 003.18.76c2.25-.75 13.88-8.5 15.33-10.25s3.63-6.71.33-14.27zM78.52 24.5l7.92 6.12s.41-6.34 0-7.67-7.92 1.55-7.92 1.55z" fill="#4fc3f7"/><path fill="#4fc3f7" d="M42.33 66.7l-1.57 2.79 10.55 8.1 2.43-2.08-11.41-8.81z"/><path d="M50.14 84.14s-30.46 32.44-10.48 47.34 43.07 5.08 43.07 5.08-33 7.29-37.81-11.22c-2.81-10.83 15.77-33.09 15.77-33.09z" transform="translate(-9.38 -14.66)" opacity=".36" fill="url(#f)"/><path d="M105.36 98.34l7.42 4.51H93.94l7.42-4.8v-3.91l-1.24-1.47v-4.66c-12.14-4.2-11.85-30.24-11.85-30.24h30.18v.31c.18 2.86 1.19 24.78-10.18 29.56a10.21 10.21 0 01-1.38.48v4l-1 1.29-.53.67z" fill="#4fc3f7"/><path d="M89.55 80.34a2.79 2.79 0 01-2-.75 2.55 2.55 0 01-.49-2.66l1.38.4a1.21 1.21 0 00.18 1.25 1.61 1.61 0 001.52.25 1.17 1.17 0 00.85-.68c-.12-.42-2-2-3.46-3.33-4-3.5-9-7.85-7.37-11.35a3.73 3.73 0 012.6-2.22c3.2-.74 7.44 2.7 7.62 2.85l-.91 1.11c-1.07-.88-4.31-3-6.39-2.56a2.33 2.33 0 00-1.62 1.43c-1.18 2.52 3.75 6.81 7 9.65 2.9 2.53 4.17 3.69 3.92 4.76a2.52 2.52 0 01-1.86 1.73 4 4 0 01-.97.12zM118.11 80.34a3.45 3.45 0 01-.95-.13 2.52 2.52 0 01-1.87-1.73c-.25-1.07 1-2.23 3.92-4.76 3.26-2.84 8.19-7.13 7-9.65a2.19 2.19 0 00-1.52-1.32c-2.27-.5-6 2-7.21 3l-.86-1.12c.21-.16 5-4 8.44-3.27a3.57 3.57 0 012.51 2.11c1.64 3.5-3.36 7.85-7.37 11.35-1.49 1.3-3.34 2.91-3.46 3.43.08.25.49.48.85.58a1.56 1.56 0 001.51-.25 1.21 1.21 0 00.13-1.24l1.39-.4a2.54 2.54 0 01-.5 2.66 2.78 2.78 0 01-2.01.74z" fill="#4fc3f7"/><path d="M108.29 87.65a10.21 10.21 0 01-1.38.48v.1h-6.79v-.22c-12.14-4.2-11.85-30.24-11.85-30.24h7.4s-3.28 17.25 7.75 27.7c2.35 2.24 3.2 1.68 4.87 2.18z" fill="#fff" opacity=".28"/><path d="M112.33 88.22a4.76 4.76 0 01-1.38 0z" fill="#4fc3f7"/><path fill="#fff" opacity=".28" d="M102.34 88.23v4.35l1.08 1.45v4.03l-2.92 4.81h-5.62l7.28-4.54v-4.21l-1.44-1.76v-4.38l1.62.25z"/><path d="M109.5 102.9v-.22c-12.14-4.2-11.85-30.24-11.85-30.24h2.15s-1.32 22.93 10.3 30.2l.4.26z" transform="translate(-9.38 -14.66)" fill="url(#g)"/><path d="M106.91 88.13v4l-1 1.29c-2.12-.73-2.45-2.29 1-5.29z" fill="#4fc3f7"/><path d="M117.67 102.31a10.21 10.21 0 01-1.38.48c11.24-9.75 5.42-30.35 5.42-30.35l6.14.31c.15 2.86 1.15 24.78-10.18 29.56z" transform="translate(-9.38 -14.66)" fill="url(#h)"/><path d="M52.38 31.4l.7-1.43a28.4 28.4 0 012.29-4.06c1.81-2.49 2.75-5.5 4.31-8.16a1 1 0 00.18-.49c0-.39-.46-.61-.85-.71a3.19 3.19 0 00-1.59-.11 1.4 1.4 0 00-1.09 1.06 4.65 4.65 0 00.07.91 4.13 4.13 0 01-.84 2.35l-3.94 6.38a5.11 5.11 0 00-1 2.45 1.91 1.91 0 001.76 1.81z" fill="#ffbbab"/><path d="M61.76 46.06a2.25 2.25 0 00.33-1.65 7.52 7.52 0 010-2.27 4.29 4.29 0 00.12-2.24s0-.07-.06-.09a.15.15 0 00-.16 0 1.16 1.16 0 00-.51.65c-.42 1-1.7 2.69-1.52 3.78a1.91 1.91 0 001.8 1.82z" transform="translate(-9.38 -14.66)" fill="url(#i)"/><path fill="#4fc3f7" d="M49.11 32.05l2.06-2.61 2.45 2.24-2.31 2.08-2.2-1.71z"/><path fill="url(#j)" d="M49.11 32.05l2.06-2.61 2.45 2.24-2.31 2.08-2.2-1.71z"/><path d="M54.38 35.27l.95.33c.33.11 1 .55 1.31.25s0-1.21 0-1.54a16.6 16.6 0 00-.85-3.47 2.2 2.2 0 01-.17-1.78 1 1 0 01.86-.51 1.06 1.06 0 01.87.48 4.44 4.44 0 01.29 1 1.33 1.33 0 01.12.72 2.44 2.44 0 00-.14.34.83.83 0 00.07.38l1.25 3.29a4 4 0 01.38 2.27 2.39 2.39 0 01-2.5 1.61 7.63 7.63 0 01-3.35-1.16c-.11-.06-.24-.17-.2-.29a.3.3 0 01.13-.12 2.24 2.24 0 00.79-.77 1.18 1.18 0 00.19-1.03zM51.56 29.92a.66.66 0 01-.19.36 1.14 1.14 0 01-.51.17 1 1 0 00-.51.21.28.28 0 000 .27l.27 1.15a.39.39 0 010 .26.44.44 0 01-.25.21c-.4.19-.91.36-1.26.09a1.14 1.14 0 01-.35-.6 13.1 13.1 0 01-.92-4 2.89 2.89 0 01.8-2.27 2.78 2.78 0 012-.61 1 1 0 01.8.47c.11.2 0 .41.07.63a6.1 6.1 0 00.17.95 3.81 3.81 0 00.15.44 1.24 1.24 0 01.14.38 1.63 1.63 0 01-.16.71 4 4 0 00-.21.84c.02.14.02.24-.04.34z" fill="#ffbbab"/><path d="M51.87 25.03a1.57 1.57 0 01-.89 1.18c-1.08.51-2.62.44-2.21 2a4.24 4.24 0 01-.34 3.75c-.25.37-.56.69-.78 1.08-.36.6-.47 1.33-.86 1.91-.78 1.15-2.36 1.39-3.74 1.39a3.8 3.8 0 00-1.54.29c-1.13.56-1.64 2.22-2.89 2.28s-1.68-1.57-2.38-2.37a3.37 3.37 0 01-.69-3.74c1.29-2.64 5.5-2.48 7.09-5 .98-1.46.98-3.46 2.68-4.4a6.37 6.37 0 015.91.28 1.28 1.28 0 01.64 1.35z" fill="#473f47"/><path d="M53.72 43.79a1.23 1.23 0 00.41.22 4.09 4.09 0 001.6.07 22.26 22.26 0 012.31 0 .9.9 0 01.53.14c.26.22.18.63.07.95a42.62 42.62 0 01-1.67 4.28 3.58 3.58 0 01-1.1 1.56 3.34 3.34 0 01-1.3.47 22.08 22.08 0 01-2.81.39 5 5 0 01-2.71-.36 4.24 4.24 0 01-1.88-2.44 5.53 5.53 0 01-.27-3.09c.25-1.1.75-1.42.44-2.6a27.34 27.34 0 01-.86-4.47 11 11 0 01.38-4.08 5.43 5.43 0 01.76-1.72 2.71 2.71 0 011.49-1.06 1.77 1.77 0 011.7.47c1.17 1.27 2.77 1.34 4.1 2.43a.43.43 0 01.17.21.39.39 0 010 .28l-.87 2.09a3.23 3.23 0 01-.33.64c-.12.17-.27.31-.38.48a3.17 3.17 0 00-.44 1.69c-.01 1-.25 2.74.66 3.45z" fill="#4fc3f7"/><path d="M61.83 59.79a1 1 0 01-1-.07c-.7-.52-.16-.88 0-1.42A5.65 5.65 0 0061 56c-.11-1.49-.23-3-.34-4.48.06.37 1.82.89 2.51 1.36-.12.17-.27.31-.38.48-.78 1.14-.37 3.42-.35 4.71.05.62-.03 1.4-.61 1.72z" transform="translate(-9.38 -14.66)" fill="url(#k)"/><path d="M60.56 25.89a6.89 6.89 0 010 3.48.5.5 0 01-.19.12.26.26 0 01-.17 0c-.45-.09-3-1.76-6-.71a1.1 1.1 0 11-.36-2.13s3.93-1.31 4.78-3.64c.11-.35.33-.48.58-.44a1 1 0 01.43.2 8.8 8.8 0 01.93 3.12z" fill="#4fc3f7"/><path d="M69.94 40.55a6.89 6.89 0 010 3.48.22.22 0 01-.15.12c-.4 0-1-1.5-1.28-3.35s-.26-3.3.07-3.57h.08c.11 0 .22.07.35.24a8.8 8.8 0 01.93 3.08z" transform="translate(-9.38 -14.66)" fill="url(#l)"/><path d="M66.39 54.72a.58.58 0 00-.41.65c0 .16.19.32.12.47a.31.31 0 01-.23.15 4 4 0 01-2.84-.19.46.46 0 00.12.45 1.57 1.57 0 00.59.61 1.5 1.5 0 00.52.1 6.63 6.63 0 003.87-1.31 1.12 1.12 0 00.28-.25.34.34 0 000-.36c-.06-.15-.24-.2-.4-.23a8 8 0 00-.84-.08 1.94 1.94 0 00-.78-.01z" fill="#4fc3f7"/></svg>