<svg width="340" height="119" viewBox="0 0 340 119" fill="none" xmlns="http://www.w3.org/2000/svg">
<path d="M37.582 81.8958C37.582 84.1198 37.9414 85.7448 38.6654 86.7708C39.3841 87.7865 40.7747 88.2917 42.832 88.2917H45.5195C47.1445 88.2917 48.3164 88.6562 49.0404 89.375C49.7591 90.099 50.1237 91.2708 50.1237 92.8958V108.125C50.1237 109.75 49.7591 110.922 49.0404 111.646C48.3164 112.38 47.1445 112.75 45.5195 112.75H39.8945C27.8529 112.75 19.5872 110.312 15.1029 105.437C10.6289 100.578 8.39453 94.3073 8.39453 86.625V69.9792C5.65495 69.1354 3.60807 67.8333 2.2487 66.0833C0.884115 64.3333 0.207031 61.9271 0.207031 58.8542V54.375C0.207031 51.3073 0.884115 48.9167 2.2487 47.2083C3.60807 45.5 5.65495 44.2187 8.39453 43.3542V26.3333C8.39453 18.5729 10.6289 12.2604 15.1029 7.39582C19.5872 2.53645 27.8529 0.104156 39.8945 0.104156H45.5195C47.1445 0.104156 48.3164 0.468739 49.0404 1.18749C49.7591 1.91145 50.1237 3.08332 50.1237 4.70832V20.1875C50.1237 21.8125 49.7591 22.9948 49.0404 23.7292C48.3164 24.4531 47.1445 24.8125 45.5195 24.8125H42.832C40.7747 24.8125 39.3841 25.3281 38.6654 26.3542C37.9414 27.3698 37.582 28.9896 37.582 31.2083V46.1875C37.582 48.7448 37.1706 50.6198 36.3529 51.8125C35.5456 53.0104 34.0299 53.7812 31.8112 54.125L27.6029 54.875C27.0039 54.974 26.5716 55.1458 26.3112 55.3958C26.0612 55.6458 25.9362 56.0729 25.9362 56.6667C25.9362 57.2656 26.0612 57.6979 26.3112 57.9583C26.5716 58.2083 27.0039 58.375 27.6029 58.4583L31.8112 59.2292C34.0299 59.5781 35.5456 60.349 36.3529 61.5417C37.1706 62.7396 37.582 64.6146 37.582 67.1667V81.8958Z" fill="black"/>
<path d="M140.226 102.5H119.497C117.872 102.5 116.695 102.141 115.976 101.417C115.252 100.698 114.893 99.5208 114.893 97.8958V81.5L95.3095 55.2708C93.3512 52.6198 92.0439 50.3125 91.3929 48.3541C90.7522 46.3958 90.4345 43.4531 90.4345 39.5208V14.9583C90.4345 13.3333 90.7939 12.1614 91.5179 11.4375C92.2522 10.7031 93.4345 10.3333 95.0595 10.3333H114.768C116.393 10.3333 117.565 10.7031 118.289 11.4375C119.007 12.1614 119.372 13.3333 119.372 14.9583V35.9375C119.372 36.8021 119.414 37.7031 119.497 38.6458C119.58 39.5781 119.919 40.4687 120.518 41.3125L126.414 50.5416C126.841 51.3073 127.289 51.8646 127.747 52.2083C128.216 52.5416 128.794 52.7083 129.476 52.7083H130.768C131.445 52.7083 132.023 52.5416 132.497 52.2083C132.966 51.8646 133.414 51.3073 133.83 50.5416L139.726 41.3125C140.32 40.4687 140.664 39.5781 140.747 38.6458C140.83 37.7031 140.872 36.8021 140.872 35.9375V14.9583C140.872 13.3333 141.231 12.1614 141.955 11.4375C142.69 10.7031 143.862 10.3333 145.476 10.3333H164.56C166.185 10.3333 167.356 10.7031 168.08 11.4375C168.799 12.1614 169.164 13.3333 169.164 14.9583V39.5208C169.164 43.4531 168.82 46.3958 168.143 48.3541C167.461 50.3125 166.185 52.6198 164.31 55.2708L144.851 81.6458V97.8958C144.851 99.5208 144.481 100.698 143.747 101.417C143.023 102.141 141.851 102.5 140.226 102.5Z" fill="black"/>
<path d="M230.612 114.792C230.18 116.151 229.492 117.13 228.55 117.729C227.617 118.323 226.341 118.625 224.716 118.625H208.591C206.451 118.625 205.122 118.151 204.612 117.208C204.112 116.276 204.159 115.042 204.758 113.5L208.841 102.375C199.883 101.781 193.221 99.3489 188.862 95.0833C184.513 90.8073 182.341 84.5781 182.341 76.3958V36.5833C182.341 27.7083 184.925 21.1198 190.091 16.8125C195.258 12.4948 203.175 10.3333 213.841 10.3333H245.07C246.695 10.3333 247.867 10.7031 248.591 11.4375C249.31 12.1614 249.675 13.3333 249.675 14.9583V30.4375C249.675 32.0625 249.31 33.2396 248.591 33.9583C247.867 34.6823 246.695 35.0416 245.07 35.0416H219.341C216.701 35.0416 214.737 35.5781 213.445 36.6458C212.164 37.7187 211.529 39.3125 211.529 41.4375V71.9166C211.529 74.0416 212.164 75.5989 213.445 76.5833C214.737 77.5573 216.701 78.0416 219.341 78.0416H245.07C246.695 78.0416 247.867 78.4114 248.591 79.1458C249.31 79.8698 249.675 81.0416 249.675 82.6666V97.8958C249.675 99.5208 249.31 100.698 248.591 101.417C247.867 102.141 246.695 102.5 245.07 102.5H234.966L230.612 114.792Z" fill="black"/>
<path d="M302.421 81.8958V67.1667C302.421 64.6146 302.822 62.7396 303.629 61.5417C304.431 60.349 305.947 59.5781 308.171 59.2292L312.4 58.4583C312.994 58.375 313.421 58.2083 313.671 57.9583C313.931 57.6979 314.067 57.2656 314.067 56.6667C314.067 56.0729 313.931 55.6458 313.671 55.3958C313.421 55.1458 312.994 54.974 312.4 54.875L308.171 54.125C305.947 53.7812 304.431 53.0104 303.629 51.8125C302.822 50.6198 302.421 48.7448 302.421 46.1875V31.2083C302.421 28.9896 302.051 27.3698 301.317 26.3542C300.593 25.3281 299.213 24.8125 297.171 24.8125H294.484C292.859 24.8125 291.676 24.4531 290.942 23.7292C290.218 22.9948 289.859 21.8125 289.859 20.1875V4.70832C289.859 3.08332 290.218 1.91145 290.942 1.18749C291.676 0.468739 292.859 0.104156 294.484 0.104156H300.109C312.135 0.104156 320.385 2.53645 324.859 7.39582C329.343 12.2604 331.588 18.5729 331.588 26.3333V43.3542C334.322 44.2187 336.369 45.5 337.734 47.2083C339.109 48.9167 339.796 51.3073 339.796 54.375V58.8542C339.796 61.9271 339.109 64.3333 337.734 66.0833C336.369 67.8333 334.322 69.1354 331.588 69.9792V86.625C331.588 94.3073 329.343 100.578 324.859 105.437C320.385 110.312 312.135 112.75 300.109 112.75H294.484C292.859 112.75 291.676 112.38 290.942 111.646C290.218 110.922 289.859 109.75 289.859 108.125V92.8958C289.859 91.2708 290.218 90.099 290.942 89.375C291.676 88.6562 292.859 88.2917 294.484 88.2917H297.171C299.213 88.2917 300.593 87.7865 301.317 86.7708C302.051 85.7448 302.421 84.1198 302.421 81.8958Z" fill="black"/>
</svg>
