<svg width="341" height="119" viewBox="0 0 341 119" fill="none" xmlns="http://www.w3.org/2000/svg">
<path d="M37.964 81.7917C37.964 84.0156 38.3234 85.6406 39.0473 86.6667C39.7661 87.6823 41.1567 88.1875 43.214 88.1875H45.9015C47.5265 88.1875 48.6984 88.5521 49.4223 89.2708C50.1411 89.9948 50.5057 91.1667 50.5057 92.7917V108.021C50.5057 109.646 50.1411 110.818 49.4223 111.542C48.6984 112.276 47.5265 112.646 45.9015 112.646H40.2765C28.2348 112.646 19.9692 110.208 15.4848 105.333C11.0109 100.474 8.77649 94.2031 8.77649 86.5208V69.875C6.03691 69.0313 3.99003 67.7292 2.63066 65.9792C1.26607 64.2292 0.588989 61.8229 0.588989 58.75V54.2708C0.588989 51.2031 1.26607 48.8125 2.63066 47.1042C3.99003 45.3958 6.03691 44.1146 8.77649 43.25V26.2292C8.77649 18.4688 11.0109 12.1562 15.4848 7.29167C19.9692 2.43229 28.2348 0 40.2765 0H45.9015C47.5265 0 48.6984 0.364583 49.4223 1.08333C50.1411 1.80729 50.5057 2.97917 50.5057 4.60417V20.0833C50.5057 21.7083 50.1411 22.8906 49.4223 23.625C48.6984 24.349 47.5265 24.7083 45.9015 24.7083H43.214C41.1567 24.7083 39.7661 25.224 39.0473 26.25C38.3234 27.2656 37.964 28.8854 37.964 31.1042V46.0833C37.964 48.6406 37.5525 50.5156 36.7348 51.7083C35.9275 52.9063 34.4119 53.6771 32.1932 54.0208L27.9848 54.7708C27.3859 54.8698 26.9536 55.0417 26.6932 55.2917C26.4432 55.5417 26.3182 55.9688 26.3182 56.5625C26.3182 57.1615 26.4432 57.5938 26.6932 57.8542C26.9536 58.1042 27.3859 58.2708 27.9848 58.3542L32.1932 59.125C34.4119 59.474 35.9275 60.2448 36.7348 61.4375C37.5525 62.6354 37.964 64.5104 37.964 67.0625V81.7917Z" fill="#175D2D"/>
<path d="M140.608 102.396H119.879C118.254 102.396 117.077 102.036 116.358 101.312C115.634 100.594 115.275 99.4167 115.275 97.7917V81.3958L95.6915 55.1667C93.7331 52.5156 92.4258 50.2083 91.7748 48.25C91.1342 46.2917 90.8165 43.3489 90.8165 39.4167V14.8542C90.8165 13.2292 91.1758 12.0573 91.8998 11.3333C92.6342 10.5989 93.8165 10.2292 95.4415 10.2292H115.15C116.775 10.2292 117.947 10.5989 118.671 11.3333C119.389 12.0573 119.754 13.2292 119.754 14.8542V35.8333C119.754 36.6979 119.796 37.5989 119.879 38.5417C119.962 39.4739 120.301 40.3646 120.9 41.2083L126.796 50.4375C127.223 51.2031 127.671 51.7604 128.129 52.1042C128.598 52.4375 129.176 52.6042 129.858 52.6042H131.15C131.827 52.6042 132.405 52.4375 132.879 52.1042C133.348 51.7604 133.796 51.2031 134.212 50.4375L140.108 41.2083C140.702 40.3646 141.046 39.4739 141.129 38.5417C141.212 37.5989 141.254 36.6979 141.254 35.8333V14.8542C141.254 13.2292 141.613 12.0573 142.337 11.3333C143.072 10.5989 144.244 10.2292 145.858 10.2292H164.941C166.566 10.2292 167.738 10.5989 168.462 11.3333C169.181 12.0573 169.546 13.2292 169.546 14.8542V39.4167C169.546 43.3489 169.202 46.2917 168.525 48.25C167.843 50.2083 166.566 52.5156 164.691 55.1667L145.233 81.5417V97.7917C145.233 99.4167 144.863 100.594 144.129 101.312C143.405 102.036 142.233 102.396 140.608 102.396Z" fill="#175D2D"/>
<path d="M230.994 114.687C230.562 116.047 229.874 117.026 228.931 117.625C227.999 118.219 226.723 118.521 225.098 118.521H208.973C206.833 118.521 205.504 118.047 204.994 117.104C204.494 116.172 204.541 114.937 205.14 113.396L209.223 102.271C200.265 101.677 193.603 99.2448 189.244 94.9792C184.895 90.7031 182.723 84.474 182.723 76.2917V36.4792C182.723 27.6042 185.306 21.0156 190.473 16.7083C195.64 12.3906 203.556 10.2292 214.223 10.2292H245.452C247.077 10.2292 248.249 10.5989 248.973 11.3333C249.692 12.0573 250.056 13.2292 250.056 14.8542V30.3333C250.056 31.9583 249.692 33.1354 248.973 33.8542C248.249 34.5781 247.077 34.9375 245.452 34.9375H219.723C217.083 34.9375 215.119 35.4739 213.827 36.5417C212.546 37.6146 211.911 39.2083 211.911 41.3333V71.8125C211.911 73.9375 212.546 75.4948 213.827 76.4792C215.119 77.4531 217.083 77.9375 219.723 77.9375H245.452C247.077 77.9375 248.249 78.3073 248.973 79.0417C249.692 79.7656 250.056 80.9375 250.056 82.5625V97.7917C250.056 99.4167 249.692 100.594 248.973 101.312C248.249 102.036 247.077 102.396 245.452 102.396H235.348L230.994 114.687Z" fill="#175D2D"/>
<path d="M302.803 81.7917V67.0625C302.803 64.5104 303.204 62.6354 304.011 61.4375C304.813 60.2448 306.329 59.474 308.553 59.125L312.782 58.3542C313.376 58.2708 313.803 58.1042 314.053 57.8542C314.313 57.5938 314.449 57.1615 314.449 56.5625C314.449 55.9688 314.313 55.5417 314.053 55.2917C313.803 55.0417 313.376 54.8698 312.782 54.7708L308.553 54.0208C306.329 53.6771 304.813 52.9063 304.011 51.7083C303.204 50.5156 302.803 48.6406 302.803 46.0833V31.1042C302.803 28.8854 302.433 27.2656 301.699 26.25C300.975 25.224 299.595 24.7083 297.553 24.7083H294.865C293.24 24.7083 292.058 24.349 291.324 23.625C290.6 22.8906 290.24 21.7083 290.24 20.0833V4.60417C290.24 2.97917 290.6 1.80729 291.324 1.08333C292.058 0.364583 293.24 0 294.865 0H300.49C312.517 0 320.767 2.43229 325.24 7.29167C329.725 12.1562 331.97 18.4688 331.97 26.2292V43.25C334.704 44.1146 336.751 45.3958 338.115 47.1042C339.49 48.8125 340.178 51.2031 340.178 54.2708V58.75C340.178 61.8229 339.49 64.2292 338.115 65.9792C336.751 67.7292 334.704 69.0313 331.97 69.875V86.5208C331.97 94.2031 329.725 100.474 325.24 105.333C320.767 110.208 312.517 112.646 300.49 112.646H294.865C293.24 112.646 292.058 112.276 291.324 111.542C290.6 110.818 290.24 109.646 290.24 108.021V92.7917C290.24 91.1667 290.6 89.9948 291.324 89.2708C292.058 88.5521 293.24 88.1875 294.865 88.1875H297.553C299.595 88.1875 300.975 87.6823 301.699 86.6667C302.433 85.6406 302.803 84.0156 302.803 81.7917Z" fill="#175D2D"/>
</svg>
