<?xml version="1.0" standalone="no"?>
<!DOCTYPE svg PUBLIC "-//W3C//DTD SVG 20010904//EN"
 "http://www.w3.org/TR/2001/REC-SVG-20010904/DTD/svg10.dtd">
<svg version="1.0" xmlns="http://www.w3.org/2000/svg"
 width="260.000000pt" height="260.000000pt" viewBox="0 0 260.000000 260.000000"
 preserveAspectRatio="xMidYMid meet">
<metadata>
Created by potrace 1.14, written by Peter Selinger 2001-2017
</metadata>
<g transform="translate(0.000000,260.000000) scale(0.100000,-0.100000)"
fill="#000000" stroke="none">
<path d="M1259 2562 c-38 -38 -161 -158 -539 -522 -501 -483 -555 -541 -617
-665 -32 -63 -71 -168 -78 -205 -3 -19 -10 -53 -15 -74 -15 -69 -4 -282 19
-371 43 -162 133 -317 256 -440 235 -235 587 -332 930 -256 l90 20 80 -21
c116 -31 345 -31 465 1 289 75 514 249 648 500 106 200 128 478 55 706 -24 76
-87 197 -142 272 -27 38 -136 151 -241 253 -106 102 -229 221 -275 265 -336
327 -595 575 -598 574 -1 0 -18 -17 -38 -37z m115 -571 c108 -105 193 -187
426 -411 297 -285 295 -282 340 -371 42 -82 62 -163 63 -248 0 -96 -10 -156
-34 -203 -11 -21 -19 -42 -19 -49 0 -22 -89 -136 -142 -180 -83 -70 -188 -125
-188 -97 0 5 18 49 41 96 58 124 57 122 73 182 28 105 40 225 24 253 -6 12
-90 102 -186 199 -135 137 -178 175 -188 167 -11 -9 -11 -16 0 -38 103 -203
34 -512 -161 -718 -81 -85 -171 -86 -246 -1 -137 156 -206 321 -208 498 -1 83
8 132 36 196 15 34 20 56 14 65 -7 11 -56 -33 -198 -177 l-189 -192 4 -63 c8
-128 41 -245 107 -377 35 -68 39 -84 28 -92 -28 -17 -126 44 -218 137 -181
183 -208 479 -64 692 37 54 179 198 435 442 60 57 168 161 240 231 72 70 133
128 135 128 2 0 36 -31 75 -69z"/>
</g>
</svg>
