<?xml version="1.0" encoding="iso-8859-1"?>
<!-- Uploaded to: SVG Repo, www.svgrepo.com, Generator: SVG Repo Mixer Tools -->
<svg fill="#000000" version="1.1" id="Capa_1" xmlns="http://www.w3.org/2000/svg" xmlns:xlink="http://www.w3.org/1999/xlink" 
	 viewBox="0 0 60 60" xml:space="preserve">
<g>
	<g>
		<g>
			<path d="M2,2h39v7h2V1c0-0.6-0.4-1-1-1H1C0.4,0,0,0.4,0,1v58c0,0.6,0.4,1,1,1h32v-2H2V2z"/>
			<path d="M43.7,21.3l-2.8-6.6c-0.1-0.4-0.5-0.6-0.9-0.6s-0.7,0.2-0.9,0.6l-2.8,6.6C36.1,21.5,36,21.7,36,22v31v6c0,0.6,0.4,1,1,1
				h6c0.6,0,1-0.4,1-1v-6V22C44,21.7,43.9,21.4,43.7,21.3z M38,23h4v29h-4V23z M40,17.5l1.5,3.5h-3L40,17.5z M42,58h-4v-4h4V58z"/>
			<path d="M59,38H48c-0.6,0-1,0.4-1,1v20c0,0.6,0.4,1,1,1h11c0.6,0,1-0.4,1-1V39C60,38.4,59.6,38,59,38z M58,40v5h-9v-5H58z M49,58
				V47h9v11H49z"/>
			<path d="M27,11c0-3.3-2.7-6-6-6s-6,2.7-6,6s2.7,6,6,6S27,14.3,27,11z M17,11c0-2.2,1.8-4,4-4s4,1.8,4,4s-1.8,4-4,4S17,13.2,17,11
				z"/>
			<rect x="15" y="20" width="12" height="2"/>
			<rect x="15" y="25" width="12" height="2"/>
			<rect x="6" y="31" width="15" height="2"/>
			<rect x="6" y="36" width="26" height="2"/>
			<rect x="6" y="41" width="26" height="2"/>
			<rect x="6" y="46" width="8" height="2"/>
			<rect x="6" y="51" width="11" height="2"/>
			<rect x="21" y="46" width="8" height="2"/>
			<rect x="21" y="51" width="11" height="2"/>
		</g>
	</g>
	<g>
	</g>
	<g>
	</g>
	<g>
	</g>
	<g>
	</g>
	<g>
	</g>
	<g>
	</g>
	<g>
	</g>
	<g>
	</g>
	<g>
	</g>
	<g>
	</g>
	<g>
	</g>
	<g>
	</g>
	<g>
	</g>
	<g>
	</g>
	<g>
	</g>
</g>
</svg>